<mxfile host="Electron" modified="2024-07-20T06:46:42.488Z" agent="Mozilla/5.0 (Windows NT 10.0; Win64; x64) AppleWebKit/537.36 (KHTML, like Gecko) draw.io/24.5.3 Chrome/124.0.6367.207 Electron/30.0.6 Safari/537.36" etag="0PRmi-i4dhaN9EqF8Hjl" version="24.5.3" type="device">
  <diagram name="Page-1" id="ouYDV_jp8L__zZKspAmy">
    <mxGraphModel dx="1884" dy="557" grid="1" gridSize="10" guides="1" tooltips="1" connect="1" arrows="1" fold="1" page="1" pageScale="1" pageWidth="850" pageHeight="1100" math="0" shadow="0">
      <root>
        <mxCell id="0" />
        <mxCell id="1" parent="0" />
        <mxCell id="JP6gAlQ0Z_E1AmdTToNY-6" value="" style="shape=singleArrow;whiteSpace=wrap;html=1;arrowWidth=0.4;arrowSize=0.4;gradientColor=#1CFF24;gradientDirection=west;fillColor=#FF0000;" parent="1" vertex="1">
          <mxGeometry width="1370" height="290" as="geometry" />
        </mxCell>
        <mxCell id="JP6gAlQ0Z_E1AmdTToNY-1" value="&lt;b&gt;&lt;font style=&quot;font-size: 24px;&quot;&gt;day&lt;/font&gt;&lt;/b&gt;" style="whiteSpace=wrap;html=1;fillColor=none;strokeColor=none;" parent="1" vertex="1">
          <mxGeometry y="90" width="240" height="110" as="geometry" />
        </mxCell>
        <mxCell id="JP6gAlQ0Z_E1AmdTToNY-3" value="&lt;b&gt;&lt;font style=&quot;font-size: 24px;&quot;&gt;week&lt;/font&gt;&lt;/b&gt;" style="whiteSpace=wrap;html=1;strokeColor=none;fillColor=none;" parent="1" vertex="1">
          <mxGeometry x="270" y="85" width="250" height="120" as="geometry" />
        </mxCell>
        <mxCell id="JP6gAlQ0Z_E1AmdTToNY-9" value="&lt;b&gt;&lt;font style=&quot;font-size: 24px;&quot;&gt;month&lt;/font&gt;&lt;/b&gt;" style="whiteSpace=wrap;html=1;strokeColor=none;fillColor=none;" parent="1" vertex="1">
          <mxGeometry x="550" y="85" width="250" height="120" as="geometry" />
        </mxCell>
        <mxCell id="JP6gAlQ0Z_E1AmdTToNY-10" value="&lt;b&gt;&lt;font style=&quot;font-size: 24px;&quot;&gt;year&lt;/font&gt;&lt;/b&gt;" style="whiteSpace=wrap;html=1;strokeColor=none;fillColor=none;" parent="1" vertex="1">
          <mxGeometry x="870" y="80" width="250" height="120" as="geometry" />
        </mxCell>
        <mxCell id="JP6gAlQ0Z_E1AmdTToNY-11" value="&lt;b&gt;&lt;font style=&quot;font-size: 24px;&quot;&gt;lifetime&lt;/font&gt;&lt;/b&gt;" style="whiteSpace=wrap;html=1;strokeColor=none;fillColor=none;" parent="1" vertex="1">
          <mxGeometry x="1110" y="80" width="250" height="120" as="geometry" />
        </mxCell>
        <mxCell id="JP6gAlQ0Z_E1AmdTToNY-15" value="&lt;b&gt;&lt;font style=&quot;font-size: 24px;&quot;&gt;sample&lt;/font&gt;&lt;/b&gt;" style="whiteSpace=wrap;html=1;fillColor=none;strokeColor=none;" parent="1" vertex="1">
          <mxGeometry y="250" width="230" height="110" as="geometry" />
        </mxCell>
        <mxCell id="JP6gAlQ0Z_E1AmdTToNY-18" style="edgeStyle=orthogonalEdgeStyle;rounded=0;orthogonalLoop=1;jettySize=auto;html=1;" parent="1" source="JP6gAlQ0Z_E1AmdTToNY-16" target="JP6gAlQ0Z_E1AmdTToNY-17" edge="1">
          <mxGeometry relative="1" as="geometry" />
        </mxCell>
        <mxCell id="JP6gAlQ0Z_E1AmdTToNY-20" style="edgeStyle=orthogonalEdgeStyle;rounded=0;orthogonalLoop=1;jettySize=auto;html=1;exitX=1;exitY=0.25;exitDx=0;exitDy=0;" parent="1" source="JP6gAlQ0Z_E1AmdTToNY-16" target="JP6gAlQ0Z_E1AmdTToNY-19" edge="1">
          <mxGeometry relative="1" as="geometry" />
        </mxCell>
        <mxCell id="JP6gAlQ0Z_E1AmdTToNY-16" value="&lt;b&gt;&lt;font style=&quot;font-size: 24px;&quot;&gt;collection date&lt;/font&gt;&lt;/b&gt;" style="whiteSpace=wrap;html=1;fillColor=none;strokeColor=none;" parent="1" vertex="1">
          <mxGeometry y="410" width="230" height="110" as="geometry" />
        </mxCell>
        <mxCell id="JP6gAlQ0Z_E1AmdTToNY-25" style="edgeStyle=orthogonalEdgeStyle;rounded=0;orthogonalLoop=1;jettySize=auto;html=1;" parent="1" source="JP6gAlQ0Z_E1AmdTToNY-17" target="JP6gAlQ0Z_E1AmdTToNY-24" edge="1">
          <mxGeometry relative="1" as="geometry" />
        </mxCell>
        <mxCell id="JP6gAlQ0Z_E1AmdTToNY-30" style="edgeStyle=orthogonalEdgeStyle;rounded=0;orthogonalLoop=1;jettySize=auto;html=1;" parent="1" source="JP6gAlQ0Z_E1AmdTToNY-17" target="JP6gAlQ0Z_E1AmdTToNY-29" edge="1">
          <mxGeometry relative="1" as="geometry" />
        </mxCell>
        <mxCell id="JP6gAlQ0Z_E1AmdTToNY-17" value="&lt;b&gt;&lt;font style=&quot;font-size: 24px;&quot;&gt;month&lt;/font&gt;&lt;/b&gt;" style="whiteSpace=wrap;html=1;fillColor=none;strokeColor=none;" parent="1" vertex="1">
          <mxGeometry x="565" y="410" width="205" height="110" as="geometry" />
        </mxCell>
        <mxCell id="JP6gAlQ0Z_E1AmdTToNY-19" value="&lt;span style=&quot;font-size: 24px;&quot;&gt;&lt;b&gt;hydro_year&lt;/b&gt;&lt;/span&gt;" style="whiteSpace=wrap;html=1;fillColor=none;strokeColor=none;" parent="1" vertex="1">
          <mxGeometry x="870" y="325" width="230" height="110" as="geometry" />
        </mxCell>
        <mxCell id="JP6gAlQ0Z_E1AmdTToNY-24" value="&lt;font style=&quot;font-size: 24px;&quot;&gt;&lt;b&gt;season&lt;/b&gt;&lt;/font&gt;" style="whiteSpace=wrap;html=1;fillColor=none;strokeColor=none;" parent="1" vertex="1">
          <mxGeometry x="800" y="435" width="140" height="60" as="geometry" />
        </mxCell>
        <mxCell id="JP6gAlQ0Z_E1AmdTToNY-26" value="" style="shape=image;verticalLabelPosition=bottom;labelBackgroundColor=default;verticalAlign=top;aspect=fixed;imageAspect=0;image=data:image/png,iVBORw0KGgoAAAANSUhEUgAAAJYAAACWCAMAAAAL34HQAAAAAXNSR0IArs4c6QAAAARnQU1BAACxjwv8YQUAAACuUExURQAAAAAAAAAAAAAAAAAAAAAAAAAAAAAAAAAAAAAAAAAAAAAAAAAAAAAAAAAAAAAAAAAAAAAAAAAAAAAAAAAAAAAAAAAAAAAAAAAAAAAAAAAAAAAAAAAAAAAAAAAAAAAAAAAAAAAAAAAAAAAAAAAAAAAAAAAAAAAAAAAAAAAAAAAAAAAAAAAAAAAAAAAAAAAAAAAAAAAAAAAAAAAAAAAAAAAAAAAAAAAAAAAAAAAAAF7IU6UAAAA5dFJOUwAECAwQFBwgJCgwNDg8QFBUV1hcYGRscHh8fYCHi4+Tl5ufp6uvs7e7v8DDx8vP09fY3+Pn7/P3+1grb7oAAAAJcEhZcwAAFxEAABcRAcom8z8AAAejSURBVHhe7Zt9n5w0EMe3bTwq10K1eFhRWqnY4gPqKtq8/zfm/JJhF5awJCTs3kf3+88ld7tHMpmZzEzC7saNGzdu3PivItou5eZjopay4uYjIpdSPj5pRZ2UNbcfEYWUXcTtxwOEVXD7EUHC2gtuXwGRcGOMuK6w6PFGJ5CSZl1RWAk9npsjyGdd0wwFOaeY20NoDa/qsxopc24OiGm0V1zD3a40rmImZcvN64BVzLh9hAZbcvNKVCeCEWleNnvyWlWRzTiPotl+C4caHbQrKVpS9gHVRPGTEp8wDzgk5Au0MYqkVUM5oRzujEINSnYm6w2LoBXDYxL6CfZ1mWdJmhUVWaniqGaJHlRxiT2cXKrsMghNyqYYySElzQPaKARZAmlidiHXQTuNpjGsTa6ECJcvMPIuv5w/o3CBMA0KIEyVbaRHtb2uHxBYqnPphBoQNK29ZGCIUbVnbUspFcnzkhsSFmnpgUr9qkuOivY/WS8+EOa65/YliMkVtRZigLwumDaSJtv5bGjgxWIwCMHyYZgAN7dG0DZoGx1HNINpDLQJSFKtlhDQMl5IXLSz2Md75pAxBGIsGse8i7zqNk6iHK8ZraFL3gVxbbL9wJqO4kGo5WTz9HlDnuQPnPUxdEfPafa0ittktdh0D3EA7YZuT5lLwv1R8SavBLWndvgkbz+84PYE+u5G+zVHvmhSHDU1eMSE/zznzim0gVIgKOK0KMuCCGgAmc4lygQaPNX43/DHOcWmTaEqh0lbSMNUC6mZuvhf8euvuHNKnwwdCBpEx4eBTWf76tOZQiCHqV1blmVFBHf6uZ4494bcv5nPbmg6+7qIN1J7DcWlrnuJ0XYDQzuia7mIbHcTNz/E2ZvOuJTA0DNcq8mkkAEC57OqiSK3q32T3/IfVn42p1lTiSQH7O+pSOQNN6cgqnG2KnIp/n4d+fKshmLvc505Sofc9AEucyaDwFmTczq6wqWYgFbPZDa0jbgfzK1wKUYQfxqXCkvoftYUzMmrcU2fj1Et1UPus0k0GM6bqnGdVq8wqqV6yAN95g23e4wB2jpiFfXVg5VUYc1SMi0ovpHyjnsaGGK4uE8HV30RWZfWF8uNqDhIec89DWl8CEPsSZXAiLoodL1/uc6mguf9U+5oSLXChjWZGkyPVRX7+Yf9h3GmAXcTSrVII/JRUjAzqLvv3r7k5hyOFYtziHx8kNM1uVGr7v6iP77izgxkv2Fyaj45At2+xWHO3Gy/xmc+cmcG0lBXDyyKqZ/rB7Uvk8Wk4Bt88CfumIFtVnmeZ1li7SVIwKc2H6vl248Pl+b4/G/67AN3zCAeOUBT5V+fRSVwI+vNISr7k6P4ff2amzOMlZSwGZj2mXXOslGHbF0RyHAAatJNTTQ4MwZWcVF/TInvVg2mFvayGvnSY6gb5bX1v9dHfwfCHmchbFw7zfToEGz2FxfIpnyuKIk0K0jeVuc4DiAh8byihKOJ0JevKHvz3XgQprvmNEtQsuJ5PoZbAaHrF3ClnjOliQVWLBXSeO7SiGwXJnb3GTdsITO0P7EyQ5p1fmLPPkr5jtt24ITW1wwX3d5beLUvuWMFqYWvGS6HkKgAOE0eu6GnsLBlLyjnO5O0XqTPuDUBbtDbhsgbL2xd4hcpv+d2zw9S/jmn0yHcoNVlw4klvoIAf+bOCbgn4buEyO1XHJCqSN78PVih/yWWNZXH3e4lhvWeOyOgWL4ui6BdYs3e9dB9qo0+FsEIJeOeuoU7TyHz8WNaUXsc0qlLh976eSQlxTpSr6tt6buXAS/oQN27KEoL5YGJ1jlsFikkBcIk5EREPrDPI5JCJwr2d7hElGT9NdaGVNRoiaKoFtLACTDCYU1SX6u0dT8qTdU0mdoS+Q9DnqJadVpyPE+EUY3DSRQWbffsfu26Eu5FmL/4BT7xO3esULXNifXkjW3cm8mua48novTfDAbzGsP6gzs2qPu4fq5mJB1zBPEMc/+WOxao6mHIhACZEzeH3L39MX/C7WWgr12gCrwmQIFTl1U8/8kptIp+VWpVFws9KhVx+fxP5XCaoGUVBXnU9XfS1IVqWVr7cnt8bjwqvxBW2Q9gk1gVufVvPQSMQQao1xjclyFR66fYbyIvHNa5WiNXy5tYR37nL6qvBNnK/Jm+gX5QKjjWAwt76KTAMjrUTjl+1FfgAPxp8LIPW7llxiIKreijEr5yqfvACwlTVM9aXAiKaZWgpucKWMmwNUWMqhJaQ87ZenwoTDeGww51yB1QXjgfRx6sD6l1dHiKSIqGhzR7KoQEI1hso/SKtZWzvO5wQiaiOEmzvGK3SXTVvECiKtirKmr3ONiQeoOH2bddL58jl3nxSr/lNZrjyelrD8XZ+OHk3NbCb3lxr0dk5WBoKvBXi6oSruDOyYA6WzM6UVrMOkniSIxGgVmEdk4GRDt3rDkT4avoePtxzYL3AkwDhjO55rv5ZIRGqcCHXETvzZB6m10j1nGDYMES0vmZfQiu7WrqRUKZqXshCFqfknhCw5pbKuzJ2yQVy5DJzWoQua+Q5QYX6NHzil1e9D3NIaRA11qoM2z2mpUfpNYhb/WFItoqVfYkTq+48924cePGjRv/I3a7fwGVRnqCEPfrRQAAAABJRU5ErkJggg==;" parent="1" vertex="1">
          <mxGeometry x="75" y="320" width="80" height="80" as="geometry" />
        </mxCell>
        <mxCell id="JP6gAlQ0Z_E1AmdTToNY-27" value="" style="shape=image;verticalLabelPosition=bottom;labelBackgroundColor=default;verticalAlign=top;aspect=fixed;imageAspect=0;image=data:image/png,iVBORw0KGgoAAAANSUhEUgAAAJYAAACWCAMAAAAL34HQAAAAAXNSR0IArs4c6QAAAARnQU1BAACxjwv8YQUAAAJqUExURQAAAAAAAAAAAAAAAAAAAAAAAAAAAAAAAAAAAAAAAAAAAAAAAAAAAAAAAAAAAAAAAAAAAAAAAAAAAAAAAAAAAAAAAAAAAAAAAAAAAAAAAAAAAAAAAAAAAAAAAAAAAAAAAAAAAAAAAAAAAAAAAAAAAAAAAAAAAAAAAAAAAAAAAAAAAAAAAAAAAAAAAAAAAAAAAAAAAAAAAAAAAAAAAAAAAAAAAAAAAAAAAAAAAAAAAAAAAAAAAAAAAAAAAAAAAAAAAAAAAAAAAAAAAAAAAAAAAAAAAAAAAAAAAAAAAAAAAAAAAAAAAAAAAAAAAAAAAAAAAAAAAAAAAAAAAAAAAAAAAAAAAAAAAAAAAAAAAAAAAAAAAAAAAAAAAAAAAAAAAAAAAAAAAAAAAAAAAAAAAAAAAAAAAAAAAAAAAAAAAAAAAAAAAAAAAAAAAAAAAAAAAAAAAAAAAAAAAAAAAAAAAAAAAAAAAAAAAAAAAAAAAAAAAAAAAAAAAAAAAAAAAAAAAAAAAAAAAAAAAAAAAAAAAAAAAAAAAAAAAAAAAAAAAAAAAAAAAAAAAAAAAAAAAAAAAAAAAAAAAAAAAAAAAAAAAAAAAAAAAAAAAAAAAAAAAAAAAAAAAAAAAAAAAAAAAAAAAAAAAAAAAAAAAAAAAAAAAAAAAAAAAAAAAAAAAAAAAAAAAAAAAAAAAAAAAAAAAAAAAAAAAAAAAAAAAAAAAAAAAAAAAAAAAAAAAAAAAAAAAAAAAAAAAAAAAAAAAAAAAAAAAAAAAAAAAAAAAAAAAAAAAAAAAAAAAAAAAAAAAAAAAAAAAAAAAAAAAAAAAAAAAECZNjoAAADNdFJOUwABAgMEBQYHCAoLDA4PEBESFBUYGhscHR4fICEiJCUmJygpKissLS4wMTIzNDY3ODk6Ozw9P0BBQkNERUZHSEtMTU5PUFFTVFVWWFpcXV5fYGFiZGdoamtsbW5vcHFydHV2d3l6fH1+f4CCg4SFh4iJiouNj5GSk5SVl5iZmpucnZ+goaKjpKWmp6ipqquur7CxsrO0tba3uLm7vb6/wcLDxMXGx8jJysvNz9DR0tPU1dfY2tvc3d7f4ePk5ebn6evs7e/w8fLz9/n6+/6Syn7QAAAACXBIWXMAABcRAAAXEQHKJvM/AAAGCElEQVR4Xu2b60NUVRTFR0tFKRQtH0SlpaH2ILMorIgsJdO07IVBZQ9LfBZMYZYPikozAzVFMVTylVkWmWhlJBGB4fxPMWuvGS7MzJ17h33QD+f3aa9z9qxzuHPnvO4lYLFYLBaLxWKxpExGQWllfX1laUEGC64Ecsp+DJGm1bez8HKTHuxkn0BnMJ0VxpkabIghl3V3f8X+RNmTx6qpTO2hPhj5mAIFXWzQQR3rHj3IAgfHi1i5nQUOuiJ1/aeJlg46sqQqr4MFveh4XGozL7DAwa9S1X8yaeikWKoeOEndh6YCqX+a2onU9J8M+jnYdg1qbv6aOoa9tyJhSBW1A60xJLZbZ2ehYsSH1HHYMAIp9/xM3YNWt2K/xKBUFFPGhV/zSsoepFyB32kYZRKKJ56gjMv38jWO6fsrVrvlA0V9rDk4LKdMwErJ6jtILJBiDXKDVTV0DVOIwqlxxg0nzXchbSZlmLqq4EwUqnETnbtpHImStZQJeQ9pQ/dRdnMHSjTJ+I/WodAbKJhwhjIhLZOR+BJlN+NRoEobrUOdmdCLKV1YgsS0nokAWpfoeL5L9OeULtRK5heUoWbRqtTTO1QGObmF0oV/70Tqa5Sho5C6bKV3aDbkEipX5C58kCq0E1KX9+ndcj1k9OK5cQSpmb9RbobU5S1674YaeprSlfPXIrmWci2ULs/TewXUNKokyFo0Mh28AqXLXHo/BrWAKgnPIHk21VNQukQmkTSoNVRJeBfJ6VSRNb4mt4h122ConaKSIWPcYA7F06F0ybwEaw6J5yCSck6ym0WNE6XLX7D+DvGg6FTkTtsgpB+HaJfvX5mf4L0P8UjEHpDFxl7EZxBr0wDvLYizEXsgG+lbEB9GrM2X8F6HeDpiD8hdvg7xDsTafABvGU3zEXsgH+krEG9CrE0ZvJchnoXYAzJUyUe5uFfmRXgvR5yH2APSLZlPX0aszTx4VyDOQeyBHKS/g1hxz+PgfnhvRDwWsQfGIl1u+YcQazMF3tsQD+910paYzuFI/xhiGmJtxsB7j4jzEEk5L9myhZUrp81Vf4e9G0WcQkNJOSXZdeH4n6EitPklbN4ks5wM+UlpQHLgWDg+LbE6h9CS7EkrESdF5oRx2Cl+i1gfObuVs894x3xxWIzkhxFz16jOR3B/G/FtFyGSIT++UsQytOizCu5bRRyGSMIJyd0AsVqEOiVwPynC083FybkRolSEOk/CPTQGwtPN9QJS0+XUzszcEwjkwp1/dczhYzxuRCr/AsXnF724Tk5DOM7LhOLKdsmUMb7VzCDfzW74X7wXogjClUVInIbZIbQfwgSyyOSSa5jj8DE+jaOQ+KooWRGZIP9PNHBwCJTrqXyY15EW2APRIedPRgiiBZ7MTvhBVCLOyMH8JFGfQpghR3pSLUpW6Akpl6z1EH/cJ8oMvX7r4xM+iArzzUQkTZGBRE42jSHTG9crhTFPXXponSc5m6DWGNnnO5gbvoMvPSHiTbQZl1WS8Uh4TXP0OUMrQAdXF+3qilyuUdukD7Hs5OBZE+qqf9bgWwgZxRurIlTXNlRLlPBg95DUf9Kw4zOJullfLA8aFMlyuY28c0Ge+OkR5xl9KtTQTguVixU9HVRDthf9pp52WuR63Ea706V+1jypnL+nflA+hWYWiyV10rL6ham1zQyOPikygzbacFWeKrJa1Wc0/VNkNG3UoX9qdNFEn/1sISXM7arL2UJKcH9mgPlsISXm00SfOO8uesfgPiP6Eo9/eLZphIVsIwUW0sIEmfIsPAWOqe/FnCxjK76Rp6OmuOEAm/HJAb4CbQoPr97FQ55mGAQPu/wSeYvdHLly9u+LRlNn3w7mnGVjnjk7hx81isdXt3ow9fiiD0vb2Z4n2pfyY8YpaWWTHmgt4YcGgCLPJxKdev8R4oFCj+NEnbwsPmBkV3i4YJ0V8p7UQJJ3hI0n5Ij6sZEX0ha5fpN1i4YxcaBxXa1evv+9s93yg+2WH2y3/GC75QfbLT/YbvnBdssPtlt+sN3yg+2WH2y3/GC75QfbLT9cod2yWCwWi8U/gcD/mCjWLockcbEAAAAASUVORK5CYII=;" parent="1" vertex="1">
          <mxGeometry x="-20" y="95" width="110" height="110" as="geometry" />
        </mxCell>
        <mxCell id="JP6gAlQ0Z_E1AmdTToNY-28" value="" style="shape=image;verticalLabelPosition=bottom;labelBackgroundColor=default;verticalAlign=top;aspect=fixed;imageAspect=0;image=data:image/png,iVBORw0KGgoAAAANSUhEUgAAAJYAAACWCAMAAAAL34HQAAAAAXNSR0IArs4c6QAAAARnQU1BAACxjwv8YQUAAAEIUExURQAAAAAAAAAAAAAAAAAAAAAAAAAAAAAAAAAAAAAAAAAAAAAAAAAAAAAAAAAAAAAAAAAAAAAAAAAAAAAAAAAAAAAAAAAAAAAAAAAAAAAAAAAAAAAAAAAAAAAAAAAAAAAAAAAAAAAAAAAAAAAAAAAAAAAAAAAAAAAAAAAAAAAAAAAAAAAAAAAAAAAAAAAAAAAAAAAAAAAAAAAAAAAAAAAAAAAAAAAAAAAAAAAAAAAAAAAAAAAAAAAAAAAAAAAAAAAAAAAAAAAAAAAAAAAAAAAAAAAAAAAAAAAAAAAAAAAAAAAAAAAAAAAAAAAAAAAAAAAAAAAAAAAAAAAAAAAAAAAAAAAAAAAAAAAAADPGvwkAAABXdFJOUwAEBggMDxAUGBwgIiYoLDA0NTc4QEFESElNUFRYW15gZGdobG1wcXR4eoCBg4aHi42PkpObnZ+jp6irr7O3u7/Cw8XHy83P0dLT2drb3+Hj5u3v8/T3+3wAjRsAAAAJcEhZcwAAFxEAABcRAcom8z8AAALLSURBVHhe7dp7VxJRFAXwIR/Y9DJDjbS0jFCyh1mYVmJpZvkMwvv9v0nMOXtAuEuGewe0Rfv3j2ufO3fWdrkYhpGAiIiIiIjoumTx00OKrd2Fn2vm9PUIkpNM6dTUvtxB6qt7NRPZyyA7yFRka/0Bcj/ty6mNKSI7KGDrT+Q+msKpzTYGDrax1Uxh0D/zOLOpY+Cgjq1mHoP+WcCZjcHAATYas4BB/7CWi3+h1kTlglkZddZaw2pXa3osNsa1ZrEqJmTUmxCnEXquzlp6hUxQ0WOR7FM1hDLqDWsNW60XMsojmQOJwTfErnb12ANEk5f4HEl413ojo/FzxC2JwS/Erk702C3E83GJLxGFdy28N7/S9PuRpGzcsrubcnD+TJP+gsEnTcq71tktmY2Uo1BdlBA8k6VES3r0fDUKH0clhMeyBN61TAHTyeL6Iq5+mT2sJYhvGrOL68X4JjC++1L+tQ6nMW5ZwVKiFWxomT7EkvKvZTbHMI89PMFKohN962oZ28QKpKhlljGH0R7/hJFdffU1LWMeS1PLfLj46eDxDqY9+foE2yL332PalKqW+bF0A2u33/7BrEf1d3exNXj6HbOWdLWMOVqdmQxzcxv6ucxJbWMuF07OrB4hX5S21oCwlgvWcjEEtTLhlfF4AET0vxgvX5mO27GueDllLRes5YK1XPjV2seTV4s87DDHSBZ9/FFFssT/QPKtlcPEok8DS0iWkizjaaAtJ8sR1mpgrTas1cRarNXAWm2ut1a6t2qDZNPlBr9aA8daLljLhV+tcukS+lKrIFn0pXaMZJH/TQq/WrycJmMt1mpgrTas1cRaQ1Vr4FjLBWu5GKpahdwl9FlxGcmid8UVJItePyJ+tXg5TcZarNXAWm1Yq4m1/Gqle0/cR7K0vgXuV2vgWMsFa7lgLRes5cKlVoBv9l4Bl68sEhEREREReQiCvwvhrBil6GY1AAAAAElFTkSuQmCC;" parent="1" vertex="1">
          <mxGeometry x="75" y="490" width="80" height="80" as="geometry" />
        </mxCell>
        <mxCell id="JP6gAlQ0Z_E1AmdTToNY-29" value="&lt;span style=&quot;font-size: 24px;&quot;&gt;&lt;b&gt;rain_month_mm&lt;/b&gt;&lt;/span&gt;" style="whiteSpace=wrap;html=1;fillColor=none;strokeColor=none;" parent="1" vertex="1">
          <mxGeometry x="565" y="545" width="205" height="110" as="geometry" />
        </mxCell>
        <mxCell id="JP6gAlQ0Z_E1AmdTToNY-31" value="" style="shape=image;verticalLabelPosition=bottom;labelBackgroundColor=default;verticalAlign=top;aspect=fixed;imageAspect=0;image=data:image/png,iVBORw0KGgoAAAANSUhEUgAAAJYAAACWCAMAAAAL34HQAAAAAXNSR0IArs4c6QAAAARnQU1BAACxjwv8YQUAAAAzUExURQAAAAAAAAAAAAAAAAAAAAAAAAAAAAAAAAAAAAAAAAAAAAAAAAAAAAAAAAAAAAAAAAAAAKMFRskAAAAQdFJOUwAQIDBAUGBwgI+fr7/P3+8jGoKKAAAACXBIWXMAABcRAAAXEQHKJvM/AAAFL0lEQVR4Xu2b6babMAyEQ9j3vv/TdkYobIEEg0Xac/z9ckJvkOVBkoX7CAQCgUAgEAgEAoHA/0gUp1leFkUW6xf/AFFa9X9G6jzS739KXM5sGqifeu1nRGpU3zZ12TQyBj82LBej+jJ5LdwzrcSuPtEvfkBU0oJ2Laa849e5frqdqKZbthSe0a5GP9xMRCU12yKKW1xr9cO90FflbjDg1VrHd0JdlTreosD1VMf3keKu1cfACX/1d8eJCOJpP1r1iPBAQl4xslJZZGMIMSWHK77lvwQO7aYUUBfmvotwt0/CGpCwNqc0NozO+r4qXEakpboqq0a99n0uV0DIKnT4iayvRk1FmAr4IshLxPj9Q5XV0gYxrLMryfD750I41WYXNRCSjqzhBgyynY69AymfDeCMGlZJHGadXgmmB5uk9MQvnxcInmK/yxglSCRVUUDxF344wqQyHV9nub+5Ml88jr7cFSUs7Cau/C7d5SdISLUpiaQskEkuThdPjJdKXzY4fZONQft5aWMDbfooXKUSaPwlDcQID+JiKuv9PTuSUnsdnodWtV7zGDV/tZCIoavOc3blRNu2q8vza4DH7mt57ArMenGyYGUKO1kt7DNYpJwqWOGsxntB2TdlnsRpMZTSrftisA613ITyeTpRGKJs85W/tonYeOpc1wNJx7uyVlC9jkGflZV5I4EL6XYTSstzzNqAMUiHx0DlbSstgWvilPvh3xvMekD2lQ4Pkd1jFm7jtIp+SpCvuOZuaOt6CXIARHuXUM9p2PUMJhAenTTvq+z+gus2HfXyHX1sLKJTeGRmsI+n7lEb7rVvryM8Oq4J35OYv1ZC9nEtBuGuA23SS1AprlO3bEgN8OWRu1C4eTW1izc4oRNMxvNGcY68lDy7zTCLqgm0e3YTIy96u8K/8odX3ad79bJBgTCrPPWIbsjq89OVDYoJm2+VjxMXVIFvfCgjzcum9Uhd3FE0BQKB+9mPzcl+j8f6HTrS0V6JFLW7e7jU+jzQE9lsZwu136njmQ6f/f135IyUjpewYb7TqmNlZXq+hdX3zs2lONvcXiVDvaCfDOBq8B4bN2cJhEtbGoLBzPZ2+yjIp483d5ByyoW7knfhydYO8zFrAfHehSzk2yMH+WD7xjNS+sUIPVxL489K9XzWELVw8/Va0U8o+tnoWe8asLp8SYNy0qg1xeDADQdnvnIX5CPbBZ7CWAqPx4D4iNBiG3eps8Rdy9bBtD1+Ex7lKH9k5S4qa5jvukM8yEdYC+/lLDt3USSaD+GueYdYHlAdw8K5J2HmK5DCXRYtM+jnFUfZWlULAT0yCn11lmo2AbrLINTPfxXrOa0i3Tjdbyk8WDxGMoz9b9HpBh2K50adLJy1dtd8LljF7Zx5hcUazJ2wVjmuTcLDh9Gt8KNT//YYEPPLQ4yeo4m42yIm8NXEKDxcfHmIYW9aa28wvww/y37ZqB/GjWUWhofGFWYGV1fCQovARQ3JaQ05DTRaAuesnnvYP7mP/5ZCj2GVSdySpUOSgXfmGoc/VmkQop/cwtALw+WP3gsPL7BEEebdFnhh5QQ+HNN1FkIDn09oX2BoK/WL00AzUSvrlwDDH7UGT+HEM4uXk14oSaBTdag809Uf2cN4oEMFKdJIRQ68VQaMT/6juTMspOZSgticj10YwHg2te+l3W6q7qNIPNPaQELtupz/Eazg//R1kVcSNv2fZDrJFDJh3r/xHwIHJGQSjwcvvZCVdV2FznYgEAgEAoFAIBAIBAKB/4jH4y+jwVXhOseHlwAAAABJRU5ErkJggg==;" parent="1" vertex="1">
          <mxGeometry x="627.5" y="640" width="80" height="80" as="geometry" />
        </mxCell>
        <mxCell id="JP6gAlQ0Z_E1AmdTToNY-32" value="&lt;b&gt;&lt;font style=&quot;font-size: 24px;&quot;&gt;diet PC1-PC13&lt;/font&gt;&lt;/b&gt;" style="whiteSpace=wrap;html=1;fillColor=none;strokeColor=none;" parent="1" vertex="1">
          <mxGeometry x="280" y="825" width="230" height="110" as="geometry" />
        </mxCell>
        <mxCell id="JP6gAlQ0Z_E1AmdTToNY-33" value="" style="shape=image;verticalLabelPosition=bottom;labelBackgroundColor=default;verticalAlign=top;aspect=fixed;imageAspect=0;image=data:image/png,iVBORw0KGgoAAAANSUhEUgAAAJYAAACWCAMAAAAL34HQAAAAAXNSR0IArs4c6QAAAARnQU1BAACxjwv8YQUAAAKUUExURQAAAAAAAAAAAAAAAAAAAAAAAAAAAAAAAAAAAAAAAAAAAAAAAAAAAAAAAAAAAAAAAAAAAAAAAAAAAAAAAAAAAAAAAAAAAAAAAAAAAAAAAAAAAAAAAAAAAAAAAAAAAAAAAAAAAAAAAAAAAAAAAAAAAAAAAAAAAAAAAAAAAAAAAAAAAAAAAAAAAAAAAAAAAAAAAAAAAAAAAAAAAAAAAAAAAAAAAAAAAAAAAAAAAAAAAAAAAAAAAAAAAAAAAAAAAAAAAAAAAAAAAAAAAAAAAAAAAAAAAAAAAAAAAAAAAAAAAAAAAAAAAAAAAAAAAAAAAAAAAAAAAAAAAAAAAAAAAAAAAAAAAAAAAAAAAAAAAAAAAAAAAAAAAAAAAAAAAAAAAAAAAAAAAAAAAAAAAAAAAAAAAAAAAAAAAAAAAAAAAAAAAAAAAAAAAAAAAAAAAAAAAAAAAAAAAAAAAAAAAAAAAAAAAAAAAAAAAAAAAAAAAAAAAAAAAAAAAAAAAAAAAAAAAAAAAAAAAAAAAAAAAAAAAAAAAAAAAAAAAAAAAAAAAAAAAAAAAAAAAAAAAAAAAAAAAAAAAAAAAAAAAAAAAAAAAAAAAAAAAAAAAAAAAAAAAAAAAAAAAAAAAAAAAAAAAAAAAAAAAAAAAAAAAAAAAAAAAAAAAAAAAAAAAAAAAAAAAAAAAAAAAAAAAAAAAAAAAAAAAAAAAAAAAAAAAAAAAAAAAAAAAAAAAAAAAAAAAAAAAAAAAAAAAAAAAAAAAAAAAAAAAAAAAAAAAAAAAAAAAAAAAAAAAAAAAAAAAAAAAAAAAAAAAAAAAAAAAAAAAAAAAAAAAAAAAAAAAAAAAAAAAAAAAAAAAAAAAAAAAAAAAAAAAAAAAAAAAAAAAJarI6QAAADbdFJOUwABAwQFBwgKCwwNDg8QERITFBYXGBkaGxwdHh8gISIjJCYoKSorLC0vMDEyMzQ1Nzg5Ojs8PT4/QEFERUZHSEpLTE1OT1BRUlNUVVZXWFlbXF1eYGJjZGdoaWprbG1ub3BxcnN0dXZ3eHl6e31/gIGDhIWGh4iJi4yNjo+RkpOUlZaXmJmbnJ2en6Cio6Slpqeoqausrq+wsbKztLa3uLq7vb/AwcLDxMXGx8jJysvMzs/Q0dLT1NbX2Nnb3N3e3+Dh4uPk5ebn6Onr7O3u7/Dx8/T19vf6+/z9/htHkwsAAAAJcEhZcwAAFxEAABcRAcom8z8AAAhOSURBVHhe7Zv5f9REGMYrRQVxOQQUsCAWQVbFelRcRYscVUEQsVC51IKoiLQCBQERkEuoICJKlVuhVESt1oIWryJFEIFVilJk/hnTzbO7yeSdySQ7Wfrxs99fmuR9knmaTGbezMxmZciQIcP/jUgONloVkSgrwWYrwnDFWG2ru2GVhiuDIuy2Gvaaviqw22qAr2gE+5cdGIEvVmbuXm4i0b3mRtxXq6j5Le8g5ytaaO7rZUBxWWE3bLsSaxl4X2ypua+RyKaW656a3xv7ckxXTl+6H+Soc7jw4atwREoYthy+9L6Ro5pxWabYlwh96XwjJ53ENQ2245gLYl84kDpWV6zhGhwVETG7GrEvTRXM5oqxa3FYgFHb3XxpqWCcqwttcZwm9g66+dKQ7HCu2J84ToOWwdVXqi2Y5R00qUeAJBQ34uoLR3zC3yvGliFCUwKVu6/akHnID05X7GmEBKj7iobNQ94hXP3dHzERHnz5fCEd9cqgBjEnkUrzr7ov5ssXca8Ym4SgA+MdRMEefPlIdah7xU6KeupY4d59mQoPkPeKvYqog5xYOHBftKvDuQg7KYwJAvZFPkF5VmKW5d2Xh3pP3ytW1QdxCrTwteZeEL4ErtgExGnMx+jdV1Qx0RE8QdcMEJ/2nn3hiAuie1V3LwQiQg2m0LMvlXxC5IpNhkBMBErPvty7R6Gr1VdAIWEptF59NZgHxIjqFWtQSkTiJSFtUfZlxoUI79WxR6GQk8gDlXyFsGe8jbF9EUJX7AUo3IhXLzVfardL+ATZRijciVcvFV9hbBtIbpf4Xm3tC4kCtTjHzVdtUVFCaiBsU8Wu9t8NiQqJ6uXmy46o7RK7qh8BiRqJ6uXJl+Apil2dlneFThLVK96qKPkypRxiVxdfhEQdSztJ+8KeDSqRELti8yDxQLxzNKB9VWDPihmxIXG1wm2EhsJMoWOQvsqwY8U5LiFxtbEHNN5A7tUC78so3nI3kzhsSVxtc/taFWF5TLyv2gqyyvMPUeKq6h5ovJOs9vHP+oQvGu6bUeKqbig0PghZmnAlX/Y3UeLq6JPQ+CLZ2qv5svU+EldR4Ye9GtbWCb6ohiFOTAAkri69DI1vkr1Q3FcywXJg7Xwkrlg5NClgfWgxX5Z2g8diS+ZqpcuIshLJ3tEotygrYnk9HZjNiIHM1aZeEKWGrTLRGQ1Aei93teNWiFJFVsmt7I3fLJmr6nyIUkf23JIouTr0CEQ6wBCAFCVXx8ZBpAf356jk6q8pEOnC+j5SKLlir0CkD2u76kTN1UKFsQav5Fg/vTjUXK2Oq/Qi7KXVXG3WPMmdIEzXfDVXOwdCFQCUMTVXBwZDFQyhEq5xVXP13XCoAqSwpGxpxdKSSDgnlBNRcnX8KajSjdTVuWlQpRupK/F8TsCIR9VaWA5Vupl+GgZI1nSCLM3MPg8DJFvUlhrp5qq5l2CAZPdt0KWX0GKUT3PQ16xxynRfgfJpvh8JXXrpsw7l0/zmsrYhIPq/h/Jpzj8LXXoZ5JLkz4EuveTvRvECFmPlU7zbTA+5jSg+SfOCH7FlUJlt6ro1zjQ30sIAohuclpVduAvb1e1NXf9tjM1TWiWpg/z4wkwL5qqBnLLqqOEKC1x7vtsSWaRjOESBAsKVZXKlRzxx7/CWGVt2HQ4EyqTjZmlWVnVE0MoCBNmanjgSIFTKsIEqdxaCBu94mKLzB5UybKUWyYxFMEb8HQgIMmXYMwhRC71et9vfejsCQUCmDAeIRGGY4zu8Xnn5uWfIlKHOMWyVu4vK7uuD+rImU4afxiBqoRQxO9UPI6wXMmX4fSKiVtqUI2rnK2/TwGqQKUPTc4jaafcG4nbqRiOuDzplmI0oTyc08BxHdH9hD9mHK9uYj6iT7m9DYqeBeub+GfElrmvjTUkj2TvWTTs4oXMIdcwhXNXGuq4Ik+R+AJmdM9MRT50iS4KX5P2bEBYw0Ei2CJpmIZ4qVMrA2A7XIb68PZDaaS5tA0FK0KMM+xQmnAdXQcxRfjUEKUCPMtQ8hLCUIV9AzrGESs+8IBhlqH8McReGfYsTOFak1nF3pEcZGscj7sqoepzCsfZGCPwgGGU4674qM8G4X3ASx4abIfCOYJThgqdvvwkncBrHFr9znqJRBo+/I5tyBudxfHQHBN4QjTIsvhICVaY34UyOnX4WtdwnGGVY5X04dNZFnMvx6QMQqEOnDIxt9DM5T62sauGzAghUoVMGxir7QeCJ7MSXLEeNtxFDOmUwvr3uhMAjgnSVsUNPQKECnTIw9rn3ygA6r8QleH5QbpmzJpMpg/GvDYPAB9eLRlqPFkPhhmhi4uexEPiid+zHygQnp0IhRzQxcUr13xLQ70NciOfsDCgkCCcmmp6Hwjfh7bgUz3nX1QiClMFAwwxc3ie4Fs/FMoy1CuhOf98ZlOtYyHD/flzNwYJ2kFBk018rBuor7qXkCqdEZT9/mQ2Ng/W6hoGGC9JVxp6BwknBr5DwbNE3yDj6CK7J842wA6mBgqde51xE/j+4Ks9mCHj6/gsBR5Xb76m8MVFQv453gIBjKOIcX+seLpt6FlfmyEOcg17fc+RxhPUxg+5HiCX3LZDJWvODiOqEvgGCL5fxCFuJ6l47Z/IaLm9D8MPjPIQtNL+EmGbaLkQBVm5BkCPbuf5jLkL6WYsSkvyBiIM5ECRYEtxcYJdVKCOBcG1414+hAGs6IxAEN6xHKWC7eHovbHuM1fJsI1XaV6OcGM134TDFyGSm1ljq71cv6vQoTc5475EP2WeX4YYdFP9iXR+5B83Cmhe5VuLscPHymQVdsBc0XQpmLi8elLZZ9gwZMmQIgqys/wBs6hHTeGtyuAAAAABJRU5ErkJggg==;" parent="1" vertex="1">
          <mxGeometry x="355" y="895" width="80" height="80" as="geometry" />
        </mxCell>
        <mxCell id="JP6gAlQ0Z_E1AmdTToNY-34" value="&lt;span style=&quot;font-size: 24px;&quot;&gt;&lt;b&gt;sex&lt;/b&gt;&lt;/span&gt;" style="whiteSpace=wrap;html=1;fillColor=none;strokeColor=none;" parent="1" vertex="1">
          <mxGeometry x="1110" y="410" width="230" height="110" as="geometry" />
        </mxCell>
        <mxCell id="JP6gAlQ0Z_E1AmdTToNY-36" value="&lt;span style=&quot;font-size: 24px;&quot;&gt;&lt;b&gt;baboon_id&lt;/b&gt;&lt;/span&gt;" style="whiteSpace=wrap;html=1;fillColor=none;strokeColor=none;" parent="1" vertex="1">
          <mxGeometry x="1120" y="250" width="230" height="110" as="geometry" />
        </mxCell>
        <mxCell id="JP6gAlQ0Z_E1AmdTToNY-37" value="" style="shape=image;verticalLabelPosition=bottom;labelBackgroundColor=default;verticalAlign=top;aspect=fixed;imageAspect=0;image=data:image/png,iVBORw0KGgoAAAANSUhEUgAAAJYAAACWCAMAAAAL34HQAAAAAXNSR0IArs4c6QAAAARnQU1BAACxjwv8YQUAAABUUExURQAAAAAAAAAAAAAAAAAAAAAAAAAAAAAAAAAAAAAAAAAAAAAAAAAAAAAAAAAAAAAAAAAAAAAAAAAAAAAAAAAAAAAAAAAAAAAAAAAAAAAAAAAAAAAAABTgfbgAAAAbdFJOUwAECAwQIDA0PEBQWGBwfICLj5+vv8/X29/j76lY5SsAAAAJcEhZcwAAFxEAABcRAcom8z8AAALsSURBVHhe7ZvrcpswEEZJKuNAoa4MNJS8/3t2F6+njCfGfOjidvKdX0IGfNCuLvagghBCCPkPcWXd+n6cPsax77pz46z+mbjKTx839L62T59E5UdTuaU72Cn5qQZzGDrfNlV5qOvT6dxb5ZPEyvP87VPfllZjuNbMuspq8uEuKdXfSfD64uztMBflnFP9SmpfzhiyRrLWphrb9aGgmcUaO8pAK1bTAymlVa9cgXSaN9OmoalSr94OEtPJVw03ve8epY4hnR0k5aQNsHmCcTpYZIij5ssZmfa0cZPnfSnZPiBWRaFxTDxJHrQPbsyrK06vSTt+SSfc1geXlNJcSdNeO3xrZYBaLgObGEK61a5RSNJ+tGIC9Kl3rQoO+1p5G04muZ05ojmZKutlyEJ74RWXsLkks3aP19JcgxUjo/18dyC0udJEUWIY8MCSl2miKDE8WXEHMsNPVoyKxjDgN0OqKIbFMFkUpS8FrZu8LIisGBOZQIKWTTJFpJivJQhBqybJzRQ5H5qymvPY+nELQYPpjNwg7uqmEnQNb4fKy5tWPuLtxU5XZJHqtdIOg9HmVxZLptdfVveA3692gXD9fydWJK9aixXg0aoecrQLBPsfJ6rWKCz79893rXnE+3KkO2tNZK1I94rZHamFQC0EaiFQC+Hevb75fgX/2SU5tH5I/Qqf/UzKoaX/lKzw3U5bkkOrODYrLNYOf8mihUMtBGohUAuBWgjUQqAWArUQqIVALQRqIVALgVoI1EKgFgK1EKiFQC0EaiFQC4FaCNRCoBYCtRCohUAtBGohUAuBWghfQEs3D9Xzy8DB6Gs5cbQOp+tbv5GYfITND9Vkd4tJ8OvWuilYHnB+FTgKl6cM3N45b3m83f0ehtNX3AM3lOnunOg7C/VZw3aLpNkF08jDWnEXOjQk2DOko1fIbatE++RkyAnpjDL6pdIK2ZxDLQRqIVAL4d/VGl0CwrVSQS2EEK3CciEF9g2EEEK+GkXxB3dKtpfRVpjxAAAAAElFTkSuQmCC;" parent="1" vertex="1">
          <mxGeometry x="1350" y="102.5" width="85" height="85" as="geometry" />
        </mxCell>
        <mxCell id="JP6gAlQ0Z_E1AmdTToNY-38" value="" style="shape=image;verticalLabelPosition=bottom;labelBackgroundColor=default;verticalAlign=top;aspect=fixed;imageAspect=0;image=data:image/png,iVBORw0KGgoAAAANSUhEUgAAAJYAAACWCAMAAAAL34HQAAAAAXNSR0IArs4c6QAAAARnQU1BAACxjwv8YQUAAAB+UExURQAAAAAAAAAAAAAAAAAAAAAAAAAAAAAAAAAAAAAAAAAAAAAAAAAAAAAAAAAAAAAAAAAAAAAAAAAAAAAAAAAAAAAAAAAAAAAAAAAAAAAAAAAAAAAAAAAAAAAAAAAAAAAAAAAAAAAAAAAAAAAAAAAAAAAAAAAAAAAAAAAAAAAAAIK2g+wAAAApdFJOUwAMEBMUHyAoMD9AQUJKTFBYXGBwgI2Pk5efqK+3v8LLz9Pb3+fr7/Lz+JhPzAAAAAlwSFlzAAAXEQAAFxEByibzPwAAA29JREFUeF7t2mFfqjAUBnCjMrK6lBhFZFHU7vX7f8Gr49GLbQd25gDrnv874EyfH7I5BhMhhBBCCCGEOD4nU+0Em0fh7PFtBW+PZ9g5uuQTmbTPX9g9sqt3BIL3KxwY1zPi7DzjwKjO/yDNzu9zHBrTDcI03ODQmObI0jDHoTFJLA6JxSGxOCQWh8TiGChWNJs7inX9HbI03OkDMco6zSJd32ZW4qMdLHSLS2w1XOoDKbYcVB3nd4E6J7lucvqBzZ2PU33A47MICYrcFHWje2zu3Nf7C2y6SepGVgo1jqa60cULNuHlQu+OeB+m6AssRokrXBHXT9jWnq7rvbwzv1rN6mYWlr7eSqHd5PbhtdJeH26xK2L0HS1FQxPrIt2o+6IVox/W6M9ix6LPfMy8TMPGUvWQauCnChqL6NgzfqrAsVZ5PUw0xJlHqtCx1sPqvDHmREnhE6qHWBv1+FBVfpE2eol1OInFIbE4JBbHT4xVFllWLLERlH+sMt3+/6UVdoXjG0ulzek2e5rXxTNW+WVqFXNnxR38YlXGnQl7tt7OK5ZtGjr1ny5YeMWyNuLeKbXyiWX+hFrI/ugTi7iJC3m6fGIZ8/VahMMmhdlqOxRrHrFKFBjI8Z7+kiYUax6xyGWeDAWGQWJlKDAcaSyyxSCxsMBmylFgGCQWecmTK36DxCIHCPLvZ5ABghpOuSt+bXxiVaj4IuQ01SeW/cFEyJPlF+tIJzaWnzEKe6fhF2tVfumN08D3P56xVmrv+pqFvvfxjbU+YdtgURL4/mLNP9ZakS+ybBn0WoeDYvXnB8ZSVVkslw5Xe5m7QLHmF0uVWRr/u/+ZJovWAYL+kiYUax6x1NL6PDkhp1tDxCoXxLxmLSXOWd+x1JJ42rQ1ta7d9ByrK9RGZPkte42l6Eeie2Kjb2b1y8QdUKw5x1K5feXBhrgsGVxjqbZ3AAzcx+8G11iOP+DWoVNVx1jkvSGF9zqGwTEWXUY48HQ5xqKHUAK9quTEMRb2MaChJ4nFIbE4/udYBV5HbIdibZBY9Jc0oViTWF1QrEmsLijWHGOhszCgodZbTxyaxOKQWBzfLlbQ5X8u+k3+A28SDtOy2BF+/dgZ8VRJ21urGBb9uvxa0PdAGLqWhuK8jzX3DqpwWUXD4tNw8MVCCCGEEEII0YfJ5C8Wm3ia5zUoTwAAAABJRU5ErkJggg==;" parent="1" vertex="1">
          <mxGeometry x="1190" y="320" width="80" height="80" as="geometry" />
        </mxCell>
        <mxCell id="JP6gAlQ0Z_E1AmdTToNY-39" value="" style="shape=image;verticalLabelPosition=bottom;labelBackgroundColor=default;verticalAlign=top;aspect=fixed;imageAspect=0;image=data:image/png,iVBORw0KGgoAAAANSUhEUgAAAJYAAACWCAMAAAAL34HQAAAAAXNSR0IArs4c6QAAAARnQU1BAACxjwv8YQUAAAE+UExURQAAAAAAAAAAAAAAAAAAAAAAAAAAAAAAAAAAAAAAAAAAAAAAAAAAAAAAAAAAAAAAAAAAAAAAAAAAAAAAAAAAAAAAAAAAAAAAAAAAAAAAAAAAAAAAAAAAAAAAAAAAAAAAAAAAAAAAAAAAAAAAAAAAAAAAAAAAAAAAAAAAAAAAAAAAAAAAAAAAAAAAAAAAAAAAAAAAAAAAAAAAAAAAAAAAAAAAAAAAAAAAAAAAAAAAAAAAAAAAAAAAAAAAAAAAAAAAAAAAAAAAAAAAAAAAAAAAAAAAAAAAAAAAAAAAAAAAAAAAAAAAAAAAAAAAAAAAAAAAAAAAAAAAAAAAAAAAAAAAAAAAAAAAAAAAAAAAAAAAAAAAAAAAAAAAAAAAAAAAAAAAAAAAAAAAAAAAAAAAAAAAAAAAAAAAAAAAAAAAAAAAAG0xVocAAABpdFJOUwACBAgLDA8QEhQYGRscICEiIyQnKCwuMDQ4OTxAREhKUFNUVldYW1xdYGFkZmlwcXJ0dXh5fH6Ag4SHjI+Tm5+jqquvsbK3ubq7vb6/wMHDxcfIy87P0NfY2t/g4+fo6uvu7/Hy8/T6+wo5JKkAAAAJcEhZcwAAFxEAABcRAcom8z8AAAcCSURBVHhe7ZxrexQ1FIBXtI5Uu15A1sKAK4q4oiuiOBWKVesFtOK1oisorqDM//8D5nImJ5Ock5MpK0+fx7xf7EySM28yJ5fdYkeFQqFQOFy8uLX1Evx4iJg+aNsH5+Di8HC7VdyGi/+ctTMXLs82j8AVz7q2att1uOQ5sjm7fOHMGlwdjM0b6tUo7u9swB2OsanXjuGSY2Pnvqn34MYm3BnOevO7iaH5+e3H4C5NntZbP9lqij+2pJ4yvPAjRLB8mhz4HK21j20lYP843B/EM59B845rUECSo3XV1nF8+SwUDGELGjv+eRNKKDK03vjb1kGuQMkAzt6FtsgPEygjkLVOfGerePz5KpTl8z009dmCMgJZ64qt0eNbKMvmxD1o6XMTCglkrZu2Ro97J6Awl3PQsA+/WopasN4GDN2tLkG7PqegNEbUOmUrBFyC0lyieWiooTRG1DptKwQ0UJrLRWjX5ySUxohaJ22FgItQmstZaNfnKJTGiFpHbYWAs1Cay7F42Wrb61BIIGqNrtsaPe4eg8JsbkBLn/egjEDWumxr9PgCyvI58xs0Rb56HsoIZK3n4uG6/TKUDeB9aOv46zUooZC1Rq9EefEBlAzhqU+gccdVKCDJ0Bp9aOs4Pn8aCgaxsQfNLdce+rz1+DVbCdhLVuZ54p1fIELbfvM63GTI0VJb2te2muLXd5+Em8MZf3THxLjVSJ8J8rRGa80tU+/ORwccqo7jp8/X8ueZXC3Fen3+9IGOywchX+uR8ki1qslkOpvP6lp8XK7W2AScygE5qnq+t7QPUyy3+UONJkdrMt/BgO3urIL7A6im+9Ac2U48VNaq+8ugZjfxmYWimsdSGl5M0qrpgHtTKM+gahbQKmaHeXBai5HS7M+gjkS1Cy1o5lCtT0qr2raFDNtQLc2EHyoLGSahJXRTDVhG7tfeZGGgwvBaYjfVNBdTfy5bte0iDsNqZXRTIWR+DdUEllAd4bQqeawM6fGK1xaa6PMdp9XY+yJ7UJ9kCpVkwuczWuOsV6hJvcYdqCMTLhOM1szezmAXWlBkJoIijMJoSWsDEqerYwJVMgijMFr5/YyaInOokUMQhdYa0E9m99DkD3kUhdYa0k8+udyQs/Nn4UqCKLQW9pOPCP/lkwuHnB22hVvYgii0lnvmHptkOPm5cyYOOTv4C1we+1FILewnf1Ty6kCrEDdGSzZVFxX8EEYhtbB3U1YLF1wmuSqsAA+JWYxcpX1oZiG1sJ/81jjGt0ifb3CbbhJaTBRKy+snv4CNcSOgz6le2iS0mCiUFu6wTUIL04I+pnqTLKGFUXagnYHS8qcHr+UtS9CuBz5vN6XFRKG0/MUkoYUn/X5mWnDI50ktOgqh5fczpZVOLhzycVLL10cILaw48xRDxlxaAK4/6tEpLToKoYVzdpw4X6oWqeRCE/W0lBYdhdBy9dQKxx8CVItUcuEbVsfXpBYZJdbCnUL1k00t3YJOCwv2R1VMapFRYi2/n+xmZlr05kaAP+RpLTJKrOX3M3Hu0i345ML+6LU2qTVy33N4UWKtvNQyiwKfXN5mr67SWhgFP3RGWr1+8qllpjOfXL3UErSoKJGW389EapkR55Orl1qCFhUl0vL7mfxorZtwZ95+aglaVJRIKzO17IhzZ95+aklaRJRQy+8nnrso9IhjWvTPvK4/S3O4E7TwmS5KqOX3Ex9KYUbcidsHANgf+82JoIVR3FsMtfx+JlMrSK7emTccREkrPjkHWr1+JpYHTT+5/MMN3rXf50ha8REp0PL7mVoeNDq56GMJTi3be0krjhJo+ZMC+0BjEsGNqL9EwC23EElaGKW7EWhhagnLg0ZPZ+oDFVrAzBK1XJSuc4GW01b9FFLLPhSHFDc0fCdwT9RyUcymoAi03G4up5btGip0IRRdh4KHxHRaLkr32S7Q6nbzZfJQ06HfW9eRTkEDPVp236uKWt1wLTqPQKuCpyhrMbXsdIbP9E7BYH7VsO9uyVp2EPDfDARao0pn31ItSemdx2Kmc20Uws9k09mEmgMBqGVawE+KUEvdmZqAOb+AgHlTT2tUoMjS6hFrAcLOY4mbkaBWXWnceXS4Fu52CcJDKYOnZa5dlwdr4cRPgcfJJKvTSh9qOvwdJ8HqtHBTSZKXXKvTEnceS15yrUxL3nksecm1Mq2MnceQl1wr08rYeSz2OQIr08pMLXeiSrMqrdzUynyLq9LKTS1Feje0rEoLcW/Tvi3cwNkWBEWraBEULZ+ipSlaMkWraBEULZ+ipSlaMkWraBEULZ+ipSlaMkWraBEULZ+ipSlaMlXTYVvVcNWwv5vZsA9h/1fnOQRobD/HcNU0Od8wPwTm7wTcgYvDw3n9t6fCX4AfAiaH8o+oFQqFwv+Z0ehflJyXMqTYkowAAAAASUVORK5CYII=;" parent="1" vertex="1">
          <mxGeometry x="1185" y="490" width="80" height="80" as="geometry" />
        </mxCell>
        <mxCell id="JP6gAlQ0Z_E1AmdTToNY-42" style="edgeStyle=orthogonalEdgeStyle;rounded=0;orthogonalLoop=1;jettySize=auto;html=1;exitX=0.5;exitY=1;exitDx=0;exitDy=0;entryX=0.5;entryY=0;entryDx=0;entryDy=0;" parent="1" source="JP6gAlQ0Z_E1AmdTToNY-41" target="JP6gAlQ0Z_E1AmdTToNY-32" edge="1">
          <mxGeometry relative="1" as="geometry" />
        </mxCell>
        <mxCell id="JP6gAlQ0Z_E1AmdTToNY-44" style="edgeStyle=orthogonalEdgeStyle;rounded=0;orthogonalLoop=1;jettySize=auto;html=1;exitX=0.5;exitY=0;exitDx=0;exitDy=0;" parent="1" source="JP6gAlQ0Z_E1AmdTToNY-41" target="JP6gAlQ0Z_E1AmdTToNY-43" edge="1">
          <mxGeometry relative="1" as="geometry" />
        </mxCell>
        <mxCell id="JP6gAlQ0Z_E1AmdTToNY-41" value="&lt;b&gt;&lt;font style=&quot;font-size: 24px;&quot;&gt;social&amp;nbsp; group&lt;/font&gt;&lt;/b&gt;" style="whiteSpace=wrap;html=1;fillColor=none;strokeColor=none;" parent="1" vertex="1">
          <mxGeometry x="280" y="681" width="230" height="110" as="geometry" />
        </mxCell>
        <mxCell id="JP6gAlQ0Z_E1AmdTToNY-43" value="&lt;b&gt;&lt;font style=&quot;font-size: 24px;&quot;&gt;group size&lt;/font&gt;&lt;/b&gt;" style="whiteSpace=wrap;html=1;fillColor=none;strokeColor=none;" parent="1" vertex="1">
          <mxGeometry x="280" y="545" width="230" height="110" as="geometry" />
        </mxCell>
        <mxCell id="JP6gAlQ0Z_E1AmdTToNY-45" value="" style="shape=image;verticalLabelPosition=bottom;labelBackgroundColor=default;verticalAlign=top;aspect=fixed;imageAspect=0;image=data:image/jpeg,/9j/4AAQSkZJRgABAQAAAQABAAD/2wCEAAYGBgYHBgcICAcKCwoLCg8ODAwODxYQERAREBYiFRkVFRkVIh4kHhweJB42KiYmKjY+NDI0PkxERExfWl98fKcBBgYGBgcGBwgIBwoLCgsKDw4MDA4PFhAREBEQFiIVGRUVGRUiHiQeHB4kHjYqJiYqNj40MjQ+TERETF9aX3x8p//CABEIAzwEOAMBIgACEQEDEQH/xAAxAAADAQEBAQAAAAAAAAAAAAAAAQIDBAUGAQEBAQEBAQAAAAAAAAAAAAAAAQIDBAX/2gAMAwEAAhADEAAAAvcAZAAGCYgAAAAAAAAAAAObow6BACADze/w86mXPPvGsUulRbMznx16C8mLPafhie4eNtL6ecdEsa4SmuesEe94W28e+BrCAQGKJggAGCGgAAaEMAAQ0AMkGiGgAExqgAYIhoSpCGCGEjATBMYlSEwEMEMBNIDFTGIaRDKlsEAIbSSkCbJbQDDcY0mmAAACaAAAaAaAaUBiE05+jm6RACaZ53ndXJjqs6eOhpMpXlZZ75pj1E7qXM6HHKdEVj04ye3r4fq43a2zlihXPvbcnZvkgKAAAAAAAAAAE0AAAAAAAgYhoAAAEwAYJNAmIhghggAAAGJUgAAAAATYhghggAGrENkjQDATBFIQwADcBQAAAAENADAAEMTBSWhjRzdPP0IhoQQeVxeh5XLtQrm3wej4euaHe8LV7Y6mr6M9Mr1Jcc+uLfP5PV5rz4OjKd8vdfL1c+kAJ63f5Xq9OImqAYhggYhyMAAATBNAMBDQ0AmAAAAJgJgAAgBAIAANAmAADASYCYAAAANADEAAwSYgBQACYAADBDBAGwCgAAAAAAmAAKmgbSE2gapOXo5bzrfmwwzvqxmYz87u81q9c9pebzO7h6c3tltWu2e/PrfVlvOlAoI0kww6sjzeb0OLpw29XxPUy1zal9T1PO9HpxEygAABMCeXbmO8TEAAAAAACABoYmCcjAAAAAAAASYJgCYJgIAYNJGAAJpgACYAwQAAAAAFgAAAACYADEMNAFAAAAAABMAAVDAkoAyi+TlOXWby2xtU50zglNPG9bisjp4u3TyuXTPfN7xS9O/LlnXr7eI19w8r0JrSdJx0yz3yOPj7uPXLn9PzPR1jXbm9vN9CorpyYMR5Vy+k+HsGNWRwelwy6dXnVL3PjqzqOKD0FwanUBYmAJgAAmgABgIGIYIAQwQAAAAAAMEQAAAAAAMBAxNMQwAATVAMAAAAAAAANAAHI35/LL7OHimd+jHHpjW98hL3dHkq5908LWz135arq4J05dHUVnedRrpUmdhFSLG8k4PV8v1N48HPSOnOrLmpnQXLRpEnJ37+XK98cVS9XNBZHfwdyb/R+Z6mZV51vNgkz8/1VNefnrGOmvf50ax6Z501tz3GNusJzrfnWZvPLNvqen892ax6pN75IAAATBMKAJEwUAENAACaAYIGJgAAJgAIhgmAAAAJgAwE0AFAAAAAAANMACx+UuvHphy6Cp8ugms6Vw5WIKrNyaKHFpKVofQVm7FrlpUzpNRDCMd+VOfu4+zePKz7OXpi9c989cFtjcpVLEKutevg9fgb5CS81JKL0OD6Y9B2sjTO9Z8n0/Llr3DzPRSuPrZ5ddnm46aRxk31YXeN5aZ4118duzE1yTSsWvc+HW57/Q+b6d8/Z5OTozlawue7SE36PNW56ZxdPTOgFggAaAAABMAAAaAAAEAABiGCAGJgAoAICmmCAQGAAAAAEeN6Xn46XDPN3VCgmsiqzu1ptKgkNI1hTcyzNzoaxpplrhqjh1UTaMePp5LH04lzp5Xs+L0xvvz9E66mm+evCegpnk6YKvm7Mq8g6+PXGIqdY3+0+Z+mzFLmL0zvU4uX1/PzuM7rHRVpNmVVUvNYY1OfRJjV7HLh2528dOahXKFph1YdsaofLLUg00NKgy0Wo+7ijvj0lz9G+bQUDBDBAAMAAQwQNEzCXc4Xi9pF7IZYmCA0oAJhQAACAA00AAAHDxD4eipS471ES53NU05rPTNaVDhb35rNoyUmspWa3ztXvx9llJ4lJ5y483RFxnLWp3+V27bz5HTy9N12b8/Ry7zpndnPh3SZOcTa5K4eXsz3x9z1MtHOI1xk2qa1LRmmPP6fHjeSm+XVkxi6mLlsxLNjPWkUHPh3TXPPSl5620MuilmJBACKUtBKS0NVaCKrPePQvk6/RyANwAgAAAAAAolcWbWOb49xGfLtpWVpttzRc+pr5GnTn6Zz7deVAtZZMy2RJqKrENWNNDTQDDy8d583p5Y0zXoc1zoqcsTplo89OetFjtpU6JYyvNaqUjrnutNcajVOS86mZjPTKyY0z1k9LzJ1lHr+Tb1dPF6GOvBV2uWnZuebj38BBy9dzy+vxfR65uozYcYax0PLDU7cOB5u8zXHqMeNLG8dR4mm5zV06bcevSZrvB4dBFQ6lZU4RZCstY89nfhx10llWY7VrizYY0JqLJZn6fmeh6OVgduYAAAAAACcnLz658PRPPVcvTGqiNTLa5VBJnamabaGmt4KhRsYEu9822+fX0eXfXl6Kmu3FghgHm9Gzzvxsunj5dNtM9uXSWjFqLVmc9E6vnrqz3L18/aqjr589Lgqs8tpDaNIrNJKVZucWBlF46yu7K9z18cO258Hq9HzmtuaidMDca58ennZOm9Lz6sOBXPRjG+VaaXNZLIl06CuWqY80VZ2Z4a8+z6Y11W8tKTVDzpDCUeeWFz16eaJ6c+fqdN5aNMRNusrR57JOk4u3lBFZubEPbLPpj0016uLAgTQDBDUrwww57bFx9Ly1lYB50EuzRJ3MlKayvVCqSyZ3iWXTFlsCcOo9Lgw6c/cM9O/kAE8cu+fXk4fa4Z0WnB1Y3usrxLqKGBGE65a1hHRhrPbz49beWiUsU7sm4mTaZTDzLipvkM+rLv6Z5c+nnrZc/RZ1eh53fc82d9R5kel49vU/Llnp5yibekr6Xrna59eTJ9s6Z06ZitkxXPU6kQtNtAz1buUWZZmuXN5esdXGjfJMLAEAMfXxk17uvhepjp11FZ6aTNWY9vM8TrafNKcxWej3nvT5PTx615scunecT56645G3UZuXRizqdE7TO8FJeiw6aVXBx75+0fPZ7z9MfMs+kjxO3OutvXG8qbhWEjguM42m7y9nwfY9Hn2A7ebzh3x7RrQvi8n03Bbw79Ky1wl5oLLOnKGow236Y5+vTpufO09ObOXfbNnys7XLpMuZTo56slLr6YcBvOeXTC8071GPTlJ1efasWWgRVaGOr2ljTp0msbbzrm5bVnfQ+OtJpKsN+cla8+6bYb2Vm3VJMy5tfH1iBPfIEUFUZlokpIhoW2cy+/v5Hq8+4J53pNSz2FTxkqkpF52ZRG176kzytJbyPDSrzysXWq4JrSW2Yw1hqkedZt5OL9HnT16bnifo0vmnqUeQvV5DP0/GvL6Z+X6nHqToZ0lOlriiXm7OTfb0xnq8HBozj3qOTOzXSMc6kc89mblU4rUJ311nDtVdOeoK4plSuL5I89zXHtCm5Xz9NWM6s7MHuS4LUscVJgtqOaugOOukOffd1l086Ouc1V89mdefpBvPqOdOG5aozy2RjmZ9d1rnVw0QXGTMPL3w6cAd2LR7TcXred889Yefl6OGs8hcXm5arT1/E9XG+3TLbn3nTIY7kHA0VWGmesvn7xveyyaxdE+NOrao685Qs9FWXRBBOud5aZryeLrn6eC6Y7Lm9jXHWXs1yNXHPPTB5fB73la5r2PB9GPbM74dTDfC66E4lyR0XXpgez53h4ddcPRlrGeLQKaRkayZdem88/Std4TJuXWGldAjGnaJVxa5S4R0Lh14tY13DZbc9QqWKAyWIpCBosoCkCGFkDdHPvz7zoyax5O/i3n1deLs5aphmqamuLPTPru3eV56xSIy0vWfn0PpyrWdpqt81NdVLpz0510qXlnoyTk5PQ5dcuYa3g7uHqzfX0yrl3NObsk3A5G5cZt8Vb9PJV69GCOeo5OjHV9TC43zcaZ46TalDXLXfOfP9Hwd449M9vRx27MOvn1vbPVq2qG1RCtSY8fblL4O+a6cfd6/M9Lh2MdYzrTK6m8dJxr3jM9nzvLDLy+rTI1s533reMdYjpjSFFb4xmaN7EbaaRNJZtoK8zTpw575rrPnvLc0rWZcEmtmS3yIWWUvbHFFd8clV11xuN5zm2/Q4PQzctM6ySz6emcs/Q5Vx5dM7J9byu+Tdo47ctVyPqjo58defWdGq0idOXfPyrnfWa6Melegm5c+nkyz09U4tZozjmTbm2yZ5Yud8zbHZPYTOfaO3j7ed6RaTOUtY0+Lrz1az1idpTWd4RpFdjy2vJ5bZZ2RplczolvnfzP0XzXblW3P1bx07c/RjrJ3Wvn9TyjvfPtbHD0Ecl96TwFeWuXf6/jevz63F541dkZ3nNKb9I6D3fN8ncyzu1lnZtNcw7mC5exhstxvd5qKyKi4HloWYxXPV524TqSrx0p0by8sdnDnWihY28LJrLm9C6889LJOTTo3jh6xRnU6tLfLbUrDbJOXXo0l8O9uHWfbM9uVkRjRlvjZlydXN0yurj36TXh6efWPO6Muu66e3g3qpxi5y6KfPvhvj03m1z6nPy+hxM8bmrDTLY9vHr5ufW+jG+Tp2xUTpKzcKVXompz0cOJtRtNHVx9muaGjOWrmiXrny+D63k9+NdXP1HTvJjrnz72ZbNhtzbzWfJ3ZXPP2zmc/J6Pma59vr+P7HPWuPRhjpvz9GXPpn38frduVAenyec3zTSxepi6oclC0OmMuhaNOSYQ5TK0CHlRnrEVOkkt51rphvLa0cYc3ZlLyadGmd8Z2zXPtpSc03zy7Z7onm6dGue99kxdZXN1lY86nO+fy/X4kj1vB925xVnDpWTz1I5ejLecZ9Hh2eVzvHJ3cffOnQoxzuXLPQ5lM0u/lfTlvyds3nx+d3+WzmmqXVzd8exydnJz7dDT43plvBcl6XpFTLpplatznWJvWbxuF0wrjcBnONc6iKz1yx8T2vH7c67eLuXq6ebpx1Zs1y5+vjI6ufsly2i7DPZJxeN73hXHT7Xje1ltnrHPdUnzuXqcXd7POgN8vJrfKbqKZkbIgCNNrUsWCorFCZ2JtFLLeTLPbMqN4jlroqax2pI5nSqIZZKlV5WtGGUbApcxaLVZwm0TrYjRLNxUsJvGs8ejA87rznWfSM74bmLE5cunHpOlY9HTHnrD0Nzy+7l7J1wz5+uW+nNtXnNS63lrEZdXNc8XB3edri5qd4fs+N9FGmOb5dd9c75a2T581rMdym2gWa0IlpOU6OTs4N8/SlKZrHXDeIw3z3zx8v2fJ6Ynq592u3p5tufXpMoaeOjOfo0qMNlJu8Nqw8H2fGvLv9bz+uZ3WPRy6XFde8asPT5wA4FrnnRUMib515/Unnzvsy5uqOiIZmaXctBSpOyefSs1xvzWbDYLNrUOInWc5rorLnTrjLpFN40zn0zazcqGfQT0UrKWUruZPOnN1LktlGOO+cuPB6HJrN+h4vrJU1PHcc3XO88+euXTPVmt958zYydOXo597PS6/J549Xzstc76tMNps5qwZ5+HeN8YWkaxX0vhfQS+R1Y9fPc9HP189acPRhnq9MtXUllgjOaA0lmN8jo4O/j1Oisdph4b475YuY3z28zv8zpmduXpO7Wb59bw7OBa0z7TC+zRPNfX5K9e01L5nBR04+polyu2+HYu/Q16POAWAByvifPp0zsrMNs9M6J59c6vPWLNLx11nHl08e32N8uuJRVmdilMN8rNpbhOZGRquWfW5cHoIkmVaKiNpOe7onSBIgmatc/Nnp03GsozRIpzTy0MsZ3g8vsrm3jbs8n0s0rTLLmnfk3Ob1vK01Onh9nyLc99dnSLIXi003i4144jl242IdG5nBvceodfFkBWNadmGvPeGYZ9FirPTO294k0Vka5a51WV5muA5V0ce1m2GsXhHP0Y75LzO59ufj9PNtXq68fZy7dOTU1jWjqW2uelNL59vMk87s5fW3x0rPfn1fpcfpb5MZ25ITAA8eny8PRt6vL1dOec6vN56tS4vXGjLWjxfZ1YSrsTqaQpgx6cU2V4q2tRMSPKFLVOxcnSzkOxWY3rkaTlC3kVLnlq5rLprE1uNM6hupIQqp5TZvnOhjl18+b5umvNqehfl9kdPJ1ZpxbTep6/jeotTzevzOl16YrPOleOaXzPmseOd6w8nCT7fB9Ez5+evPnT7efq56qLwzuLu+fpiyN5AvUMkZ26ZhFMM2rawpw1vWNuGOW+PXzz6Xneh25/L36fn1fb5+k16lcWmOndXNovXXLVlI4TTx2ryv3MdUyo15dPR3VejgNGsgAwDyOXaePo9hVnrmyIVa465tcmtLpDFqQsol2ORI6kSufflXVbTFS5HmsyrrRcTRQrkDQLMng1tSBY1QQGV6Z1rDiFWM6dFlJSFctpDzvGXmw6njXn8/qYaPo8zpkrm9Dj1NPU8L29Z5/B+m5V8iscWuo5bNObTC5qKLlba+8D25c3znG+NabrDntaKs+hErPQ0nXea5tch6xeToWY5IJqS7cUSw2gz0np5uelr28/oeD7y1PnzSVe2e+dOr0zvKrky8f0fP3zrsy+k1z08voyxuPQrqTQDtzASMGABwx0VjpXP0ZwhqVVydk1z7Y7SkVlWyDWLQrAKJbkrDTI2oUsLQIukOJhK3mCohysqqxnZrjTzilnpKRrjNY92VSkytSeiaJ3TRyFjl8Et2aorKzYzty8nB7GGphQ04emMLPYz8+9TWC687P6BHza+lhPE9HvsWkow4KnG56FfPpnetc+yRWbzG+WtXEK2dJrOrqVcNxpBDgBatZvTOCbkmLippR28nV6nm93TjzeR9HnZ83v2ck1trzXNa5y65H6Pp6xheOOXH7HN3pWqe8UTWgmkAYAHF0YnPrm+PSXvM1qcPpcPbjeHRz7mE5dtyritQDNKmczRPMZNx0RWRpXLpVZ72nNrpKzloZsbJ0zCipcinQlltrmms6ajS0VqWnCZ0vDosCJswiPQVKTLUOWzQeqxU3GXP2ZWcvP6GEvDq8bOvo8zrsz3p2Z4Vhm9u/mZ13c86SzWpy7GqWelJuQqhM8tCbxjfnnS2p1LbWsFJy5Apq9lhrK1z356ymplhsaiarfLn7MH28vrT5da5+rOeFaGSXXbytj0M+fHLZz309298wZqKgoTSDTGIOXHTLn14+nPpzcejh9Pcee3Jm65vUjfn0sKkInTAkbKhshaSnQOzK2DMQedNW1mPFxZfVz6y6Tm5bEyY1TWUaXNZVSgGglgaGVm/m9eadGk85n3c2648+Xo653nOs2qm5JnXIyedLjjUY6SpEzZpc50rB0Su86zt2aZ6DelznbiS8alc3ltnqc/Q4563xtBXvJedZzgJzp08+/PqaaQ+ci1d1hpFrlUXRpHodPN52fr8euPNHVkOdBMFv0HH3dG3SZ6UbwMNQaYNMSaQaYwDyunDfHS4dy+de/Eeny4enLy7N1ydPmejG2euOstFrjPRmkXNSnPeFm/RlKVkoXpnPoJpZmk4Fa6Rvm4rZTabmGxWJqiZRNtuYmhhM0lwtqyuy5jn2iXo4uzzdZ078qI2y1zqXGKdMGS7c+/HLorOfXljryOU0VTctQrTJaFiZlLtpzaQiVK3a0zoMbQSEjVOHpSMmXTTeuGkJred4zDI1bjTHNVqrqfb4PQ9PgnPU6ccs+ic3kfSc7OjfXKoNxg6Q0MGIYIaQAGIPO1l52tOXSXbk1qXzfZ4OvNqnG88XZVS15/dymm0FhlpgHAtZds+jGzoJaOM6Dpxxa6OedkdKzRwpqodrGpEjy0YKhc6M5ulO0EurFnvhc1RJedYJbuJdOffTWc1Wct0qXnw0dm+Fmd1zKOfTpTjOpzuVgdWZu7SWnKVMy1m6zttAtc0mrWdyNTNuRKghoaaphK5YTpLQ0zplzJWmWmZojt3z7hr1+AARJoAIBumAJjoTAAGAIBGmgAOJpZ3gXRjvzznXfL1JrJmy597Jw25Tac8y+HpCOo5y87Ro3SZuxcXpJJO6VSpURJtWaW6cE0rgVSTnrWdiLRWpsSdplM6TWcTZvGk2K4qRRU3Vw+Kjo5Otk0jHHXjCuPr224N5No0nXPJ2EaQGsoGm5Z2iItTUK5a1NRYSQ0000KlKkGdCBWMQtORTckO1aN5656ezzdXs8CGbwDUiTCRobGJhQ0wAAAYCIaBoAA4pDG2CI5+zjXo6vN7S80jLoc5uuHRGsrm6arjfXJyadClXP28BrpOxGOvKZp9JntdERTJZmavGzSbJc9BhUqVtXNJoRStLky0xmmq54dKq6s9MrFSJSNsaOHu5Wo6stbjXg7OPn1MtsuPqinM6dFc+t4VMaMS9HEVJVQk00nTpVnTaC8dsLGhTQ0NCDOkhDrXIdpQIQ2qS8qWsraPY9PkoR38yaYIcIECdCaqkADTAAAEYmCaAAADzqJzt1LL594OPfFy76ZZ2dOPXyTXXlx+jEaYWaEuxAyOPv5F20ITTFsColtJhUUszoGeitEmyG0qpVDSkELNrSHc1kspU1SrWdLKmdLEppdcGiMrGs9UmcCa4+lTc8+2csnQTDTt4Pe9XzvLz9hzHkP0ebn05URz66ivO5jbnt3B0ZVmrQ20qnNAU1Nq7KgEqKUICUYdMT19XV6fHLDt5xgIAABJqJuWFy6E0NpgAAAAIAxDQAHFFqbcVCVGmUuDlm8mlmPb5/ZHlPv8qa9bTzO7On0Yhu8lZpydHOXpoVKqJGqaq1MNwLSmlCWWh2JaZwCkoHEgyWs4ypOKrPbUvNqkJ2IbqmkJaZZ28NYx0zTOXeQedrDfBSpc6T9D4Hsejw9DT7+VgDinHJl3uXzef2uPO+Dfh7eHr5nLx0GTNDVZsqhanXDWaqXATrGelZb517Cv2eFDW+bExpoAAGhTSgc2KpqgABMAAAGmImgYgADz7lTVJwU3Mcdb8y7Gc6nRnWMd3m9xL4/ZxKX1lxdE1vpgHVjhrZ0QOIukaHNK9SThzFTVA4c6XrOWiysqVWdRVpAzLLgCcHjFtdZnTjUYrJGqVKIsjas8pfPtapcuuSvPO005qZtViNTpfXz308/r1N+rwpgKpskap8XbwZ1yaTr5vbz57Zc+lSJoqLxXNSOXQ4QaVzab5Zexy+r6/CAb5oaoAGgAGCASaFc0DTEAMGIZSaYmiABAAADhz1zmrgJZ0w3Hx9kWc3J15FbctS69eLTDzvZ8pc6RLppz+jNc8/R+czw675rnWEy9+vmdEdkrS2ZrKXS+HGz2KxvWMV0QDy3lvLOkzb0Fz7+ZFVl1G9YaagFBKqaEsbLZBvkHPqK8uPZuXNRnpDQIQBNZq8299ufbXH2GHr8AAKpoE0Pz/Q8/OuOR+L6NIZmrhapGdCqRQ3Wb07N4x1017+XpoXfysAE0AA0AmmABKpBU0AAwAAGmqGmICABGAAg4oLzvJukz0GqplcKUo8OhR087s18/r5140xaamPrMc9dZ6AVimyXi5vWJfFw+imX5yPoMs3xH66ljo4vU3jHExHrnoFrE3yxZjx72C0qjSaLZMtYwpYtZmuh6aea5vyemM9Iu1WWssK81Sp1M0LGO2LWumd3Pt1lt7PnCYiBgmKef6HFnfm1N+H6KqdCJqRiuaWYLXZyeh386kN8cvV5urt55Q9ZYmCaExggBpiTBKkDVCBg0xNMEAAUAQAI00AB5vRz7Y6QyrknRLQheDHv8zN2bnWNrx0Ofs4etfKXbwjBL63p/P+3c9iaAAAAAQQAAeV6nk9anP0ZSsYGVhE3nCKAKQ2OlyW86uBExn7FnTaNY5+P1ODj0jDonz+nktOdNMejnspJ3UNFjw6MpqdsN19Pq8/0PZ80AsVJksA4u7gmuK5fz/oRQrpJgUTLCc29HZnXo8hFdHTl0AdeCAAAAYCAABpiABOR1NAAAAMAEwTBDQmCNNCGHznp+f08+vbFFhWO5z9PPUVweljXnUpXZzesZlxL2eP6OdeaJy17HjdCfUJrWQCVpoAETENNHldnL0y4NVKqVFQ4aUbVHPawCh2XGO0uZpzFYGudbe1jr05iasE2eXXd5nl7Ebxw9Cw6MN2WNvMHqMHm82/P0N9npeX6ns+a1N6wAAAHnej5WdYl5/P99TU62gDTK5ljWO7ryYX14ZehydfbzgGsiYJiGmgBkjQ2gACRobTBgAAAA5oBMEIYmgAAB4HX4Hu4669PLsjpOjDozyrOaqOHvzrk6OboQnXOzLowF48+rlzRMX6rbzvR1gAoAABAEABwdGO0vICzrRXMpNRLcVnGJc1XPoIujk5l3hznV9vH7es7AdOQmgADDdy+PfZw+Tvry9OGO+bRrpDksuk83k3x1dO30vP9H2fMjTO94GmgAr8f2PG56rHXP5/0HnU7pcaTSSbOvVN+ryzDvWOnQO3AAEACaGqkYAJggBKkCaKABiGANDEEjpNEmgadAAAHxm/qeFjp73T5vRL168XTkaKNSKpmcaTZyG+BtGe1mXPtjLv53q8MuDkl9T3fmfpt5QFgAgACGIYcdKJcHJLsh5089MpbVEYnVFnNc553hjDKvLeN/c5ejtyYy5SaAAAA8r1vKz0eGuPk9coTpIwq5vLluLuvT7cd/d8yKmrGAgAHie14fHrrnpn4fcpa6bd5VLVz0dPP0Qztwy7+L0enJAbwCYgAAGgAAABDQJoc3BQAwBMAABiGgQAoAGgAYV8x9PnnXx3u+ZGddPo8Dxr1eTp8/U7tOHuHNzqZRasx0m05sejGXo4u/ixrkGaafU/J/TXO4GsgIYAhoADnw6eWXJu81XnWd1jaKmqNObbM51py51xa5aFdWHr3PaB25DThJoaaBiH5PreNnoRU+X2ZpublsimLMypdHSetSfs+enLpgkYAeH7vjceiy35/F9AQt9BprXped6Pfxjl3nn6HJ19/OAWAIGmIATTAAAAEANBLRQANMAYJoaaABAHSAAABhTTl5/mvreNfD28/wBLG+rzuvLNy9j5/wBZe3OlvnGe3OaTtFmGfVlmvHfPG/Ipzpn9F8562se8BqACAAJoADPh7vOlrSLzpJxNUxyuzJAjOU8v0PPLCov6HyfY6YAN4aYSMhNA0AeL7Xic+zVT5vXkyZrSZo1jTHEOzi9X08umk/T4kME0DADzPTxxrzcHPg+kIWujqaNO7g9Dv4s7x1Tfab9PlAYkwTAQ0AAIYmIGgYmSqQwAYA0wTATAEABYJgmAAFgSgBwfO/YefnXn+h4nZNef6N8mdezplrrnjj0ZrbmrFlrETNLOvKx6uUnt4unc+qTWsgCAIaaAAy87v4ZdE5zqppzU6ZayvDTGK0zzTgnOw6+bpX0u1PryGimgRDkbFDTKjxfT8vj30mo83riaSunoi5+jmive8X3PV5VU1286BADBoAGvz61z8X0ICseibik27+Xq7+Pk2z1k7WP1eQAAEMAE0JpgAAAmmJgSMAaGADAAKAAEwEwTSCYABYnKAAqR5/l/Q8cvBhvljp6WuF3OmOiSamhqpWVRm+Vx9vBT7eH2NT20zWRy0E0A0Aw5eXWJay3xzqyomlacs5jjTy/R82xZ6POr9jyvd3i0HTADEAJMGJyJpnm8m+Pm9lZ1ny7sHc1tFJjFJdvY8/0PV4hzXTCTSDTAAGmeILTxe7ktnP0wqmvVbXo8OVuTuafo8wAOWhgAhA0waYgQNMABADAAaGAAFCYJiBoGCRUmIAsCUABMCLDi8L6jxMa16eH0GpbpM652bTUDqbPJ8/v4FXu+L7ieqBvACBpiGgAPOa0zVlrlNaOXNIeWdZ9GXTHm55aGfRz9Oda+15Hrd+ID1lDBJgACacgngvlofi+gpHNDdXLc0nOgX1+iL9ngVTWspMEwAENoXw9MNfB75ms8dpcXdelpy9Xp8Jjrlc+g0+/nAAAAASaBjExAnIwYlQS0FCBgDAACgAQAADTSMBUAW0QAAmAAPyfV8+Xl7fL9XGleGtcITL1iKW2G6eNw9GC6+z4/vHoIW+bTQ0MAQAHEtuPOtc7ia0l551rzdGOdVvF2eNauVdXP05unp+f6HfzgGoAKAikAAQcHf5udY5a5eL6CuNB0y4SvKsGVp7gz2eBVLABAGJNDz0zl8HTGvD9LbHXHHVVF3XZ08XZ28VY783Tl6gHfziaBpgAJMBgCpEpgNMQ0IVDQDABgCZQAAAmmCaBoAAsHCGCAAAOHu8+XyvV4uznvl7vG9quXPVLek6JjtjunzcyW6/UfMfW2MDWBADTBOQaYvL9bgmjPXLG3GmWdOEY31tLfPx1Dmuy8nHpdvH2d+CTLABQEMATCQ8z0/Jx1zgPD9AudNZpGlwsOjnqM7yb+iJr2/OGFgNINA0IeWsTXzlzXi+ppA8dJuLlrv4O7t47x1jfH0Ca9PnaaQaYmAIYAAhkjAEwTQqmhDAaYACadIaGIBoAAQwQwqkQAAAAAed6XmS+V6nk+lz6eZ7/j+vXFtz9Vy6mox1zg8FCr0fpvB97UQFyhgAgBgmCz0cvmObzucrjG4uNee9kZ9MeNthpHWTc16vVydffzoHYhA0xU0xM8vOunzGvL7I3h8fRQ3cLow21zeG+dzyHZjOi9Lz578PYvxNunH1Djesdb83M9Y8nOX2p8PIQq8n0yksbCpl17fP8AQ6+W89Fvjvv5l+jh6Bw6M9RhdaEOm0xDETRSYQACaZNJgADTAATRTAExA0AAAIYBaThgAAAA/J9byM3g7sejn0dVluZdOPQgnMs8vTwHm1Oup7nqcXbcgFAECaAapicJorzlrhmkXPPqrVY1XP08W88FwS9Wme0en1ebt249ZylnS+OTuPOlfTPGxzfe8RTz7t1fk9mN6TSc0y7id83WCue3PmzXsnn0zp2yaWelXPA9suvGFo89Mp2c2m5x3YOaYVmTvitc/Tnh6evDXze+9c/IXoc9zzmjrJ7YJo8nLtvwuz0r8p2exp4RZ9HfzWms/QHides99TWsppgmhgCApgAnIwAABNDAGwgaYAACDyvT87GuXq5O/HQx2jeDaLFnUSrzvT8eOXp5+zT6LXK7m1zquk87ll9s+bxl+ox+bJr3o8Spfc28HQ9Xmy0ublznVE1m6eV6/l7zw3Ny9OuWmNebGmfXncLaXN9azrlvq1muXelNrPS5YcxLqZUVKmyhO5laKErpc1rBenOzpzy1lnPfBOieZ569Bxqa6lzLWemecuN9OZnWc953ox56IFFXkG/V53frjpKnfJ+dpmZu2kmrXE2hJVomdIsr0PMXTP07+f8Ab6ctQNZABDKAATQMATQJyUILOTpxaYagAABjwdnFz3h3+d6OdSNdMFTZiUY1Pi+34dT0Y6Z328mhneB0Kbz0RNUSK3LLKpM9c9Ex2jTpy6J2zZmi4UXrrPzmmkTW2mO+NeZHTydcG+HVLpSnn1q82usjlm0Bcoq8rKJDeaRnNArbWctsxKwBIcjTkOhXOC2aYHRNZaUpEqIIuLDSBejOQGnKA7JtNHcb41Oerzcm1SmpECsa0kibes5LTOz3+n5b3u3LrTN4TToAEAMQKs7BNAMPH689OHo9ADtwAEAF4OTr5eO8/R5uqs053k0zsjSXnWfi+x5Jn08vVnppGkcvQMmBAoDENo3JS0lhvzdHXh15aYs3eHRC1jbefP4vY8aXfTg3xrPz/R83eL6+Ppb1MtOfRtyXpjQxEtuaWyAW3PobPNkqoK0xZScLUyiiWOpS3eNJooYsblAZcpjZBggBFBI3UrVxm9WqbeKkTmpp1C0hEazUrSYzYWE0WZAt5+k0+e+g78RhrIgBCKBkUAACAPN6+L0eHfcT7cRoARHnI047srPrlRplZWsXLDTl5uDuwzfP6Md89OjLoy5eiBAAADAGJkj0kF18vb289xrCZ9GGpppnOsfP87bUOWE65k7xcdYXjq2GdRLk215g1RQ1Ys56wPfHUS0pOZ9EnOts2lGiIHcKXNNpDVBLoILLmVYkF2mJsjOqUJpgMViBuHFKSUcuKSVVKcUrUKds0znXHUmdM9R9nC9Z+oPM9PvxTT1lAA0xNAACGH//xAAC/9oADAMBAAIAAwAAACH12GUUkGkEUXkO+PfkkAA2KKOJiqvIAwCQwBACQjGUmACEVEMPsMkIa44+oIeChxnUicLGkEU30WGAgEkmlmEcv6YeAIMAEIp6wgwwBQAAAAAQhSDBTkPMMPEMsIdsMP4HEXBzTgwEEFHXkFmBzQHTl8htMLoETKBUsdTjCjTQBCyDBiQQCCAAw0WFEWHNMc8MtPJM0FkSADwEkAUmECwDSlpxupqqCuCZEB0dMtgACCEhCgARzAgAAzDwBCBiBxmMOsdPMc8oU0kH2kH2kDmGEDAgPJtiAwBog5EUoiIjYgDIKK8WIdMSxAARyDDACAwwAiF/9/8Aj7LzPc4ANNd99xrMpGbKcZnAAsJjJVeiqjiRA7EFDVhKvDGBYxACWoBgAmCWyqiqSDzjrDHzXBJB99oA2GSIKArzlFniwAyDCqYG/DQjBarFrZGcCTMKQ40HYzMGCdmKCCGiG/8Ay83ywghEPcQRDNnBQyA88VlsR4VTBXXgKo2CrB4wIAyRUIB2js/gC2VTQYAlMsrkgsu5kysIxgoAAfRVfWAmgggMoH3R6X0C1IIT7Y8JCDJwADhbDGqKK8shHnD/AMags0woIIIAEURKYOEAIRLRVXFECsIAsVgUdjRSMwQFptYRJsCCqksGLiOCIQCJYEsCI+doyD76576pEQ9RCJB5NFPJUUHYPf1OBcpMRYUgOweTgFoFKdisGhagNgoHFFU1YZkLMAYIYpQJbJokz0Y4Ww2B0RAAYI7GMJnAHA+wIXkHYD8JIkkSEIIAdDgIFGGl2M2kXkjHMmAB/JeMtgAGDQWAPVQpKOMsK/0MdEMEQIVoKutI0c+pKMsoYJABX4A1axoD2sQCAEVcBaapAChaDtVVOSbgtMEV9gyQoHGJMhqYKsCWEeErUVJ0suedNcUJFICsBkJYPcqNOTNwoItIkpDdNJsIFYiMcE8scCQhVLMEOTtpIN24KWJDqKiMIcsdeHElWIgEaEN5BxXAMdFApt1gcckcMisOFMAKBwisBULmG3OEoPOZJIsMkk9UJnJMlSNDIGMEMeYEAtLUlCkYZ8IptnIFLEQJDvNIcIkDAphqKfBFabAWVTpqkcVVOAcMkKDV5FAoNBQMYbcowM2M2mEQ0Js5ogMsNeuMMaRAAmY/8LNOfWtf4IIAYYIOAXGI36YUQJ0EEM+eCgUFYNHgDNIsvMLCUU/leBYdIcBIkN0CMAwFEQIJtxI8NAKACQ+WQEoBShMSBxRmAqlBrEJ1FVCLuigGEqLUYMeQ904FtykONsJinVwMhQCpi4VrJH6sPRBEGMKAGfEhIJ8KYbooRQUDFJokIPonBGgYANOOqOMUGWJHlRPQ3w3GkKoMwhcmKr48cAGGkSCgIEOHAKfIoIbkGCM8gE6mEeGIOCFSB+BBYgIQO+coYMDFsBOM6eP2KNQVMv8AVsiSgYCJMCngAHvaGJFIRg1AD7i6/CAB3DcmlYQKCBAFCBHEjx4tnTBiRAAtwGzWSFDDqx6DGSAFMlgLGigCiRrnAEYLJSHBCyoCUEKQooYAFFi5GCYrSHMjCmlQfhaAeNESIhTDhjzBLwNAiAsocAFhXBILaQiH9CaCDwaMr7DAwBQwstCRQAqiA7YuWGpkL3zAI6hnIB7DI4IKq9ggcJbblRAAggBCSDAIXGJRfKMCPACCZelFCB4hmBJzAFBhQ3b9DqiAHoHSkE/PXH0XPlhgOCDKKxMiRJJzmCzrT8XCibADCgIL3lCBUAEDIficGVIMhEKCKStHKXgAAVrDFKdG1nR8BSAtUJAgbkaghAShbCQrOieT6EmGEEPNnjb5AITeEBDChXuDRC2DBAkAQhHPFMBGkxJhQQVBDABBE4vDaIHkmVR2BTwwuy1KSTftCoDrEEsoCwhhEN4tPNDxDwYcCLX/ABkQUkOIQKARMVJCTw4AMgURUo4g2Y4ZA52X9Q4wEEG4m5EAaXBYRUsldA0184QAPA45wwcwiAJC1BFg0pLCE9wZARFOkyo4wAiZBZ2YItAYQgYAE55LrZIIAZCDaWw0yQaBvywww/RQkomCxQeXFgBgQLHUYLoYgawo4exrM6gjE8AzjgrQRwI6griQwAoYEIQ45XSksq05w2EWCO0yxHjRNBxR02vCAwT1ywQXvoTVgkOgh4lAA2QnI1o+gCyKfgWFBQVwyQSggkxwzyRc5hAAy4kCKoUAYEwFURwgoUuAqGkaAM4gR4uqitAAk6R0oogwYwJGETRQSUSgCJl//wADQYz1KM7NAMyoOhDBgAQ8NbIW1A1VEMDIeYCCK6rZ0OtMgEPeAAgDAhzlU3UlZCgocM8gJIgVNmKqIIWBAEeLn/NMdFRjAAkGA+MZtpEGFtdCRMMUyECtEwgTDggDBBCgJ7wJdcME+AwXc+UcIpKAYN99BIrHs8oTJUit0N9sjEGkYwqIAIiclsRChrTgiCBQQADSIpKKMPOKgKITgHoRidUJYuNef8sAAjSiFec5gpAv5A5BBoIKjMAYAMLaxCZRjQCiTgBgoII4OP8AgBUDSEPJUbI+UohFpBCjlT+biSkDXLjVTGUDARMpAUCTGDCAcuWWWeIMwIAmCaWDvJpB9A47CeGJMFDIApBJxSBwZDzCGBsjXD/QGUiAD5cJEMDIAHBjWKGGCioEAEIW22mfpJVBerFqScABgCgChlR1xqrGLigAmThrTTHEwQaoLDMkITlAUAGLSGqKq6CKkAAqSWS/xhVxpxpCoJBdDWaDMpBFFardyiMReaFBDDdyPjZCE1xso5DRohKRCKCCCKksIQomiaSORZhBcCOBJTUQTB7NQtNVVyXo3GHvgQgZlHQhiuq9tBNYgy/ghQzDSmCCGGIoggEaioAIIRxBYAkFgsTTQWlRoJlhBID0xACWJAQokLDQMJiVLI8oJBxRCLJXCSCOeqEoIEgiCAAAkFhBEEwwDAajiFQTJFB1hbbJCiuT0gAocrR4hcL7jhYguA2JDBKLCCCqimUggAMWCAgsUVAMMsYAJplN0sISNRRFFCREx4CCfBYEAWqIPXJxxAEQoRDDNDtDe+26uShJwYc2iQQAAQkwwwsIlCxgqyIkpdBFtyEhkLmJBRAMAjqnRPEAWkRNNYIACECUS6iaCTxZBIwqWs0MAkwMk08ohT5DrGmBBxBxRKAX7RLJlZlAAqeTSuPfUBzjCFU9bNnECCMgBMhRJFsqSgAgkAAAcU5BTDgSeuEBAS2UKkLCiwWBjBJIqpCAHHDUDAXNgJhgTnoNbonChDyVxBpCSAAEQIAAQ91IDKWicCAdQihEagyWL2BjFbXCg5UHAkTuSFKWEdRDCIG1FfRyPyhH34DKCAIAgAUMDBBBpPj5HEiBWMMkRBgUB6hHIZEgBhEpUQNgQogDCmMBCdGFAIjGCaC2kBvSWgAgIgEwBAd0zTXrgQiQDCqSEAIBWQwBzAKHJew0AEtt2NBUAACYBCGiQTUBWgDgyuYTJgYMwkAwdIgaGvFPpymajzTKiONhOJMZIPZTDvhABsLr+BbdFAo4AJ1PLyKbMLFf0jVKTKIoIsAw/8QAAv/aAAwDAQACAAMAAAAQ/fzvX/r/AP7z+/78tPGT8/p8c5War9mjutnhtjNmu778rpJ9ww/36wx/jn/y78qvu925w8637z/959uj6/6maFC/dl79WId9nvvvvjilnvqrkprl781+8+zy/wDMss5v9P6XMf8Ae26OD/8A/wDfstuZ7bvbp9h/lDq/3mlx59777rb75K6bZ7b6K+MM+/8A3XHr7fPP/wC/8vzT/wB/OP8AP/8A/v8Ae64rWhhx35/yCnG9B/61D/pLaLSt/wD7+e2KWG//AP62puovu8z7x38zzjzTST/+8/8A777fP7JznBvj86X8s/Wx8vfrRrPOLm3+I4re5qob6PvcvL74Y6//AP8A/wC/u/8AOc8EP++++ytMqt/P/wDfXXvm+y9vKb8esAeRTXX5+fo5jOO+7X7Xt39418uoqkv/AOv+/fN+X2332oLRRo07in+92/vgnuwHpxf9Vyp36/6lmbxLA6tTj3bhG9z17f8AGqWuW/8A+/8A8r6rxD3El/8A+clX8d7z9/8AB4nTvnvoL8HzLt8lP/uZO4TmLe/vCWHX4YM38ursosu7+SMvtrrAAfXffeh2NPu/oPHVuXlinr8TP7O5OXNnt73P7u6fuO+vnvTfn66PbPigjjTNfkpGqD5tNPVFceQ6NFvPnTX39NJzH+Ofv32uc7v/AA16HvvHh9CTWJ4Xm2R83H777771DQzfHnRxvLHtSX3XHTzWPc5o1cazj1Sb7l1hy6zoCpf2lz4f/nb1e/8Am/CHLXLVDcx6+s8Ec0seoen3FUh874dc0i0O86t8z1X+SwZft3i2sf0+gh97qf18rP5+32dqbt+9k9ekH73Ntn+xO6qoo5882X4cQHbXao6qduWN4QobfNbQd09E82+8O9+PRpH/ANv9dKPi+VOPfdFrfOnOuBPmj9HTPIHbubBfvtcDebNheP2q/wC/R+drxNz8/qr6fRiDTfR5u2zN1jrVFt2YdcP17E+/+Dbj5XF6efj97v34zSLvzGvfH6m7bbf7+n+W6Md3v53+y3/v593810pzP76/ZznH74r9dVr6yz2NpfH/ACW57MtM0Ua5Yedg1yvyIOm23jPT843/ABdHXDHOdUdc7S+fNvflWO87/HOdN9lNcrP9+/6hbf24nPCgbtnfPjMWvwFVlLf/AMyfyq2Y9ty3j8VjnyqPKS7Q2mZz4P5qXSv727ws30lvkzWc/wCu8lS9T/8A/r7K313ek/w8Eque7uvV3ONPdrkRNlaxnbq1npVtwfm/XP8APE2H3a36W/4xWlLy991rU3/b753zN3aLny+SDuvz+o7Rz84tv0wzJttmv30a/wAC8++N9xW+918US+vI9Sm/a94d7+H6uXdsB1z9+t89rzQu/LbW85joW58gX+V31N997916a/cfpxq+eGv8o/kupWNHn8Ql+omu78hwv5Td7y3gzd3g808tQVbo8EslaMw846HY4P17+hyVszK+3uoy99XP8G3q4ds5UfXfbt8XD4t+/JHH0/8AfJX3eGrZntrDfLffrPOEOlttr8PdvuLlw/M/IllHHLv8mf5v4417vxTGGrunWU/ur3Tv27aWQNru+FSnrdnfa75fOfr+X/rLNH70w6oN5O+vU/n7bnCr51Mi3G1tb/C/foN/nev+aPSE/b/9dMEvYjP3vPxeLOdPwKOaf3l//wBj5hrj+Sd+39+VJEOm78NRf05/3/3/ALsyfTXPb+kE5g/o34b60Gdw+04+2s37k9W12W/P818UduyrcOW7d7fzZp65+V6r/wDX+uud7N6GOtbkc1oF3un4vbvjnYpq2SkfbaNIaKv6w5a3bt9HfGeoLt8ccGPWJ4mM5n6Ea/Y/P/D5NnrL3bIf+FeOnp0ApNVLq0idaNwf2Et7z/r/ALS30uFLtRM+AlV729b226Tf57cXHve3PSlFt78mn64x3ztzP+oVzj5+/wD3D9/+C7X/ADfZ2FPbjuSB+1vi3gZicx2/Xu8SuM+rbdG/NSrvN034vrfWun97b0OVNA/904SV/g47/wBvcUlfdr333fKaynrYz54fTvk7awFyjb71qmH7Cx5PsVyeX62W33mb82l8/Nkn/wC/LXv/APRf+q3ifZffttnE6bfGcvpaw6htIeL/AL7hJ5/P8x7GxC5LWmWy9ryH+Hnkuu33v/79Pf8AZd+u4xaO8Nn0fEv48+ZYyPeuejc9pP3oq6a/peSBa98n396nO98+QdVJhXntJ/8A/k7z/wCk3PQzKB/zbz/7v6zt97D19DFrif193+HjXdWXq7rRJRqwXHSrD+TW1lH320lXvGi7/wD/APfnX/e5f81Mn6C7du3UVrbfevP/AJ31HNb92yCPb7L49+zUplXX6W5f033nW30+9Xj78M95fT37PnCnfwTJeB37r/tIdxxjQUk+k3/5nllart9K7m28zWCjDz5//v8ADxRPrKe8+XXD+dxsd3du3WtW+ePf/axu46PqVydtt9p/dL0H+N+Ku1Vd9ZcVas/+7Lr/AO7TU/4nkpo9/wCe0uNXxr0f+xX5b+de35ug6n/77aS5hzF/tS7n55Ya/cgVlzH376b776+v23P8r454vv8A+Bd6bUM/Wfo9885F9Z77m3+99a33X/53W0fMkyspQfc8HXQV/wClptviv96af52nqv6bcfiffVXFi7lR3nPbWcXlO3E81nm/81x//LV8IEOXOfbuaq3XMV2nvivrp15aV/8A6Z+0l3F3+Wj14EevCHqGVXXGztaz/lyz+2t/u+bXN3hugyXr+WdwAe1+6rq77M+dm3/tYZ/mlXGvH3r+jLyr72Fz3313zvzG037178Ffd/Iz92N3/G23qJ6+ynnurabZqe8tGn+trI73nnHe041rb1HifnzD33VX3f7UZ373+x3X9WrW+/y6k3mXz6Djr7H64YJ56u/uVUtegAwzVU1++e+S/wDyxU8boLn3zP8AttW/f72OODK+0+fNl3AP6y9eNXuXnV2ljvrp661/41wLNPBbff8A/tFZD+jeyBmkfvfvru7va97TjDzytbqzyv37v++/DT37h+/O577q5fvt89cNCzxz0Dy/+v07mS/71hY1Vu/9/wBP88cv/D80YW/J93tx0u/7tWz0OasB/wD9+584/wD/ALf/AN0MLLNLMM+//fs+fOM7J6XUdf8AUSX3uQsrXywSPibn0793bW812sQmW96f/wDbb6zfH73r380sMs8Mv/8A/YvPeuN74heScUaCtP0b/p+ZdALHcNPXnFNvpAhdvfLt1I+fINbb075/6/7ILLAJAH1//wDLXvt66d5z77Zrxzfvj5uzarv/AOLos95XBK081fl16tsu/q0fjfzUzpq3XAAM8osAb7/9S5+2+mg+Q0ueY29+40FoEcW4p69s3vXtwWpWH+WFFZ12sdz6+81838wP7wcgkU8MvrXvrss8lmifUdss495U787+ofFhCk3qWSfyX6it5vNhf9+F/q7W5fW19RuWe8ogcs8wF0/+xbUsuQ0X67vb/wC3IHv+Qtjz/tnutTpv79nYVEym/P6T88MlUl514d/u0HPPLOPLMG1JEq6N9LdbNo887994uKB0n47n815/Vnr9sthf+X8Yve+EJusx0QgwW86uRvjKbJLJPP/EADERAAIBAwMCBgAFBAMBAAAAAAACAQMREgQQIiEyBRMgIzFCFDAzQEEVUFJhJFFicf/aAAgBAgEBPwD86qw08tlyY8hiKNQmg0nkGDKQfBRcv/YY/a3LlZtlXIpUVUmVUmsecpFRZJhW+CrTZS5S6ML/AGK/7XNSsfUoJfqTxUd2JcyY8xinWJjNR4xYTuE7f7nyP/o9dUH1lxax3DqUYtTHkqTtx2WeRRkrIJ3CdvpmbF1L/wBr+xVq4KVNf9SXZ+okKMy/wUanInkwsWUlciaB+GHoWJWxYpSPHEpQLsz2IfIsVJFrqedTPOpkOs9v9hvkcR6qwVNYqj+IE+JieJrJ+Ppn46jjcr6xqrWUT/0L3FyZKM8tsuJNQ8wzL5HlKx5NM8tV+B+0Tu2sOl1OSMJXX7E1aY8UfqTkQZ4lKsK6sf7OUliS37rjCmp1SoVdWzfBLsx3DIKg+UGTZFKLL0E2uZFPuLl70yRXU4mawZ7RBUE6ESTUWBXHRZJpqP8A6LWMxXUurCi1rCalSt4hTRbDeJVMuIniVT7Ca+m3cU3V16E9P3Grq4KVqrOxE7QpgQg6ciaXIQUkWNqQ88hO0cl7E1GFfiZiOorDyQQPDEvUU89sR61yap5yivkRIsl1JKlbFR3Z9+X1KOprIabXK3cearF7/kVXVSNWuVhKqspxMPytbWy+DC5YjZMZLKSikoIliI5FuRPQmRGLX6lJ/wCCoPInUnoRkJLQI4xApClaKeJWr26KeYzFqgtFj3EIrsececpNdR3y38qo3aeRWj5O35O1rlLWN8GjqZrf1vWVDUaxpHdp6qLqayC+I1IbqUfEv8ilq1czUbUU0+SNXRb4ch1bt9K0mb5JTjYqRZiJEKZgWsTIpYbuMixBHaISOpBMCSWEJkzIcq6rFSvq2foRDMKhTpqRiOit0HoE0WJRiKTSRpmkTRVCnpFjvGTDtKz1D57iYLNB4Y/H1M3E1lVsh2IFHprLGGItWsrCautiPVqP3C+YvwUtZWQ02tz7hWyXeKdOFK6Ll0K/EyFcp1BKik4kikMPIpLYmdymKRBKGNtoVSELYjMS12HfEq1ctkKUXF3xFTI/D3+h+GPIsSrKXadmTIr0sWJ67eGt7hJyOUFmkl6a9zms8QppwUh2qsMpMCwSikqpCKcYJkhjMVsesGm1nLFim6upKMQzEpcrUcj8MeSQuIkiSVIFViFYlWVuRccopkwqNCiwxkxmWuYFiRpKjCZGpf8AiCykdW6EIxRX0Uqd+4RFgiduI9NWKlLHaGNRF16Cf+hu40H6g+oVF5FXxamn3H8cafg/rdSVxHrVqx5fLkRGPwZkyUsmbiJo6zieHt/JOgYfRsq3HospZSVOQvHqeH18ltJltexjl8j+XA+JKioUaR5BFBRqSqV55ECrkaagscjFSykwLCkYmSmSkuM5M5FsVG61B4KK8iEEjEjalT5XFXa6ma7utysmJcaL0xp9wnuKNbBjU6qox5bOOmJpqGTXY7FMi4/Qo6dqrGn0dNFuTOJ5x56nnK/QrUFZeJWpYMRJYaOJ4e9qlhesEZFlK1fHooz5dRcmFoswmmKVHEmVUvcaOJV61CeKiOq8pJ8SVehHiZHiCn9QU/GqfjCNYfiTz1kup9hpvTL+4NNyj0YTkW2VcikllJkZ7E1WIciqQ99q8DjNhTH7rlrkdw9BmW8ExUQRPNqGKouI5DCdTHNjS0cKdyo9jNjLaSjV+prKGfKDHBiwxoIvW6CRxgauo9e4uTsJpmYTR2FpKpZT6jimqr+WuJNXkO3tlR7qN3FtoIn/AKLsRkSzCuxSZpPsUeS2NSuFQuUp5FKOIu1FblrKMMWJguxSkyKkFTuNTNlMMjtEgetUjio/nMaXg3Iqd1x5EjIVLGjpXYuqrYeeRYxMSY4i9GJ/T6lenyJKnaeG1VStaRHusHkswmjYo6XERFXaxxJkkVTVUGdj8G2JGjrStj+mVJI8KYnwyyn4BRdBTF0awNp1gWipUpKLRbIWlxPKYpTixrKefKNl4tcpVuJTbIxKMEyLTyHosNTsYmAsMKOPHMrcmIQqY5YlNMKd5PMXId1EJm6kwUo20FPiOtlH7jOxNQzMyWU7lNTBYeVg0NNm1GRSiyQJRUxt6JklzIWMiIMVYwUxttJVcliZYR2gvc6jiqokki9xxZTU6fDkfwUoYoilMduQlZVGrLJUqlKLqSnIsKSVh55EVP8AswzqFaPqeQv+Y9GwmRBMFNTE0fSmVJHnkRI8qWFS5Uhf4Kc8TUwT2laTwmj9p2iS5cmTMltoU7S5EktyJqWPNLlSMiKRFMwJPqSgtM8osVO4puarrTIKblKRSlJUkyM2gyKVUzMl2YryVZL3JRseAtGs3ceS0Do0CFrbUlFQ082UrDd28yJI8KU5uVyp0UwZ6ljRUcKO+W1yd12noKOSjEKRBME9BR98RIGYdx2EKnKnYdGhhOLFJil1FnEeeRjsyC8WPMKfIiB5K3IeCVt1Fq4qTqW/gSvUYd2kR+Q/6dxJuJAgg/aTOLGVzImSHxPMuUYNS/KxWyNFpc2yEXFcdrlyavEmqTUFZiBZMiWuL2ly47GZL8RGy2+xiYiwPUVSXvtKMJ0Ekr0VanxJXFikUpEklTElB42UpFypJVKkFSOIkLK9RadEaFX4LZGNmHb2xIEkSRIHgfaFMDA+xTjiaib1ChS8ypYo0VpLulZWJKjYkMzCqJCkyRJ8mFi+0lsiUMBVsWMDA4wPU/xGi5JEqeYuJP8AoXKCk6txkr6ZZ5CJiIIXMzzC6yYipyFFKklSR+TFacRMn6QJT/yJpriRipLKTNxHM7MaechJHW6lVWhtlkzMyIyYsyqV55Hh6csp9GnL8R0yITE7RGMhSJxJfaZFPglzMzMzMzHcVLk8SSFaTySKRgTkjXgSpkvIfuIkpTtMDqWEUhOIqjziVGKjkFWGZigmBPaPW/iBnMyJMiXNGwjEOVEyGWzCl1O4RLFZ8VEXOoaWngpG9Kljs08TLkO1yNlktcxLEwKMWMTEtvMHaVJyESxG0bSuQ/FiH4kxcQWSTAwFQ+pElRyow+PyPXsLUyKP+yu91sQlluPNy207aZ7FJ93JkWWkpKWxNTyNLQ5C8fRKjxxJjjt87JBClrbSTBYtcxJgupYxJ6EksLFy6wpkR1Pg+CallJW/UswmyuLJO2W0yOVa6/A7tI3cU0+w9dcbKJkzFbtKMXH4kLkNxPqUnsUaiisfJKE0SKIkYlSr9SmuXyUl9MsxD5NYmOJiLAsXPhRWGky34kSpMk5ZELvPUlSY2+2yEySWuLTGQRSVJEfEioZqeZyPMKlaxW1DHcT3Hl/YmSFbIpQOl1FxUebsKqqtys3IXJjkpRdoEq8RahDmZNUmq0lOmzCUrCx6XgToxe6kxYiBYUu2R8EctoJLEli22RLiyMT6F2cRbnaNNyB5OPzJUr2biJVPMMxqth62R3GJZT6jyXKTGbSV+i9BIaWK3FSp3CYwPIrYqaXJyfMU8xl+SNSos1HboUaC/YRFX4/IwJmxlkWEnkT06kci2JIhMFiYFLcSSepawoxM7MQQRA5SixU7SBRx5tTJlciP9bMMYDTieYZ8i/EeRCCj1YqTeoJPuFecip3GPt3Ei5PXieG6e1O7E0FZivo+IuiaWKOmWmYir67bORFmI5KQlmHEGcmRd2IjaYMTExJgmNsMjDiRFi4wjDEQIth55Gqq/UiRZInZhmsM99kJ7TExMTPFSWMiXL3Efjbbw/StVqZSKuHHZjEtsvrvs3cW4kTiJOQ8EEqcfXYtuxIopMkuKMRJcWVJHaxqmuwkkMZGZMkqYbJ3DbXUeRp5FyZHFcVuRRRqzYwaPT+TT9Tdovr5CjKKOgkMrETxFGJj05GRkTJkZDTyLClyZ2gYjaO4Y1LYqPOTGeIsZqY1EPObIiupFVSXUdhJLkyTIzEciYsZbKotJm7TwzRYLm35Cx+VazEkwXYzIcyL7cSWMjJjJjIksTBM7R0JfaNoQwI7h2VVNTVaSB45CN7iFCitWiN4bTkreGN9R9HWpjLWKatPcQv87STJ8iRYfqW20+kqOxp/D0ReQq8cfWv5GJiMJ1JUsSg8ClxdpgxMS5kQ20sZlrmI5ECKQpCliY4ljU1bDtkMWuPx6nhVfJcSciFuTRVu4nQ6diroKK0yqqq1iZHGkQnouzzdjTabzKiGno06VM+S/rX8m9juEgmdu4lCUsKXLmRmTJLHcLTLWG7iFIguTyIQhd5Pqamtg1h3zJJEK0cTwmfc9NabUyrjlcqEkkEsKabS5saTSLTW5b8pfyKnaJs5cgmRiEbIlGPLqEq0fJmpdScchMS58mBYsPAlMhLEl9m4rkVtSv1KtXP5F2heRJU6qeFTat6Lmrb2StWbzHEdm7hpJLiUmdugmmY0GmUVVX8tfWkkwQSxkskxtBMCwLBYZFY8hSaI2mYWhUVjAxMTExMMhVxGHF2rUWejZSslahW5DzfkRJkLJJ9TQTjWFm67sauPZK/6jiSNlssXNAiwt5OLVLKUKeB9v2ScTLZiWZWEnNR0F6EkQL1Jgt6WPnfIWbF2yGJk+PkpxkfXE8Q0avyGnDixf/o+Bdok07WrGnm9Mid9T105qJ95ykPNtqSZNYRcKdjRUlblJEY/s3iwgxcwyEnFi+SliSWEkn1TJEksSxLCyQ1hnyO3kO3mN0KSkjorKeJ6PrmpRfFsWJFPqfYXjUNG3soRG31NXP8Axyt+s5SKhexoqF+YvNjTU8V/aSL3DFhB0EnaZGFkTt9UxtI0iikyZWKlXLiaWn6HRX4yeIeHslTNRJIJ7SZ5FTrWSxplxppvMHiT4aUacmKfRSpJRpNVqIInlU7GmT3Lixx/aTAx53LEXtILltnMuVj7CdvqkYYcSGJ6EvyGa6iRlUKKYL6P9msTOn1KtJVYUaeJL8inzrIUV9tBtvqeKt/xXKIo6mgotlkP16GmpcP2rQMhNP3Ll+Ij5CimQ/cXtU2T1SOX5EiDsLF2JKNPlkY8fRJq39sqzyIkduIkXqGip31AkWW2/wBTxVP+K5T4sR2k8jSxhTKc5MUVtT/bTGRUWxbjYp8WsKZ7T3FTuuLPEp+qRyYPkvYYRbdR+4oJ7Zf0Sa3pTHgUcSbMeGU8qmRPo1iZ0bFal5dYjtPgSfYNM3uCdv7a9iomRC2J6VBYJjkLJM8iv0KTXUSeXqkcY/keRUHkwyYRcV9P1PEqtqZnfZo4mB4VT9vL08WpniSKtZz6n2Ej2DSz7wvb+4dSpHISRhRysuVMorZRe4X0sMMNtM40yGKK39fidXliLvMLliaBcKNhfQ3aeLvbUCv1sUccuon6ZpU9791XQSRhZHjiY3UtZRO4X0ts488RORWniX4mnj2/U7Y07mvfKsJvS5alIKS4qkeiCr2njHLUdBY5CTaoUp9k00e5+5btK36YhE8iZ5F+Io5T7vVUgyHYeblPoOWuxSXiT6dTONFyu16gsmRfiaCFbUIf4ehh59s8Q/WcsXKD+2hp29z9y3aVv0yO0SbsTHIkQYpR6n7Ru4qdDP3BOqlToJ3Cdvq17Y6cab1LikDRxNG+OoQTqty5ltJVi1M1vWo59STTfpmn/VF7f3DdpW/TIniUzEcQmBI9UjKVz/ZRbiVil3i9senUVlpLc13iHmLiR/2KITIvBsih4mqriwniFGRdRRYmtTJ1NMfVK1M1U3qPOzmkbiI9qhSrU8ep51MirTPNpmdMzUhv2X1K8+2LIkLjs5Rm7E9whjtcsTBEDxYrRclSjFlH5CzZhHXEzU8xSaqjVlU19TOnxMOXLZFYSk0kaZh9MxOmYmKiCanUQU3ZlyYbVrDYj6xceg75Ns8lGsyiVVlbiVv/AGefTM//AGZtH3Jep/Di6iogusqEa1hNasialWFbLtJ/NbtNRPtlHk29SSh3DPyEqqeaNqFUnVKTrD8YfjDzs1HPuJHHaf1D6jOyk1iazD1WkbkpFGmeTTFSnBdfgmCJsXGVZPJp4kduI+gZup/TmE0VuhGjUbQUx9B/iTpqi9pNOtBC1ih5xEVJLMpmsHmHmGQjspR1LKUqyuL+Sta/o1kmmgnasUfgqsedYnUVCarT8mZkZGXIo9VGF7hI4lQvyKfaVZ4n2JgmC2+Rf0ZbR0IqHmHmEuXIbZlMBEJ4lZ7EOQ5BexDivxKNbEoahS+X5FB8mF7do6mse9TEoJYmCxUUTopX7Rsi7GW2Rc/2abqpUEgQrQRTbITtKscTt2mNmLlvXE+mwsbWOJDjMVTHe4s8iRZKL2Yo1llbfkaWN/sVYvqBIsuzSOSajtG9ek7R+4QQcxjZyp0LkSTvYwLeld12uXLly5fZoMCxYkvyMilIslGq0VCi8z6//8QAMREAAgIBAwIGAAYBBQEBAAAAAAIBAxIEESIQMgUTICExQhQjMDNAQVEVJFJhcTRD/9oACAEDAQE/AP1tNXyE9lNx32PxKqTqj8Sot9bEMpKbciVyLq9mG/hbfoMbejY29O38LY0a8dzcdsS27L4IyYWtmI025OmsUibF7iq5W4kwW+6j938Nv0djb+VCMaPt6X2bewkZMVU7ldCi01k01mooXHiRklgk5KNA8fmfw2/k7keqcReXaLRYxXo+PI8lRMU9hGLpysKo5FMG2ynIX3+R0XE1KKpQ+6jzso7cvTCmJiY/pt+tsbejExMTHpPSPUlWZRoPseUqE5GDf2OhHFRpyYRsRNViRrSrVZCtkZcTUwUTyLn47De7ETuLXkNViblM5D0MeRZkeRYTQ39jLj/In07GxsdpyYSlmE0bSJoCfD1G8P27SdHYLo2lvco02JPE+piRBYvEbtIXkJWxjiMLiLqrE9j8TYPczr7iF3WqzEWVtUs0rZcRKLFEW7+yF4nwxCK5fpdxkZfY3/ycTicTf+VKszGn024lCqKqm+3SfYWdzj0bpibFnaMvERORUmSl1TEqxTpmZtyynBTdiSJH5GwlDMTUysK7IwlzMVT/AJFnc8tSykRWUbkfhlYv0n+CvRt9iNGpOjUbStHwOjKbm36u/wChsbGlrzYStVUx9W5ubGJPSwjtPhjSi01svuPTWJSq/BdVkX6Zo7TBl7jEkk09yx8ipS/uNpq8hKq4N1gRibNhbMh4UxI4jQskqosGJED0Kxdpse0ZbF/RTJjybBqrIMWN9v0tLRgfb0bEIShFZPsfUmSPcniWSfA0ctzTNyEfiMQM5iuJqq1+SZJGP/Cl7CuGx5GJkpmpMKxtj2iOxmS5vuRBt/gllj5IdDjJK5FlCly4+rEqpZzT6BRdJXjsPoax/Dq27S/wr/iW6O5PoY2C1WSNVZBjj8m5v185VFfJiG67mZDiLkOhgYGBYMSSUNiI55mxGpry2Hurkz4l77n2JU8sTTFWnVV36T7GzMeSxFbQfBkZG9ZL1qeduTN09hCWN3C1qLC9NtzVJt6l7jQVLKlCqg/JuJYtgktBE5DUq/cTo6MhdJSNoaWUt8NrYv8ADcR6mRur2WSaXKa/cWOuxKC+zFU8RiIMOI8qqjvkYj9JyViq/YrtVjyaX9y6qtfhx7hpyEQhOItQqbGXHYnovXEby4HtrU82syrb2KkpgXEdSUFnbrq14mynHpHueU39Gk0jS2TFSKiiuxDtHwPYxDsLZsTYxyyIyORnsYVv8ms8MVq3ZS5GpbFjDL3FVcTTT/RsZqZEMLyHjkUtxMlJtrUe7jxHdmFjcsnFRWVvkfE2Vh42+BbWU/EN/wAx7Gb7nISOQi9EnpsSQKb9L78fge2yWOUmxsVuyMUalZ+TuUxHTZjfpql4iaax2E8Ob+xPCtxPCq/sLpK0+BKlVSRUIxLHVfkfVVqTr1I8QUTXVyJqlY83cnkRxKXVmxY8Z0aw2fSIFfE89p9iMhcjYrL7lUXWYk61idRY7FMNjuMQ2JdaQ7GbEMdxKsYsYMKgqCxxPtsQvSCa/Rdfio7szEqYMYMbN0R8WNNbmuxJeLG/TDOzZinR0rXkSlZZGBNjSVRkw/E3EfctuVDU62x2xUwscjSsfg2PwzL7iXsjYlV2SiufJVOLHitWelyH4tt1rp+wqmKj2Vr9x9aqripdazkQxjsJlkUy3l9Jr3I0uR+DPwZ+DF02J+HPIPJPJ2MRY4n/AOh8r0TuNuJPd0b2UvfezYiNyqoWlRtOslmn4jJj00j4tsLyL+4X2N+R9iq6uK8ZcrlWNSvHcTuKk4ly9IbFTWXMzbFNeXcJVt03FXdvc1NHLKCmz6i+ylRi2R4i+GjHfdpIqFp2MlVRtSqj6se3I/7MhCcSivJjHHiY8hF9EnscT2MFIVZLIFUeMWEnopv+WNPI3L7cVGnJtyqBJEniQOiyalCIKn2sKn4lnu3VVZrD8KuO5SjQXx+WVxyKy+cRmNTdgplnZuUwuJmZmRuPKtWdthU26lfsVOuR4hW1lPsXxha0Hmqo2r2LdTkM7N1xIjpuUXqpOpWT8TXB+PWCdeousyY8885jzmgW5jMR2M9hm5CvxH91K5FjpLsZEyamdxI4nnYFN9ciWf4MyXLpVhhI5FM8R5MzLiab3bpTA67+xhjcVyapuRBrWKSvtMNxKzHptuWqy2Gm7Re4qVpY1jrVpTU8rmke1pJ91NuqqRA3ScjlBDMSzERsKVJkLSLWTWpKrHRCYGTiRBK8SeJTdlxJGJkaSz3KaslLNHkLorMjTU4LyL7cWEu3UewcTuKe0YhDH/BpqtvcWP8ABTHEbHIvjkVSakhjVtyNOVKPDf0JDCQWZZexXP8Ak1XeaOT7FDKvyeMarjipvH9+mIEgkmTcgcUhNyUxMSucTzSbybtyOR8MQyll2x57MeaxXO6lilUY2EkwScR+40sEqLHI+VL9NkNSykwxIhT2kiwUUr8yLjCiCTxH7i6WyM8Sx91GbYu5MULyKoJUxIUdRUNcmxpe0Qa3H3NZbnYNHv6IUgiGJhiekTuMKQ6ktv0iTfc2FUj2JkyYmchUEQRRyZ5CzkpI6j5dKfas8zcSFPg2yLalNTioxV7sV8VMihM7CunFSEUWtTbEePsY52OOg8lkkqU+zFfb1iTHdjY1s5NiUcfYRjVahVXEZ923JnqiZMeXsoiKNBJMEqIuxMcjExFUwMCSCPYiRnMxEyITborkyOglmLYitko8jx0qbiOjT2ivchTqW+wjl78S5MhlKY5CyQeHpk25ZlDcTewqyJYzyUpxzcuUtUeDMrbkUyM7R8Eux5lgljZGRe+VhSpqbFrrLrWdutlLKbLiVKf+kziO7CJ9mJjrt0gyFclzIyMzM5MVU7/Ii4nEmFMencWJtyEfib7kjFUlUL/ZjWxgsGWJc7MfXkPiVC9wsbqeG0417jRWvKSzULPsojvltJZLFcCIsMXUNC5F0FsjlbbMUvupuwsn5ZJa6qpDZWCcVNbZv02Ni73UbuEfEz3O4wP+ukwR02JI5EKShgbGAqCIZ4iWNInuM6weZxJtFsOLKShBI4j4sVPuLJLFjnmj3EcmFr4iKUryKnwr4ljWWC4zxUrpxXdicTIWSZV68TVabYur5DqYlL4ivuRPR3xUuuyKY5FjYqXvkxPV3WayI3FQlStNhj7EkzsZmRkSJBubm4pHXbIrXEmSaeO40HcRBlsJO5MdGJgR8SLzzix+taC5FNTOabRrjyPJrUulY7TTU/aSyeW3RIFgQuXJTU6dsi5WUViBBB52Uvc+xVxLrhuXo3bHYTJRJ5G3ImMRhnJYjp8C9IYlhZ3NiDc3FEQkj/smWHkQwyPL5CyRJJsYD8em5M7nwQu7CL9SjSN8lSVop52PwLbmJRkTilexHd7jwVxuO6qI+5mW05Lka7TMMuJDiWi27DXjzkJU3yWNiO3pVSV2USeXSZ3LG2O4lSINiSCSchYNjfqosCKxMExxJgdRYMjb7EzyFYeSJ6Mm5gYnlkVC1cjR6Zfljio74kPkU8Sp9y4h+RLlXspPOzYsla1xE7fcmfyzVUqyl+n2YeshGgjIwITYssVVHfL1IPPE22FZjIf3F7em3SSJN+kG/RUYhf8AJiIJJM79bFNlhSrlZ7lz4+0HyxCLA4p3LsU6VXX3H0X+CdGx5Fgumskp0ar3E4p2jOcnKq2gw47lbYEvkMm3uTPIWNqyn9zcubKz3NyXYdMjxHgeYpkrHaTYsD3tiM7MTHqVjffpHSyCPdtieJDZdHIF6MR7iIIN0WBI6QSw7cR7OJT2ZFrZFUDzyJKk3ETewTJFN2ORGIpMsJWzfJNItSqpvsxlwI5CoWKJTu2Q/wC2Upt7l37hMie5a6qu54rq87MTMW7Yi4Z2NzL1xJDEHyplixNm4nduWSKLA/RSJ2JkWBTImTcRhJJYezEhsmHIURsRyqB55EvkVxtWaPTMy5DVYsY7Ex0WREyIxQmR54kdwogpCZCoY9GTJhquJX7HiusWuvEsfNsv1duiTuplsxMZEwLJMiypu39DdFG6LJmZG5uKJPElmHykXpEEkqJHEZOIq8hIyXGDwylUp2Y1VPLiSbGxgJOJLZC5EwKokMbCI0iwy9ZkWB8Z4l1q0r7mu1bX2E+tv0KWHEcn3JyJgUX0xBsbEdNhYFkYYrhR55G4x9RZPqL3GjTNil8FxJRXrLqmrY85Z9pPPUVxSIIgeBIFghRIGIc33Nh8hrFRd2PFdbk2Kub/AKDfoR7fBvudokmC5EopgbdMRSFMDAwUwMem+IktIwxHTIyM9hX5EtuoiMzGgpw6UMuJbUrr7nirWVajZRNY0FXiBTrK57hNRS3wTcuXEdxU/sSBVIQsbjsJAnubN/RrNdTQvuazxZ7O0Zmdsm/X3JkUYmTPYRhSYMTYkWDfYzI6YjimHImcTIgkliWIk33FjkR2mmp3KpxFjIqfFtiZyrPHKceZkvTzbFF1dylGtuawqjKtGEXiIp2kuROTD+xliazXeVXxNbq7LbPcmD4/gKfYmekQLIrESTHTYWDEhBKxoVR7DfcTHEl9iXyFJYlifciOsZGjpz9ytMWEgWcWI7ilzx6OPo+xpvfUFOWKQVzxEkk2FQdbDWWrUprtY1rYm/8ACTuHJF9zbosizyHZYUzUzUhlP/CMhZYfKRjIzY3OJkZG4hibC8m2NNpGn3YpRU7T7CkzyEKJ5Hjyfk7+he40S76g09K+Wg64sITIg91NXyW+J1xxU8U1mXsN3b9F/gOpHTY2ZRGGFFHncmTJiHY85iLiNUsDalWUlzIyN+k9UJ6I6rYaa5WUrkmBGGEkSdmPGUy048Yt1XuNFP8AuENO35KFuJV0WFg8TtbzMVMmVcmNZd5ln8N13MBeiKrjJgxE7mwvSfWpv02Niei8hUxNsvgsllJ9zR3srYmnt3J91K15ExsLHI+ySa9c9KahcbH6r3Gk/wDoNM35aDiHyO+Ne8l1nmXvJrbfqfbf+GnIeCFJgR8SyMlNjc3FHg+3qWCVIghTElSU3FTEXn7CJ5a+5a58itgxo9SVXZKUzyJjplxGXPTmvTHUOT0XuNJ/9Bpv20GEPseJarZcFIbFTV2s1n8RYHniLJPuMJYP0UgmB42b1KKLiLAw4kbGORVXiaqz0I2HuaLU58Sju6Y8jYaMdOeItvqHJ66GN7jTzjWh3CqXXLVW5bb5tm5rLca9hv159NT5ExyPK6ObbdVIIxLO71KKKKPIvIw4iqPOKlzq7ej/AKNHODGl6u2xc+2j3NXOVzyT0yPDF3uKk3UWoxPFbNlxEjb5Na+7bH1/iI2IrZG/EiOQ6Y9G6KYiwXd3qUQ24iQOUwOLJe/HY+3p0KZWGnTFSe0WC7/Br78NDiPOTZdGFPDXxuNHyXciOXTxJsr9i3ipdOVn8ZHxEbifYuX8vcmTYkQWNztLIMfSgkEHwpMbiDtuKXvuxt6fDF3sKzbc7R43sQ8Zsxpx9CmkbC48NnOtDHZhsoVzUxlqnNUm1I88v49dmxLcdyOdY/cR2kwKJJuWQN6UIFk+pEEyQfFY07t6vCamawVcSGxJsE5OeN3fnYej7CNtYeCWb1oN3Fs8S5/90ayfyR+7+QjsVvxLIFJEgj2Y+xZ2jelCBT69EjKwlP6NU+HGPVseCVbLkOSxJRxzY8RfPVPPpWN2PA5ZVQl8mNV+yPP5xq2/JG7v5NDj9NhO4fuE5FnaSR6EFFEUdSlORPyaxt7PVVGVmJ4bVhSOOQNw07sWtlY89G6p3HhSY0IxVG7GqTLTlyY3Gpn8sbu/koPBMERxFHKi7tJI9CCwVKY7DyVjTspqP3CPTo0y1CGmTGkcc3PEMo0Y3uz+he4TlYeFU/7VCtMWHXJTWJtc5qI/LG7v5KE8mHTFdyG4kSOUlzm5HornY34lJKfYt7iotjiW+7enc8NVp1CCpjST7lgnuxra8tHsWrhY8SYmxt0p/cPCo30qG2zH1PEP3i+Pyxu71bfw0E7i9vqbkDiTiW+5t6YYqbcoMv6Lo5FZb+2P3enTadrrNjQeGeVyYf8AbxGLsv6E8xWPMa2vFjWeFta2Sj+GXoNpLlY8iwjTWSVaZvMPCoZdOkH2Ig8Tr2s3HTKstpsy9jybDyrDyrDCwlG/s2/hSU8hYxLJ3YUUsgjtHnkbnyYmKmJMFZUQxc3IrLcsS1GyPKY8phamkTS2MeFUYWcibibchsYLbq1YnUrIl+wmqrM63LaNPK74D1K1mKlPhLuuRT4IuWTFNPkrjBxJfb4NVpvOUu0dyMWaZo+h+Hf/AIE1Y/KEIs/Q8msnS1sToqydEpOiYfTMpKtHybfqsaeCzipMkSKWCpxHqY8piNPZPwRobJF8NYjw1j/TRtM1TCdp9SZyYUntHjkLUrEacTSqV6dVEjBjz2PPYstsY8tm+SKTySa2FixTOwji2RV4tWi4yf6zSP41/wASfGmI8YYr8Z2E1mntXkQ+lYn8Ga+KY7T8sk2YiGJQ+BlViyhW9y6pl/SellNuungv7SD+xO0c09WQukyE0NYukrX4PKxMTYxNX3FfaNPHpVPR+4og+oskOZG5v1UYg2MSaxqSaDyTyiUJgV2U86w86wstZzYSDExJgxMOJgWVF9LHbx/Q1SLjuN3ddNHHcubIX2FN9jI0fuwi8TYidjfpA0Gt7iqNlHJnYqczHnkUOsG+69V6bdVGFn0YmAyjDdNunIis2Ej0YkwSrEltSupdQytv+hrH/LI61e1Y87ikdIg0cchJ4+vX/uCTxHGENyYE7in3U2NvRtBM7HmEOLPok3JkaCYNjY2NjExI6KbGw0GwyGxdUsqXVxHr/8QAPhAAAgECBQEGBAYBAwQBBAMAAAECAxEEEBIhMUETICIyUWEwM0JxBRQjQFKBUDRDYBUkYnKRRFOCobHB0f/aAAgBAQABPwL9tV+bT7+Lq6npWV8thIssrFixZZ2LDj6EavR5NDE//lGFrdrT53X/ACqfzod6rPRTbG9W/qPNbiLlTE0oE8a3wh4moztqnqdtU9TtqnqLETI4v1KeIiy6ZKApuPJrjIYzC1Oyq+z/AOVT+fDvY+Xljk8khbFSooK7KuJnPjvWz4Kddx5IVVIaTHT9BEkLy/Yw09dGL/5TL/UR72Lf64y4kXJSUY6irVlUlnYUBUxUmdix0pGhjyp1HBlOrqQncY+BeWRgfkf8meb/ANSvt3sX88Y8kjF1bvSumaRGJGIoiRYcRxJ0iUbZUaji7FNkhiWzPw+peno/5MskP/Ur7d3WjGq/iJMQkS8FNyG9TbySEhIihQNJpLEojROJJZYWdyfIyJ+H+efw00/+Ncvuf/Vf/jnUraTt20SmytLwbskhMgY2b0pZxEhIiiOViw0NEolSIzDvcvdEhcn4ftKfwpOyZQ2qff8A4y+BK3culin9iWI9ETryLajguVo3pshPew0Q6GP+YlnEiRIoXcYyRURNFN+IT2Ll7H4fB2cn1+FiPlsvZQkXuv2L/wCDrnNtR5J4vpAU5OrJv0FdmncsN5PgqrTMhuigvGjGu+JlkiMWIjYTQu48mTJi5FwRZSpurUS6EYqMVH4VRaoNC8lihWVtL/4uxcZVa0Kf3JynVe/Bwf7kvsQeTJFyW5iaTtqKTKPmRXf608o2G9ySgo7MuXFOf8iliqnXcp1oVPuWysSRMnlDjLA09NO/dnKu6zXaafQ14mP/AJEcZbapGxGcJ+V9yrTcJX+kuvQu/pmKtVXNmfmJeiO2n6jqVH9Zef8A90hXf1EWpfGf+XcorloniqEfqH+IQ6RZ+eqdIH52r/EWNn/AWPp/UmiOIpS+o29e5WxMYbR5PFLxSytsf7kvsQzsadQ/CVZXiR5MMrlb5s8kKI3lcTIs1SvdMp4yS8x+bgSxJ+YHUTJ5RXhRQhqnYSskslnWoxqr3HrpO0v/AJHpkt9zstO9OVinipJ6aiOVla6sToOP2ODWeBkkkuTtbCqI1u5Sr2YndX/4DKcY+ZlTHx/21cliMRLrYd35pXFGPSOVu5oQtceJMVeuvqPzdb0JYitJehYvsJiP9yeTkaiQpDJcM6mFnpdjEfOn9xFiKFlZG1hfccfcXtk7nQQ3lDgwNHfUMRHuSipKzRUoTpbx3RF34GlJWaL16fldz83W/wDtjniZ/UkeL/7hUpTn/uHYVor1NU7eVikxyjLoWsJtMTuUcRKGz4IzUuP897lbGb6aXI4t71J/0Xt5VlZZLuXE8lky3cj8yediUh8ZVGLkw/zImMVsTMiISHsy2TZdFrswtFKN2Vo6auX9F16EtBHkpptpFKOimkMQjta1OvL0KdaE1z/XcrYf6oHaOPniztIeo7PqaF6slCXSQ51oixU+pHERZOlCavF7j25NRyabESlWcGVcbVhwkYfHqrtJZSnCHmaJ4+n9KuLF1pfQKvV9EOvX/jcWLl9dNkcVSl1t/lMVXdSfZwe3USjTjtu/U5zt3b5J2HIXduR5Ieef3HlPJ5TYijtY/Eo2xF/YQhE43N4l0O2VDD33ZHgxa6ljxF5EiHKMHht1KSLjEdCtJqopDp/VB7lHGW2qbCmpGxcq1aS8xUqJvw0SUavSNiKxKI1a6+kdR9YjouW5oafAvYkaUxmp5XYm2W0vVEjiMVVVo7Cwt3epO4lTh5Y92UIS6CVWHlkLFteeBCrTnxL/ACFeeik2R/8A2+7cuXytlFbHU69y+cCD8U/vlexLc4WUiXIiJ+KQ+XMREQo3Hh7n5Q/KEMLFcjaWyEzEK8cmy4zDQ1VoiVoqOccq1G9yDs9PoSipcmmpHaMiNecNpIeKb8kRRUXqluxzl0HqIxduRxa6kri1epv1Q4JjTibl0zTnGRcwi2fc8Pc3ydJcxdmRxFSn8xbEZwmrp/47Hv8ARiLn+u5a+TEu5fJPJli2aKfM/uNnJpHlUJEFsdp0JwlVwjv0ERIkRZahts0kUirAlQ1cEqco85/hdO9W4y42RylwVsP9cSMtRbJv0ErliXshKp6mn3JRIosOmSgxo0Glm5YSJRKStDuWLdx5XvydnKPipv8AopYiM9ns/wBnKvBcK5KtWIYl38SFOD6l/wBt+ITj4IJiy5ESLkUWGXL5XExNGo1GouRkXKP1/c5FEbykTY88HeUnF9TE0+yryQiBEWSjsTTTJSqlKbsTqogyaT6FSmhn4ZR00tWWm3BJ3IiOhErYXfVT5N15otHh/kI3y2NSNSLmxaXRl6hri+ScVbYUSzLGg0WKdO/PxU7FWmp7x2ZQrS8s+SPx5TUSdT1O2t0Nc30LX5HH0YnUXEhYiX1CrEal/wBno6t3EVHsQYhliL3JMRLuovm2XIyKXEv/AGIy2G9i5ckVEOOkeVGbjVR+IU1VgqkenIiJTYxFx7nZmhoktyNrDkVGUabqVUiEVGEY5XOosm9ikOSiVq+rbSRhFFy43lc3Y9SIt57GiA6PozTM7OfodnIVP1yuPO+Vi6XU1xb2fdRVj1XJQnqXxpSsSq9Fyffkt6jmi9zcWxycG5GtNEK4pxfXK69TXD1O1p+p2sPU7amKUHw/g6VYa3KomPOxbKRY0iGi2TZGTOpcRS4l/wCwpWZOTYsmxu6H3MNUpunKMjEUnSqezI8FIn5bn5j0RGdR9DXUFOXodohuLLlyZ+HYe3jYsmyL3L5S4O00+UlK/LyvkyxKdhuUjxrhn6r6iVb1I1Kq5RCoXzuajUX7tieIhA/NTfliNYmR+Vl1mQoxg813IPRUXxXcm77I4ON2Sm3wKAojgxe5a3A90JjWX9l5fyNPuzT7iWXhNPoyNWpH3IV4vnv7Dt6lWK23yjuu48kT1XIzl6kGJbknuMtlqyUik/A/uMt4RDZU8Vokti2TOhu34T8tUq0fGOEqcnFlJ7kd1YnR0O6KVWnd6iPYyhySpQ0InhoNFWhoRGTudDD0HVqexCOmJf3JVqa6jrxfBGpT9TtKfqPEWfhJ15SlY1sSLZJEmOWxHfLSKJYsOJC3qXXqXXrnsX9xuK6naU11HiaSJYl9EfrT6iw66kY6TtZrkVSD6iRpLd2qupSeqC+I7snKzaWUtU2KGk1JDlUkKclyK0kJ22OCSvwRlmti8maJeppn6nZ1PUtVRGq+uVkRqzp+5CpGotu7HB15+aViOBpfVuYunClWSjlF9xlh3HuSg+hGbiyNbVyWjIaNRFkomnKkvALJsjsr9Tg5eTGWbKFG0kRqwk7IxOGVRe5olTluRmNkoRlyPDfxY3iY/Ux4jFWHVrS8xTiuSFOdQVWhh42XJP8AEJ+hLFTkjVJkVIsJEmolJeK+SzZyVSCYo2L5rJiNMRxfqaKn8js6nuRp+pKkjsRUYmiHc1EqcJdDx0n7EJxmh5WzkrxZhH4Pt8StWjBWXIvXJWHuzSkavRHPTJ7l+huhxueIVxRHKMTU30NUkdrL0O2R4JDUoEZajfoanF3RRrKovfufmKX8hYijfzH4i49omRlcS37yJRWU4XRwUpPUVI9TYTLjNrFHyf2WGW0kYvzMkxIaHscshaJrMNaDvcVSPJOlCqrk6E4MTLo1jmiU0eKT4KeGdrz2Q8RGPhgVPFLYk+CxGJTiVFGKO0sRg5sSshLuSeXJTjlcWdzkRKrTjzIljqCH+JQ6I/6pL0P+qS/if9T/APEp/iMH5kfmKcuCL1F7M5Liy+5FqFRW69+Euyrr0l8Gw2lyVcT0gRi+ZDZuM4N3lrNhPOxpybFHLXE1xLRfQ02ycbbxFU9Rq/BqcZXKVRVI3z2vwSomJp3p7dBaoid1cT78hMmtxXiyMlp39Mow3JLJJ2KPlLGqEV6sXOqRObFk9iUmylRsrslHLp5h8eYwdbbSxokqLlYeE9z8k/UeCn6iwdOO85Hb4al5VdlXETqfY3EWEiCyqO5CF2JWEMWTex1KjsrEVkyxxncqV40+SpjZy8o5Slyy3eUpLqUsVYjXUi+SyZLi/oU564IYh5y8VWnHuNxjyx4mkup+YgfmoEsZTXB29efsSl0ciCsNiNzjKUxajSJFu5/eVxzfRGicuoqHudj7ijJdS8i+TgJE4GHqOE87DZH09TEU+xn/AOLI1HB2FI1mqJHfuSymroZGTuaWXsPUyMfUd9OxHamhqT6i0xHksqsiglq3JSi+o0/UcWf0QhTfLIwpRkmmRkvUqUFKopIvGK3ZOvSivMipjK0m/EOc5cyeem5YghJCgS2G3chHJCz1o6lXeaIjL5OQzUyvW0LncnKUndv4cKjiUqty2V8rdDDPdrJEsrmEWpym+R+5UxcI8bjrVp8bHZ38zbFCC6IuPcVNIqVOkSnC27LiiaSxbcqS9CMPU4OR2it2VMfTjwS/Ep/Sh42u+p+Zr/yPzNf+QsXW/kRx0+pTxyZGtGRcchTWVkcF8mSKMtVOOdhGmNWLUivhJ0nxdCnpfBqiUk2/KS0pbDsJrKQipwdClBMckjxy4iRwtR8sWFh1OzhGnLboX0Rj75XyXJ0KkylScmdkh04mgaZuWYlL1PEvqZrlofjJTqPmQtKWVnkkRLK4oiRFsqzG7tFPeIhiyqT3sKHqJ2ZLzER52JPoVqypr3JNyd38WlOzKE7rfNcj5TKXzn3WKv2G1ipVqT5YkhSNRqN5CVkTbk7I091EnsRV3lYrYyNPaJUr1anXKxYsaTQWyhWtyUsTbki1JXRZGj0ZeS5E0y2TJGCd01mhLK/rwVIwrO0Y/wBipUqSHU9C8uppReKNVxiJ7kcLtyQw0PUVKHoaTqXKnkl9iXEPsPgtkluTl0KcdTN1wb+pcuNFi/8A4jb9DVI3NJYtkoR9RopwuKkOlsRg+pNqKJyI+KSIrSiPIxZVPNlNbiImoWVNkndyl0RVnrn3dJoNDNPfw9Uvddyn8591laOqmR3WXQ6CVxK2xKXRCWmIslksqhwssVi7eGI23zlGncjRFROxQqMTs4+g6MWVMPbjKE9DKNW24ndXyaLaWbZMZhJaalskiKOSU4U+Rudb2iNqCsiW+WocrjWdyjSbldl+hFIc7MuxIRV+XI/j9iSyudCRTVo8Dv6G3uWp+5an6nh9ROkhuHqTsKFzspHZSY6bI0WKgKgQofyIqmvQcoeqNa9RzJLUSW5QXjyjyPnOqdB5dBDFNWFLYxNTRS0+os1EURQNBpNBKBbJ503aRSleOVsqHzJdyx1EJWlL7iLZQRUqaF7mHT8zJjeTdhXfQRffJmKr9nGw998oUyMRI0lixpHEaK9HqsqM2mYapbw5tXRCVnbORR3rxHk7LqVcZGG0eSlCVTx1OCdTayOTYbEh7DkLVLhHYX5ZGnCOUSJJb5IbMXK0NJH/APonxkhlCmn4mORcuXXoWj/E0Q/iaIfxNEfQ0Is/U0v1NPuKJHkuObHFv6hUPcVCBJU4rghIuVfMU5WmhCOuVia8BF7De+Vy+xfK5XnqqF8khISEixYsOJKA427uHkI6DZhnvLudBkRU3Kox0Jrhl2tmIXJJ66hTXhJPxZMqF/Cj3EMbsr+hXqa6jYkRRBEUJFixYsNGklAr07PKlPZP0IS1QWdReNZXJH4fC7lPKeO/if8Ac1vZEMNTp7vdkp3zZclM8cuEQprqJZWE3cbI7LuIk9bnJjjaEfsNeERFDIbLv3ysWLd/xepqdjVqkSdxLcrx8Qyk9VNCzRPysXGSy6DiNbD+XJnV5IQiKNJpLFiw0TiSXcwzEIlwYbyZPLplOWiFyhP1FNE1Ca9xR0lTZMhyiPlPqJZSPpIvJmOqaYW9cokERREQslnYaK8LxyoPexhn0zrdBPwDLbGGqdnPT0yhSpQ6Dqeg2bsUS9hzNM58Ijh4rke3BBCQ3YdQ12Kby5ykVq0aat1G/APyx+xbYltULlOBt8JdyTsQkpdzoLzM9zVuT3Q1sYOW1u7U8p0FySjpQmX2y+ox6VPCr3zjEUGzsGaJxKUrljSaBxGSJruYdnplN7FHyHQW51GJFV9pWt0QtjUay5W4sR8xSfgF5iQxl9iGVkY2pqq5QRAiITF3WNkldFRWkym7SKL/AFM63BT3gSjsLgZSlqpQfsbstYZ2sEdpOXlRHDzlyyNCMTYuiRqUUSql28lG5FWF3KtLXUvckrQK0nCnH7FOV4JlSN5bFKn65WLGxeJria4muHqa6fqOrA/MRO3XoKsmax1oolVRBtSuuDlZPg1aqUjR+khR8JYkTKMtMhPUr9yXA4kUTd8tRG5bxW9z8V2hTjkhEUJZeVkXfKUlEdamOz4JEiWdE+iJEmU9kh+Qprc6jOFIprlml2LFhkt6iF52UXyj6iQzoNeAiXH5ZSJu85ZQImtI7SXQ1VRVahSrCeVSpYlUqM01WLXDkrecgim94vOp5SltEqcZephV/wBvTHKK6naOXlRKlNrdkMLEUYx4WUpm5YcifuckYNip2IUzRncuSpxkVKHh8xok4W03Vi0o7aRf+p2j6UzVV/ifqs7L1mRpQHoXQcl6EtT6Dpz9DTL0LljSOKj1I1SpaSF8s3USPC+xGXjsVWKMlt6iV9js0itHREUrkr3IWU/uU5WlpzZcdiSQ00Se5BJ8skLVq+x+Ky1Th9skhCcl0Izvysqv3Ia/5Cqzj5hzjJEqV+EPXA1XGSzokvlx+2UVqmR5SKnoU/KPKs1Gm/cpytHgvI3Nfqsv9w/3GUX4iXIyRHeLL2RCG1xGI2w1TOCyp0r8kYxXQvEkoFtLISGye5HSKSJeIrx01DVsU/LEi9sqjsQ4iVHvlGPaTUS1kkuhHDR6igl0JWJTQ5PJ3Ohf0IrccXJkVBCt6naQQuLjysS2LjkypPwDqPRFHaMUjULcsXLM7M1Ri+DVlLc7FEqa9Rx9BUxq3QpyXVEt+Ftk5JIiurJRnyU3dltIpP1MV5CFNWKtL9PJVPEmRepdxj2NTJ8kXuVvLGS4MLNdvZn4t/qiKIooQhI7E0xuKBNXqCjZD3diMNHQuP3KkLPYkSzo8kvlRERKe255mS2jlErvXUUVwi9tjUKRN5Pkl5yBLhPKXBAmRb02EtjHTth7ZRQiES9iVYddkZtoTuiLsaich1bMhWkU6lzGLxJlilwQ4WVflEdkNnQwdO0dXrlKVuC7Yy+5Nqxdk/KW2LEdkWIRNK9DRD0Gx5XG7liaZUXhEvChUzTEb9EJyNynC5pHpJ8iNReTNxUrmhR6EaLfJUokaCSJKMadiFBSW7HCMetzzMqT20lONty6NipHURp2H5StHSyW0jDSuias87bEiSJiFV/T0Mw3zYn4p/qiJCIoyW6PzE7WaHW9jXOZCnYkRi+1JQma5p7ouVOCa2zbKBK3ZRXtlFbESJORYqz0Q25KUNKu+WbHhNs5LgnG6Kb3I8C4yeeox78EcokCHA4NnYHYwOz9DTbKHBKNzsEz8vEjTcJGKXgWVIjwRKivVQzQPy/2U1phFZWuOyJzGy4ixdZcigQiXNRzluzjJs5Ki8BF7LJMv7CcRFzdjgyUclFZbdRS9ERROU/pQoW8w6q6GipNjioLdlpz4Py8rEKIqZoRpFGxIfBVjdFaOlmGlwT8qzgypsyZItuS2MPL9SP3PxP/AFJAghWG0SaZTlHUaVYqEXpmmXTJRTHHS/Ym9is8nlh+V9zER2j9iPOURcZSloVy05vUafVm2TN8pL9MpPgnHTVXoJnU6kkO2UfEfiaSpwyjyQIiRpNOUyxTifUKxpQ4leN6bJFLoLhESK8WX0MS1V4R9M2ybuKMmKkNCTQ3JihsRh4hISOTbupDyuVfJ/Ytkixsic10IPYSWVxyOzcjsBUkdnFDpRYoRj0yqVVHgWuoRpxjyOt/EW/mFJHibNkjtF0HOR2kvQ7X2GxjK8CntNCd4LNk9xDOw109S6EinFpqXufiG9VMgQHIlIUbnZWZrkkKeo06kQlbZliUCvpRU7mEjecTFPe3oUlvlA6HQm9c/ZZMub5PKDumiPhbRU8VO/oQd0dC5MauhkWtR+I706eUSBEiIsSsSd2LZkGPkSEhlReCR1KfnjkrF+cmzBw89R53cjSi6StYRpNB2aNolJXLZcIsMZyWLZaDSit5f7LDdh3YqR7EUXORWL5XsaxNZyVMbiug5XIr0NHqKKR2qPN1LWEWFHYay5KnGxKLTKVS23ckSRuYKT1WZ+IUVHxIo1ox8LR+IR+WymLZEpGtEJFyyNCuLY0RmOnOPEyWrrImS5Hn+HQvURi7XZBbEdyOU5WiJDdjUajWzXnHkn5iPy6n2KMuguMpcCY3yPaRi96VMsJFMiRLjkN3LM0TvyRbN7moUhlfamxeYw0dVZEfMSZTyleb0IjFQilm4xNO5bO5KRCOoSSWxbLk4HIV5Mt3HbKr5P7LGk0XNIojdjc2LizaFsiVV/Sj9WQiWUZ6RyHOTFH1FEsbniL9xcmI5E9kUZalkxjW2VOXZzuYmt2kNKQl41cx8f0abKSKm0Ru7KVG6IYU7OaO0FK+UWXKhUOo8lyfhsPMzEzvVsK9jhERFRty2LzNJpRZEu4iRT+UyPmE9hDGXKnQxlO1GmWaypiIl87GkUBoZB5Yx2pkeTAx8UpEXa5qID9CjS0LfnubnXOQ9MFeTG6teXh2iUqXZxKleFNbso4jtBySHUHO4oiW2VhjHuyMdit5P7yS7mxq3Ns28rEjYuXL5poioGw5Iuahy7jLbkkmmX0soT8ZIeTRIfigQqyhNehiKNOolUiOXa4Zr0MOtysxOMWQxsI9CljqEkaqWnklSgyT0VDoIbJMqs650+Sh+lhL9S95i2RyRJbIXqJdyyNIyzOmUfljViDuiPGUuR7MvsV3rw/2OR7FM6EBjqxRrbLTIqZep6GqXoKcXsdcsdLhEV1MP4aP3OhEvYoU7LVLu2JcnXLe2wsM5u85F401sh1a8toxFgnLebuRpKC9CMdXU7MUO6+CRCOWIfh/vJscjxGkYoeo6nRC4uyVboimpPkTGT1DkJ36lhvSeJkKF/MKlEcYLkco9Cxb3OTQjSiw4Fs61P0KbtNGpIsWuIq09hKyKkOph6iScZGHivHH1IrRUkioxxjIp4el1P8Ap9F8Mq4KvBbSujDV5w8MjEWdmil5MpMkybuWJbCMLT1SiYm0IRiRV6hPgiUytLwCWxq9BG3qXj6jky8sugvKWI+VjKfNhbSsPYkS5Hcpy1QqQfoOppFO7KfIuCnyNbFWj4rkJabEK8LlOrSFOlYlKmdnJ1bojHYZiJaqrILY06YQXsewjDw1y70atOa5LGgtY6iSHpirspS1bjn4rE6U5veWxTUYxssqlaMPdmqpJ3nLSh4qn5Y7spwfMucmy2dfyr75clsnb1LolqmKlZjhcVOC6ZqxdDjF9DsUaJX2OzYklk6kuiNMuokSnbqdtC/JriajVE1RNUP5G3rm0VYaeCm+1pe5Qq76JHBJPk5iS2JeUkzC1afZr1MXG0r5aCF49BSQ6j9SrBSd+pTpepGKJsbKrLFioLc/D4fX6FaprqkNmN3ZBC2RX5UTdi2LnIki2cC2x1L+CxHzEn4x+JXE7olyaLkrooP9aJjIOFaSEQZTeS4Jo0mkWk8JYgrZVp6YNj3Zh4aqkV6FR3kRj1IbmHhph3lThLrZiqVKT8W6ITjOPhY4jWU26tTSuBvStESELK5KerZC8KWWJrUqK9ZH62ImYbCRoq75zedivwvuc5O40xU/UUEaS0Y5M3YolkeH1Lx9TXE7T0QtyUkjtEOt6I3KtfSrRFSq1OWRoU4loI03FTXUtA0RNKLGkktiUNURN0mOXj1FOpdHsLwysVYliTMO3rMRDXSI+hFGlHZjpGggiTsichsk7vLgk9ygney6mnsqKj1YvMzqRjdkC+43eTeaVz7GyL56jXtnEZSnY4ZPdl7FQi90z8Tp3jCoIiUpCIsZbK3saclljKv0kXqf2MJHTCUxcjlsYeG/fex2m3iJtUnGcH/QvFFP1JRKiclY7PTHbllOmok5t7IjFQV3lXxCpR23kRw1avPVIpUYUopLLdiWVsmyrxH795I1DNT+kjH1JOy2NVUtUZ2cvUVE7MsMZuy25Wq226lKk3u0NHZ+5pgi9y1y1stjUi5PKrBNE04lKpYjV3JvqPdDXiKljBrVMlHYxFPTO5TsKKGNli9ichsnLOUhcmAob6nwYqtKVSxTlzce5ThaJwVZaY+7EhIsMbIo4G79xDI8DIkWMlySKfnROmquHlH0NLjNrKEiExMuLJWLItlXrKEfck77lKF7RXUqwVOnCAkcyRSjpXfkPxSjH3PyVJdTZbDZckyPJpKk97EFfcVKCd7CODkWVxvKxX+n7jHViLcsKQ5DZZishSHuKBsbGslVQ6xeTyRPbZclHDLzTJT9ByI3ZpNjUki47m5pmaagozH9iotiULocbCkUqqYmSGtjCTVOTudptdcFWnriSvSmQrmu42hyHMcirPYhJ3HPJmFoObNGiKiita+5Ypl7l7biWuWpmlISyvcS3JSUEXbysWLZMgM6lxSJDH4TCPZuXU/EcNpqa1w8rEWyMxTI1DWdodoakVsZFcEpSqO7Efh2HvLW+hXlqqF7IoxvIS77ktJe1WP3H3O0UpWR1G7blKOpuT6nGXHc5ysbZV3vD7k25bEaVuS6RdvKUsrkpWE2KQ5iFYcoXLUzwehoj6lmKMiNNJ3ZKZoIrVIVhvoaWW9Wa49BQvyaV3XH1Km3Q0+xUpl2inUvlUh1ywtZ+QV+piaKnElrpS3I1ztjtDWORN3Z1Opco0ZTkYagqceCo7Epap5RWU5ubsuC+1i42XYlYWyG9TFksmPjKLH3ZIbuKrJLSWVagovkq0nTm1mhCRub5VpWpvJGHoupNIemjR0k9hRbdzDR3+BeElZdCEL1DohvTuRnfcq6rbFGmoffKu9tPqRVrZcdyw+42yrfVD7lkhs0+o5+g5Ms2QpnZ2GkaBqxpEOLHRlfk0P1Le+SXcqz6IpxsiW2U63RCjKZGMIGq/c3HsTnZCTe7GjQydC/BZwZSq+pLglGwvBNMUtUUxlfDqouCrh503wXN8pcZ2uUMJOTKOHVNE56EVXrp7ZQRtElJzYlZCWcY5VZZJZIcsmx52zllJblGCvdlGpG7RicPrRKDi7ZIiJFs8Q/AWKVJydrGGoxoU79SrPXq3KdPVI7JMhBRXwPysOyt1KNCV9Tyqxc7R6CS4Hn5qn27yyQ8rZV3vAaLJEncUTTcUbFyUmRRwOxrLmoeoszQWSNRfKWyKcdUrsR5mTl0RGnuX0rY0t8kVYZcRKSRKpJ8EKfWWUYdST9h2KlLUOLiyDZKKZa0tyjinHkjVjPgxFTRHYhWhUXiRUwMJ7xHhKkTs5LoTjP+IqVT+JTwVSXJRwUIkIRjxlVl6km/pexCFzjylvUjG5ZZNCjk591sSH3eo8nlyRmkU1PVdC4K+GUypSlBiIsTLlyTK25Rw0pvgpUIUUVqlob+hFOUinGxFZX797keMpCLDm3W0j4KfqIY3udM+SWyIq5PYciLKvnpjytm2OoheJ5NnOVixY2LkhFjgl4iJI5yitsksmWGTnqZThlHYYy8DT1Jx19CEXF2Y9irG+4lYp1FCV0Vas9tSKlOCpqaML2l/YnUpx5EoSVzRBc2NVISjbYRuic4wV2VG5y52IR9cvsKBsjnKWyG7F8ktz6h8F9jl5N59mO0UIeTyZYo1IkJasp04TKuBf0nY1IdC7QpjkdlVl0KeC38QowgvsU63ayfojFNynpRRo6SKF8GezR0v7FOo2m/cpy1zn7C4HtGT9jC+OtKRLhkOMqs7FJdS2TES4FU2JSHIUip82mPLWXHMeqQqYthyHqZFCRsORqGblhI2G10Nzg3ZHctuXOg5ETjKvV+lFKn1LbZJZOrvZFrclxInG41c09CcdJpV7k6uuFpIw04zWiRiJdlHwolQnU0s/Lztsyps/EKd35SnVjBNir0ytXl0JScluJOxEUcrlsrWynG7NGUcuWPN5U1eROekvdkFuS5zWTQtijUkiErmtarZXgypGlIWHowV2a8PzYVWCjcjUUmYl6tNNEvDHTEhHxkVct8KSvYqu1JlGXQwu1aXuUZ6pVF6MxUtNCRgoWp6vUk7Ip8lSeiBBOo7lrLKxJ7FxyEWGjqifzqQxs3IoUC3ctlclU6REvUb9Dc0lpHZs0xQ/bK9zoLyj7i4PMyvU0RKcXJ3IxsicrFMuVKnQoUrLUyTyWTQ43Jwuhx0j5LehTqaoeIp4iN37CxN9ROumKs10G7mm3DFFiiT2RCOdixaxIuMfGXQuLZZI5zodWS3llHNkOLjysLY7Sa3uKpuKrt/Q5WQlumYirui9zVZbkKijuSqNy1FNORGmhL4b5MS/0ijsYJXlKXsUH/wBxL3MRDXDT7ijoppCV2LkqJ1JexBJbLJl1bJ5Ibz/3qX9jLGktlqSJzFdlspTsXb6iavsKNyyL5ORqkWkPwlnIUSXp3YIueVE26tQowshuyPPMSsirUsUo653JSsiO+S4z1LVbJy2ZaLHGwkrDjYWTQolhIvY92IsWyQyW5LbKXBY3Iqw2LLofVlxSOp1zSJiWyzR2eo7FlrM1uxexF36lTcj5R3kRptshQRCml8VytOxiF4BRf/6MKtMH9zXoquX/AJGrVpkS4K1bs2kUnqhcfBDkvlYsSEsluxosf79P7dzUSZbuNtjgaGyMIwNTLiWdxy2NN+Rv0FwRHnIh5CPJiJ2iYaPUk9irLaxh49SpKyuNtshHRAe4lZDFxlM7O+5LwwEthwLZpqx1yubiuWySySLly9xyscsWSQ8uuTJeXJbsqeWJ1I8kxEiw3m+ChDwXJwJ09x0GdkKn0HSshUmU8N6kaaQo/Gk/1kSIpWJLTHYlH9Kr/wCxQnpgyM1ONzEQvOLMPwVODVZnJwfc6ko3LEkIWUn+vEUncuSqCkzXFI1Nls3JI1XysaGJd5vLk4G8uBep9BAqx1SiKOklwPdkFaJiZ72KMNUslyMY3sahyIu5iHxEtaKJR2OzZpLFjTlcuRQomkbI5NmrYV2T2ViKyeV+4t2TllHkqZRHvEhyTYiWVjzTjES0xSy0GkcEjTc0Cjkvj0/HWv6DFIe6HDwVDDbqaMLUtOw4i2TOYlWT7UoPwZTlvY4LZWNKEx1BO+IX2NkNjTLMgoliw5WO0bygiw3m2IcsmxyQtzpkkWJu7sVHphY+g4SH50TJPwkFuSZV+YUo6KbZHykCRIlPdEVsMgrD8db7HXK4xjFlGmKKFm2RNRYtcXhRYeT7zdllYXJOV8kdGUupMXAxIbsjCUr+Nj7jRpLfsktGTdhMuYWNp1UeWp/+QmW3FwSpXmUV4Mr+NsirjHlOUVyyVadR7cEeCK/7j+hJF8mRQic0hJyZpUSKEXLjmJNlkhyN3lp1GhI4GxK+TZGCSuxrURV2N3l7HUm9zlESXBGlqqXK3CQvIRJFXZIh4pk3ZC3ZN6aZBbCJZMtlbJZok8lldkbJC3JPN5t91vO2xEj1E7MlyPgQi2upGK/sitCt+5kIxHQi/ChyIq1a/qTpf9x9yT0zt6i3RwzSIlwaRFzUTqqJKTmylTLEfny+xc6F2IvYlOQi9iOXlLNjFBF7HPckxLqyUhRbOMoxJjPKrHsX3L3ZayI8kuCnwc3OhEfBiXsjDLxFV7lJbmKqeLSQqnQkh9xGnubvKMe7c57z+A3cRc6kh8CG7IwVLmb7j/bMXBifpOES4uUp3Q1eUWYmPh1egnspD9c2S5HLY1E6qRJubIQFtwSqeKwn+vL7dy49RpyScixwMuI1Frjy2yaJS8JGF3vmo5NlON3cm7MXlY34SPJItZk+BP8ATL2OGIqz0srTuYbkqeYi9EHIctUm8qVToN7DGzfJM1ZXL5KIuB969h7/ABLZPK2SRCHa1NPQUdKS/dxZVjqcSaPVFN2IvqSV4P7FH5T9iL1QfsRq3XuXVhyKkvFYlwcmhGgsktydW+0SnS3uynH9ep9stJpLWybLiYsm8uhycKwxCRcuaR5IvkxS0xPMx8Dd2Q8xyyXnJj8pLhCHKyHPVuLcp7Mqx8ZXltGBJaXnGWoiSWdixfNFy9jUXGLJj+Iu5YlsRROXoYSj2cLvl/u/Q6lvESJxHsUZXEynK0pL3IeCu10ZNdniPZlN7uLJK2xKneVyysSjZm5uSpyl1FSjEiiC/Vql7CGSmkOqXkyEBRLmpstmpIuNkU++h5zZEnIiQ5I5M6jWwi2qLQ46YspojyTL66lyohcZcboUr7mrPcu8tSJSRqL9xZN7F/jN52UUJXZKVkYWjrep/vIcWyuPgflJIpSsyMi/6hVXlfuV4qSXqTjtCY97HBc2ZpRZGxyJWIT/AFqxCm275SiycBUWyFOxYtsWLZb5REW7qyuN5RLXLbl0i92dCC3GSyWXUvuVS1kQ5MTLTAhwM4Y8vsRkrbmuN+SOl9ctixpGs0iwhcjPp+Fa0Mlt3UN6jhFGhKrK/QjFRVl+843LkXvl0GhqzKL3H5rMg9ScWTi3H7FGu14Jjv0JKRCUepe+djgk5PgoK1WsXmxIeXQXcsOJpNAonHcRYQ3nHJvKTvsRWwynkluMWU81uyPmK0tdTJkuCPpkssHThOclIlgF9Mh4etEeuPMRSiXYywlkkfW0JZS+Ch8C7+r0KOElPeYkoqy+Hx+ysI+nJMa5IvdoXhZPfccnBqRGSlDUjE0brVEoYu20ug5wkrrPWNZWOChvUq5OZvm3nbuX+BfuKSNycslkonBqE0SYppI1vLqSWwiTsJdyS0u48kYV6cT989uqJYelLoSwX8ZE6deHQVT1ixSh6m2VZNNSI7jJSvk8n3Fzk3k+49iEJ1XsijhY093yX/fyQuBC5Kj02ZPm4ynuicdjDVNEtL4Y1uYmnonf1KU3ETUslzmmWMO0pVRy1cCRYsWNJpztmxd6+bEbXHLYbu81le+bYlnbfKP8i2uQ9nnYkiL6FyA/DOMhbxT9u86dOXMR4Kix4BdJDwVX+ZiMPUp07tmHmnFDRJ7iH3Ocol98ku5ayuUabrT9iEVBWX+BZEezyrK9Mg9UMouxe5UjZkJ66d+qMRDXAXhZr3uQepFy9jXdCmO/QwsPmX9TTbK45ibzuajUzfu2Gsr5JDLDym8llFDysywyOV8mTfRHlXefhkMXJUV4mFnqoRF8HHfJKfhSNWqI+e70Fla0ckN5KOwojcqs9EOClTjThb4y5/Zp2YxEsuSirTmj6h8ESSuilLS7Ht0MVS3uRZCpbc5WpGoUsrlB+GX3NbHUPExQz1ZbDYsrDQkKxJ5pZt5NjZcW4oWybFmsriHc1ESe/eaujpl9LPw2XglEXwfxD5KKcdVMhGxUQsmIeXUlISzjElUjErTm7RXUwdBUqd3y/jr9nNEZZSdhcXOGONnck/ES2RCdxS6EluQlqp/YqeOBOOlikynWcfsOpEVSn6jmrNmHr69RQfhf3Za4orLXH1HX/iiLqMSeTYlkr5JD0ja6FmWEiTsajVcUWTkSkXIx1CikPJLuMbIm0Vc1ubLZvuWyas8kYDapIXwfxH5SMPwalcnlceSyYi43sKVkTnfYp0NtcuhhaXaVO0a2/YLuW/YWEVeCEts60RbofhmOXAvFEg+zqexw/ZmKp9c7mmNr3FCfQ8n0kZvsXZ73ZRnOMPFI7bY7TV1PARlD1E/Yuy2TmR9WU62qTiy+5fcl5slLYW4ieVxJvkqSsORCOpitFCGyK7txIRNai1ltlfN9x8k8oFDw4j7/AAvxH5cSLsSEW7zNRfKN5cFPDr6ifjkqcSEYwjpXT9gv2jZcbuhIWU0cFaPUjvEpT0zsVY3RRlq8D/of8WVI6ZdzA1F2ulkqNP8AiUMFCcZP3Y/w6/DJ/h9ZcMdCtHmJpfW5xwyFSZTlflFkOUfUdWBKskKr+pcgcmksahPwm6mT3FG4oWKk9iUiO7LqJGVzUWy5ybsar5XLlrZNiyfc6kiXAuBCfjpv4X4j8uIi2byiiQkMsdNiFCc/YjBQRN6YXMLTtHU+X+xX7NeJXJIQ9ixEaHvEfJISsVV9RTlqpkvBLUTeuCmv7MRLfuRlpmpClqpX9jC/Lf8A7PP+h06cuYk8BRlwP8OkvLMdHFQ9yVWr9UWdoh2fU0r1NC9TCNShbqPY1DeSfhysa1EcrlWRdspx0osyEcllsiVQ8U2eGJqEmvMM5ykiIy3dkdBCOkfYg7xXwfxHyIXBcYh5Xyb2yVihFaMlyfNrKK4X+Foq14klk1dD4IckhdSW0i5E06tjD+HYqooS3cX1MTT0/wBZrLBzvhvsYb5f9v4DjF8oeHoP6R4Kh6H5CkfkIepQjoxLiiSG7EpCWxHKc3kyaZTp23Y/EKJf0EIlNIcmzQSlpVkL1Zhqcqk9T4KtONSNhXi9LyY2XL3yeaJCH58vpKHyo/Bx/wAkivCiKHzk87EhcEN3YtZDJ+Cn7mFpaIX6vJ/4OMrSGdRbFtjjc5RExXmIbnDG7O4+jJ7xuX3uTh21L3Grdz8PqeGUTDfK/t/FTtjhk0SQ09JC5ckty1hjLXNonJpEyUrIfiZGKJyRbqU71qmlcEIqEFFZYijrWpckWWJoZHJ89zqWKiyjwzBu9L4OP+QQ8iy69yI2csZQj4rjI7u5FdrW9l/hnaW6Iskhb5PggPkq01MvolYfFx8EX4RPYltIoz02MXR0Sv0fcw0rNmCnem18WtHVjRVKkPDIk8m+48ucrepcQ2oob1CRdz4HohyyTlIwdBU6d3y+5iKWl64iaauNDIrKQh9yovCLylMwP1L4P4j8kp+Rd3oR4JjWVKNokiT0UmYWGmHu/wBmv2eGqOMuzkQGjgTGRlpqWyZiKXVFOXQXUXGVWPBTex82lpKkHCVs07f/AAfh9Tj4tXbGomN5LLbJ7kokIj0ocriRexbUaS0mTqKG0eSEW/FIwtLtal+i7rV0Tg6U/Z5TQtspESWbH5GQ8pHoYLzy+D+JP9JEPLEkdM2cI5Y2U4XaHykfUSXaVYxOP2a/Z4ml/uQ6FOd4KSKctURrJblSPXqhSuk+p0GticNEi+5FjRe8bENrlOVmYuHXuYSromkdE/iYn/VU2TGdBLOxHKUkN3IpIc9KNWoi8p1vpiKO403sihT7Kml3qkFUjZm9OWmQxotsS5Iku59LIdSPQwfzZD+B+J/QhcIlydO5I6EI73ILSrkFzJi4cjCq7lP/AA+ErryS4IU+zbS4ZDZ5WyfJ5JESRKOtWHG2xFiZbKTs7k/HTTK0dLEdDjSzDz10IP4mLX6lJkyXJqOmSGRJzOS2VR6mU46mScKa5J1Z1PZFrIiYOGubl0XwMRQ7WPuQk09EsuhJESWaH5SJAwfzJD+BjfFWihnUlnEkdClG7JcaSfCRU4jBdSlDRBR/w8ZOLMLU1xJ87ckXtl0I7omiDsyWU46jh2I8C4OpVRh5+FwK0fD9sujH5Efhs709PxMb9BLyjLHTNiJRFEYxRK3hsPzZN3ZJbKPVmHp9nSivg4igpxuuSHiXujoMXI+4/KIXBgOJP4NR6sSxnUlkhEhvw2KUbRQubl7ty9DDx1S1v98ufhSjplpZharp1EYl20Vo8FOalC+cnpnfoyQ11HwQ9Dhk47kWJjQ9yn4ahNc+5Y6Mm/Cj8Ln47fExvkRP5cS+5Hkvl0JERlmaCwmm7Ixj/USFaw3sUV1MLDta9+i+HD5kyWSHmiXlYuB+UwKtR+DzUk/fKWTFkuSlHVU+2T8pNWil6lOOmCX+I/EsH9ccsNV7Sm6Uv6MPdU5R9DXqV/QhK5Jao2ISs3EYi1mVOblhojyMY/MTf6ZJXuPhj4X2MA7VfiYz5Jf9GH2GQ82dh8iySKjsNkZaU2TleVyKuM4gl6mEpdnS+/w/9yZLuMQir5CHBPixQjppR+BLyy+xT+r7iJZMTGz6DDx00y51PNXivT9r1/aNKSszHYN0p6o8GqzTRh5KcdRGeitOJTewmV52qRKUtcbiGSV0ItuW3HwWJLxFrxsPZpEuGPyowztMjLVCL9vh4r5MinvQgMprxDe+V9hbvJ7s6E92SJRUaZJ3YpWRBGGh2tb2XwXn/uTJ9zplErfLI8ISvOJ0XwH5X9iHmmvfKWUhZfxXucRQhGGWqtN/tev7WrTVSLTMXhHSd0YXEdnOxioeNVI8MoVdM9LOYmJeuK9UYKXTuTOdyXJ0JnLyxC3f3J8EvLEovxmFd6K9vh1/kyKHyh8kOp1GMiW5ZTj1JSEtydtRiam2kRI4iYGnpp39fif7k/uSOmSOmUTEPwpHQw0b1fhTWnES9zqS5yYsoK9VEuURe7HwzCLwN+r/AMXWpqS4MVh+ylq6GGq6o9nIxNPTpkjDz1wMQ3GsylPRNMUtW50y5RD0JoRNEIkeSUb3JdfuPdF7M/DqmqD+HW+XIw7/AE39zqLKT2PpuROR7ZarIW2qTJPXNiRyy2qpGJFaYRXdTLl+50OsvuTOmSziV+Y5YJeOUvhY+NpxqF77j57tH5pzIp+eRPySMOrUl/jMRQUk0VYToTKVaNWnokYddnPSfiUN41EUpdDDyvTIcDRc+vKxYUbHG56lfZ/3kz8Il42vh1flyMP5ZEc5bk9oEfKR4JvK2oxT0U1EjlTjdmDp6q9/iS8rI+aX3Kg+MmIREqfMywkdNL4WJp66Mii/Db0Hz3FyYXerIXUg/Eyfyyn5I/4zkxWGjVi/UlCeHqFOvwyaVWi0aXTk16Mws97FPnKQyPGcjkezsYtcfcY0fhjtibfDrfKkUPLIjmvMT3eUpbj3YymktzEz11c6W0LmBhaLl6/EqO1OX2KfNyW43kxLYihD3kcziiK0xj7fC9fsSWivJD7kTBcyH5WIn8tfcj5V/jWjE4ZVUOE6MtLWxQr6GvQxFNS8SKW1Q9zoMkQyRMRUXiMZwvuhjMB/q6Y+fhYj5bKXkZHjJCVhci5KmSjcxU+zp2Ka65WuQhKTjAUVCKj3793Gy00WR8qOncQkN2RDdlBXxHxMWrYkku50MHC0SflZHhE/JH7i8q/x0kVqKlyipQlHgw7coSixq0/7IO8RM6ZIjlPKp5DF/LX3WUjAx/XpsfwsW7Uyn8tFvCIiT4FwR4JZQMXPtatvQtpiIpx3MNTS8XxfxCV9McrkmIZDKrwQ2RgI6qs5fExf+qRNbZS4yZSVoIqeQS4J8R+4uF/j5RuTgVIuHiQnqKflyuMYsnvlP5bMUvAvuSHwYKPioj+Fj34F9yC8MfsdBCOWM6EmLgqvs6JT38RMhEXJCOmC+LiPFV+x1yYsooZU6D2ifh8bUm/iVt8UyXlEiXGS+ZHKp5V9yxU+j7np+1X7toq0tmVLwmYWepEuD0H3GIflMX5f7JHNjA+eKHz8L8Q+j7kemUOWX2ELknsLcijHzvJQIq0DqR2iYdXqLvsXdeyZfVKTESyijrm+Sp5TDR00I/Em715v3H5SJPKXH2KUrwQ+h6lXzUzp+zvkv3jV0VILXIwfMs2YiWmBCfhR9RIXGWM5SGRW8T8P89/h4/6BcLKPLEPgiTe5HkjsTeurJ+5J+EQkYT5/xcTLTSkR8giR0Ils1vInvKJBWhH7fDfEn7De7fuS8pHgqZ4fbwj4IlXz0/8AJ11atIwr5WSHwY3yoh8tHpkmIxj/AFIjKfJ+GrzfDxy8CZHyRyXOTYuCXJBD8jIcy+5UXBFEEYP50vi49+CKGvCIfPcsS4ZHZC3qQzXwavy5ZN7C4JZ03+ovsX3yqeen8d99fvcUv1EUXprs6lKV9QjGboo/LFwbsRAxUr4j+mdCB+HR/Sv8PFR1UWYZ3hlHPoPkgip5GQ5/snLVUI8iMEvFP4uN+ZBFQXeqcHQpfOh8St8mQsug84PxxPqGVfPT/bL97ivmRJf6kk9OlmGn+pVj7iK/kKK8GUeDqR4K3z5f2PyETCx00I/DtdWKK0VJR9yQh5N5R4JeRl7f/JCW7IDZgvLL4uK+fEq892+VXg6F7VYfDZV+VIj17yfBydCtzTF5V/ksS/1ojUfzNiv8t+xTlbEC4K3BBeBHQXB1H5P6H8x/2SKC1NEdoRXt8PqYqOmSkeaN8mXGR5PQqvwFR/8A8lMWWCX6fxazviib3yQhFh8E+mU/NF+5B3hH7fDn5GdX3l5SHlQyr5LkH4I/5LE/PMTLTiEyT1YZ/Yir1xeVFXkXCzXmZUdqUvsfWxmDjeUfi1oaqbKD2aHySewsoHUxHyyW7KPI9mPgwnyvh/cqY2nHaIm23LKNrZ9S2xpKkS0h2exRxNSltLgjiqMuopQf1fBflY/O+48ocMp+REie9Now0tVL7f5FGI/1BjV+oUN8L/RhYfrtsk7I5Ys4cmLdsPIXOWBj+ovYfxX4K79x8kxcHUiR5Ma7UxEcpGEf6XwkYus5S7OPAkkahItbKwkKQ5kpHTgsjYtD0LR6OxGdaPE7kcX/ACiSx1CJ/wBTp9Ij/FP/ABP+qP8AgS/EqnRH/UK5LF4h/URervQKVtBLKFTsJu/DH+IQ9BfiFP0FjKLPzNH+R21L+Z2lP+Rrh/I1Q/kj+y3+HRUf/cyMdEw+1FFCJXl4SmLLoUz8Ql4Usoco/D4+KT+NjdpRZcecSPmMe/CkUx+Y9Cf0lFWpr4Nh7Jn1yZccRKSyuXEzUMiORsWNJbfK5KMJdB09LLRPCjwl0NsirLuItlRq6GbSWxwTgqkbE6Eody5q9y79TxfyNdRfULEVl9QsdVQvxGXoL8QX8SONpM/NUfUjVpy4kWLf4DmrJlVauSHlI7IrFNFsnwQMfzE9SivEYCNqUvjY5eBHSPdpmPneUUiErDfjEPdIji6MEoyZ+fwv8j89hf5H57C/yPz+G/kP8Rw3qf8AU6PoP8Uh/Ef4nLpEljazYsfW4FU1Mss7Fsv7HKnHln5iPRH5h+g8RL0O1kdrIjWvk8kirbV9iFOdS9tkdlpe5/R/RYfcRfLYjUcSOIXU1x9TVBroThQfUdKHRnZM7CXoflnYdKa6Gqa+k1Fy/dV11Z2tVfWRxlZFLHp7SQnGXD/ey2iyHMifnZTGSI5MZAxnzDqyiUI2ox7916jqU/5oli8PH6j/AKjQH+JUCP4hh5CxVBvaRjPIh/SPgWUTiGxLe9zqdUIuV3+oxGlFjSWy0yI0mKCHAdxVTtY+52yJVvRHbSO0mXY7eneuQqyR2/sPEL+I6smPgjUlHYVn1y1exfLY7SKO2R2xGt7F087ZpZXsxO6ybS5G4exNpyLFjSzct3WiFWcOGUcf0mKUZLb93U+XIjsPzsgiWSyqeUjwR5ZXd5MtuUF+ormtJJGpWuOvG/mHjMOuZkvxSguET/FZ/TEljcVLqOdeX1M0z9WdkdkzsPcWHh6ipxi9ipVlaKJcofkIkyOVaGmp9zrlHgiYj5g8oMtFmkjpLZXLl7jiWNJZ52l6ChI0s0ljQOBpLZcipmkkstZrqepqn6mpl8rGk3Ey7KfiLM3y1I1I1FGcdHI6kP5DlTmipkixvlYtnYedDEzov2KVenVV1+wfwq7/AE2S4F5iPA+5X8hT4OkmT4/sprdiemaZPGfxRKtWl9Rpk+rOx9xUommB/XdVmLkaK3Q9C3gQiZAZWp66fuh8liHBEr/MNWUBZp95WOuVhJZvkYlk0XysJLOcbo0mk0mk0mkURRLFjSi2UJtHaDedixYWUIkoo09+2Vs4ynTleLMNiY1l7/sfzJCcZrbv4h7WKhHkjx3aq8K+4uCXy5DIfUadUzsbCisr95CHpQ5X6HoVPPEe0j6VlI6FhLYxNPTMhuLkRiY+LJIjHuq5v6ZXzaZHUJnU6ZSYrZWysIl3OhYcSz9DQzQWLdxlviLgWT70WSzaGQlKDujC4lVVZ85P4L57tGm4+KTMG/FJd+t8wrFLzd6fQ6E9qciXJD6heYcsrGld9DLkWTf6kSXJLyI1bouPguRMVTu7kYMprkS3MarNZJkXt3U7Gps8Qski2XDEXyllHNlxvuXLl85m/esWLFixbOxpNIlbKw+7YsWH3GMp1HSndFKrGrFNfHuYNeKXfqedk1cpQt3GIfJ0Kz/TJcilb/5Iu7HE0j+EyKJ+eIzmBbxRI+ZjLEEYydCEfEfmaa4PzPsU8VT+pGJr0qvBcvch9zVuRHnex2hqNy5fJwkxeHJDysXyfwLlxsb+LYt33m13X3Hnh6rozW+wpKS1fHw0bRb78vqIxuWHkxZM+kxHkiVI2YlyYfqXyZbvoaFlLlCFwW3I8jOgnZX9CvUdWpK7ysJ+o9srFPZ7miJYjY03HH3NJGEEeAkxdyTI8CLDRZlizyfdbyiPuWFEt3LFixb4T+Ao3GsmsnnhsS6bs+BNSV18X6Sj8td7oS6/cp8ZSy6iy65V/NEmvEephuoy3w1k+hDgXGUR8EeCq7UZn/8AuUsnwLktuS4KfCHzk+7EWTRYkU+MkWLDyt3LdzqMXfsW/aIZHNjH3MBOT2+L/8QAKxAAAwACAgICAgMAAwACAwAAAAERITEQQVFhIHEwgUCRoVCxwdHwYOHx/9oACAEBAAE/IeJ/E/1fJD62FsbxFobaI24xJFEYCK0NLljtk+0Y8of3wgcnRbykvEjGbWNAiL8r+DPxr8r/ACQgkPmE+M+LIT4QnM/Gxfm/3/JDvxgYzZ5Hh4LBPsqioaZ0djXwh3hfk2hvI5aHdo8hF3UOoEDF+iFoeh/YVNJrsn/Dv8MJyxflaIQ6+UJzP49+Y8lUt91mLPA5ayjEQ/w4NnojLdbr+E4SdH6E22GNvEVJ9GwQveA7ajJC132P6AN/8ql+GfJ8T+f0bNGX0D+C6LIvRtR1gQtjXoeWHJ3C4gnY1jBjiSGvoQYmeDuCSCxmYeArn7ZP+RX8VDX87aGjfFP4XJ2eh4JMlZnQ7ptj6IUKfBVcC/QprAwfZZBbUFyNgqpdl7umef8A8kbiPNj1Rk1VysId6GvCyxqKcoYZIs4Pa8F17YvicW44Gpg47ogVpp+DDvBqNBKz8dWPX5mT+XP5UJ/ER/lykf8AgaHhUWuMvi2NKEYoUyhiKop54l/gtifCtcEQ0NObxcKRwnJgMQ0JdixfiU0zKV8ue/8AhX/L7/jPI7ZB74wKjY29FSewYwVsRKZCnFtDGzFMoptF2PPFXC5kzwa/ITgyEjriZoyIS/FxoShv2JENfwi1+J/83TK3oe+F1ZJexeht+TZaUx2ISKN/Y4PMXJFJlfwNwX9N4Zt4MQkfzPPIfa4axjmzXiuB4o+MIYFIWGxQNIueIQh++N8f2sU38GdBtYOvJCeuYT8T/wCfhPhTejHAkC2IcsVzteAkp8Dcf6li5GGrIuRminEN47TizvZtjJhDGi0KzbRwJphsTeGE/Qa5zwH6DVGnEvDtDRfovgy3bExPimIp5Gg2oEumCptzXGyD7D2uheO9cCP/AOkNrqRDLLpehJymfpibiVeRNV+bQWuX/wAksmhX7Nvb8LJ39+ht0HlU7SFkYfRokK+kf7JGJZpm+i5mEZtZfA8TbHGFIiDQ4JYaoishpxaRftiXFSdpAeS0Ya0SrWBIxgsmQ5+GVeBu/oT+z7j2iwMT7kv6FwfHhKdmM3OhoSQ7A3gUcryKUTp6Y1e2i1MiX2v0YezDY0VKCVoxjTG4Ta4JQn/FMX407+JCOpSEXGsdaQduUf8AyAVsF7jxxLtHphRVP2dIf6EtaMhrBCdeX54lM2yL/MWODeJjvtkDcfqF/wBj7uf6xmIVETtHEtDalRpYyIuhDaiNrA28oj1gSYqirGNZQ2I5VR2ZghmzfOb9DSvpEbI/Z/dELIm8C7Zf2NMo+BJFLEiipmebRylL9iydz6ZdsMb5Iz4QGKdQqTYa+U/4JiX49fg/6MJNsIjFfIdthsNMIryJXYkobiwMVj4wEsaUMh8EJkWBPI9+obg8kp0tiGAWSSMsx83sjfIuBDqNEl6HUNS1SnQtAjXLLmIi0uBmy54lwpMtswn1y6M7U70Y8ifYaNHRTofgeFV5QnaVembrb9FegTWZm0TYthRtLCSvoK3iRlaE6gobHqj2QDM24jUVkqq0JKkI4c/o1UoY2SWl9ELPAHUzezD1leUa2hf8gs/S2fdIEmnkDyuxKGWUQkKXg8rB2DBgxXNE1DYzO/44IYItPAeEZ2Ln7Mnqyd5JzqdIfcUGDjHNKIwkQ4xksDwiPIhhavyyWOdE2DJ8bLRM+NNDm8XaDML7C6p4G1zTS0T6N+Bmq/Y66LJXA4kMbwsxAeSDR5QpxvI0qlkR0SnGN5qZGMSZHJiaKYSLszj9BVFmXke9lwXzk20sfbl4Y3jkvIv3E/O/wT+RP9tCxr7GN7giUWBhwZkvBoQshxicXgoxkgkzwPribiNUeJmQxaKUZZK1IafDzBTLGiYTLUuWluMgsDdmTHKezqqIlHgYQ6c3oW1tjHqLogyza8iaMTfkzRf0NPCIdm6xoMog3dl9DHsFeMMwWzajWjwNPJotRAe49M6HlkyJex+w2rgvKp7z6aHnV4kTVTyM6XE/hz+TL3sq30LgWhMpqNItsYhO9C0aG2qWFmJLhkMaFljRD3jmwhDwaQ2+CHQ2kCV2yMf+hxuOAnEONDeCdOsfRBYFpdh1EHoa7NH0PXWK9aMxAnkysdJZW0hCZw10LKsbU1/YpLBfo7CJSEuLE8cIteYx7QpMt+GQ0Q5Rn2Z90azfKEkMwmKE5cPJBcE4TwIaISJVwQ63djf8HC24jEuYZykkheJI0C5IeipbZPDJ/DfSBtPKNTCVYv6CJGC4XTwKBMYEyY1aP2PMgxxDQxLY3FdmQ2X9ybLghhD2NFwJWKpQ0xnBhIN0auBhjMTA3XCgwYSeK0N0yWGaoW5CuhYZossi70Z7p4KosCRDZHsOmoVq9kV8ceSutWRcZF+pPLKncGPoRDEnIHNZSZJEaH6hmTcMQ0MhQGvdD60X40eR1GT7FSz/AMOgkaepMfY1/NPQp8sc1X/RKYUavgJN4tOxRlTQwt9itpi92S6JPhPyqHlCuyP2MUZjaPTYm6MA9QmRMsNs7IXY8h/YhKcEpSjZfcjEIjNkGbOhCko2BZdHqnPJvzDP9D4LDxEC8UI9kNGhtY0NWQ6HBwIGsUWjpGsjpVFTx4rZJ2M6xFWdGa8mZSyUtD4ayOETxCE8hayJNaHWxv8AIi2J1xM9UvvApeRhKCTTNscNrhkuZHvKhSKsrpsmKhZMGWXQJKbyha/JCJpbFq5vMdbuXgJVkIYRXQXmitjCkNVVMcZYhrL4hV5RPqNe1OhFrHuNKE/A+4dI6GZM6D4fYqZEoxE17FeypRazKUjBF4GGW6E2Dq4O/wCRQEJqaRNV6MjBqsjSNHdMd98jw54hxmxIGzQN+h3tMT2w+wcWi8GKkO7B+Adhvp6NgoQJ5H7jdOzHPXN+D2ZHZoVadFU3mBJ2UfmC+g13IpkSswVmPHI1LxYxui7tr+xlNjxf3G7cTE95isTbZtkHaUE4x8YNpsX5HZRD2e/tkTxZfkcWmR7NBnezzmwmP0pbXQj3EXGIeSeGVrsU7Fsp8v7Err/SrsjdDRbEzcuBrMGdVa+WK0egiqLGvHFYijYLkTNGV/Aw2mKVLYyKSD5MmJRaMU6Ju0ZmG94mGOyziGTI0h0kRkqNThewsXYUiLMCGcIiGyNFFWDrWIfGXYyiowkqtMegURrGsGIgtJELLg3wY+Ap7lFWsFwyMsHSijpR0Q2TGWK2rYkm8C9TALhx4wMmw06CaYiTwN+SI8BZkNKsajI/gktrpDmXrI4kJWI2jbMmUVTTQ4EJBiZ0QS8Cp/JTFoT/AGkSmXsxa0IT2fbZrNDfDA3tDMg870TUMSjF5HkwZGxjCGDxi4+2URYe1obNbN9gXDx+DT+HUUT7MYwE+jZNweWXhKhBV0MkyhZ0WyLBA0mMTj2YMU8Qz4RgsibTcRZn74N1Qmonk3H6Ez8joPCNzFCZiFOssOwp1oOKnHdbGEQcsvQoSTBaFRPAhlseRKLtlfUrYW5H64q63jgho1hahFTDh4GxTfI0URBBSCFKxnRiwdNZLawdNx+czyhs2Q2pWTDeZBYSI+j74XRqnQkJ2JtlDaefAkdRKhxwiULunttD3+JJmwjCtpt2S7FRVKFwRNkwwGmQkk6hEvsVZFb6FZoiMQ02IC/BbGhIWStTUInoY1ZQlBznIWiX3DJXPgu9CApG02KzRgiWaNZ4uCDeRzRI8iqITYk+BbwJuIuDDZmJ2SQjwGCLuNj3Pfg/6Chw9Ie0LGR2QiM7M8NxFRMH5LXQ9oVSThhyNAlGhNdU6TGexVTx2xl/2BGz0KzFopvgDlEW70JguBFg6+uLSbFu2SyxlUbBtmhhtBV0aGOxotsH0FAthoD2YnRjYH2MGPeKmpoVJgPDG4bQxbKOFP8ACS1lBrq8ibvWxHQqejIqT2RlYotDyyZ6ZIa7RLsUPAqVNDXhGesqS6Q0PaKag0coToO66HN/gJekYrIJMjjXQtpvmLECG07CM8mIL0iag0tKIevhwxk/sMFpqDVbhGqY8Dwhp3OjBfsbeTXBD7HSGNi118PGRzDBmTKSMTT0IaNClVZKrKqHx8MW9bD6zjhPGQQx948ChXaNHDTgWtlmhnY2ItMC1noLDujnCGrDYv3hESEhhUNQJpDaY5Yqrl5YIYVj+ZzUGMk2KMlJ40VMSFEooLPvhobCIYhtHSNEppFfsdQeK/0eWoR7tjZxgWyGyDWT2lN5L0MJsflnUig2JCtU0uIvKFjoY9ELobwHegR2JWgkwEjaErInwPX0WVRH3D/9LY/J2zemAVON9hjE1e3wWLRdVCy2YsmCpGhcp4EoZiYnoklEOusjaxKy5mzgVuJWjPMLwJoX9j+dlFNDW4iM1GKSRJHjGKtk7YkYhVJ8J5ECZHAwtWEAsR9mEmRUTBzhGfJsllgSHkQz0KlFsSKiVjcG8EHs3VMB4FVHiE7YnCjGmR9AmSoZMqdcP5vI+jeCaPXkpFwIXJs27GJvp89uHGfB5RMDJKtDB5hPlA2zE0qGML9zNtIY3oIOwZpljboTTZlkZIKZFSYMhrEIwOQ69B4gPzT3RHsLjfHbEfZDo0Hgt1kf7hthUhqMb+hIyq7OqSIzQs/Q1S+h0aGxCTQfQqxSuIkSDd2dAbGHyWgk3QwpDWx3/wBx5ZIW2bMa7Bt4iCbmXxb7MgklR0ormY9IiwhsumWdmT3gduzCjCiqUotYOWnNDs1OntIUKTAwV/otgLRNEWNCUn54jiwXIkUGwLIzGV2FMTGtcMzTMNQ2H0Ra2Gl2WZHw/hCcIao+TeDDMPh2woMEDKPY+jaDvY0NNKFXhVjEhvBonl0VsaEl0+EqcSGsHYsIuCqQczDG+j215O7GNXXhEJxGzLo+gxGtMe6TEi2XDhN6GnsE7hgQYNsHQmBKO8Izo3xXtoTzg0b/ALCByQhJWeONz6Ha2PUHYYZbHhLtswWyrp/oUkzIS0iiEM/2DIEJUKMjTY9jDkfTlTA88i1ilvZYTp6pegusBtRE2xsy7s8BLMbLApaH9SPQhWlkYEGjJwGBQpasU7EisuR2SF8mg8jJ0wm2ZW2NPLj4vEbE75zZE57Hor2MUrJQyxwQnUkxP6zaGiHZNRWfaHweDSgqHkLaCMWya3NifYaZG+DeRG9lEqwLQW76IHv8jCtkSbGDCJ40uuN1w/IPDjQ/ZgoSPHgUpdcIayVforZRtiGLEt8hoqQpNUIK4/CNUl5Gbiwhxsc0QxdiH7NsHTtFPAki2KgUOwTtjJM9DeU9STGzI1RbedjMRa6yq6HmY9kllFl5H/EZ9OjE0dsEn0JtoZXsfcmHCEJ6Q0Lg6wV6DksIYjdIMiCXheAkPYuExOnMkFgpa2ehSTMtIxHewlRSX4CIWPiORCEwLxx8D0bjFgPDQ6bvR2M6NB1DPHkkEIajGklHhwRfYt/loduxj6R0D0JWjmd5TNg8o2MT2ymp5YlSwlLhQsXMYSiBqYZMvRRTwxYHksl1zXG7LQRtBLEIswJtwZ0+jEqOJDqZMEM6GN5If2ZK2KzqE+QvpKx1YWhIPXgXDFrghJJdmEbY1SfguU8G/FmxwxKIdcGzYb3oNHQp0H4p4EuJQOFsL2IaIcGVbCXtxfapqD9Co7r2OtIWYLhD1Xm6MzKMn0UyKoamDGkNMeg93owFl/EMXC1LcNgy4NFjTLLgjBUc3CfHQoMnx6rVElQxsRjEz5GSouXSIIUDWRqzT6FDPRWlHZVp4eRDG0HFUM3Bh4VxrnXkKdM+uzULdwXHZ0Jik1C0hxR6mygdcL1bYqx3glIosIqE22bZEiXGqTAdJWT9fR+hxHBjTBVRIRe0edio3ENts8QMI9nYc2KsKZMsCYhu8Qa98/Qt6I4IdGUiY1kSGmjMKmh5wqfQyFB63IX0YOrpi2UMJDwuGAJkPLNIIurQiVMXl2Y+GNt8acVXlCX2hc9h8BM0Rfw0mw1UHyFjMT74dDwOxfnDY2uxDR4mJt0aoyZ5Y+H0J07D6FuPInih1j0fQ42cfYplIicEIhBonKW1weKZwxtmUTEllkY7QqYfXt/6PYnqpmSYDLWZjyDTsZMOsXTEKK9ESYRDXWR2JFlBSaKlfYqwlkSmYchWK7yJfUICYBRhGWsclXCHzYZIxijYmJzY2wP2N9EwTJlpnRii2E2mcKbuzTh1x2bBuFHgjICaJqFlOGWi6IxsUjhgtOuPYbI9IxXxZmKJxPHMP7NP6icbP74sVEhSoTUfBRjQDNMI+p6DLYp2dfhFfohRsdTRMwOTOyeWy2k8LkUSmAga9iEiEIS2J8inokCCTT2PYhDqi4MGKlW0z3EJsJGKrHT2MgzpPK8ihRY4mT0REVcQ39iiw8iMDV7NMlSwQdM/GITo8ELQOqGxMehsP9Bx2S2x+3gV+CSeBw1xvBDxFmVkZWscVDcsDsxsSKRBtC0tiHHZtPBkoatIzIhKCfGjOB2pgWmObLHhiwgkbwYLlkPmRCVi5HXsWkS7FKo3qLAmrHGPmY0Fx8H/ALGnR+B85M2lw2KMszHuNTa8Ic3DLZ4g2pAkGj6SMWiL1mghqTfgPBNaTZ0i49nXPDsbdD0sQeRrcYpo0T4GmD2hneI9Zo72YcLp8LRiGCcYSZ+GMVPAszCE1LLyaMITVeRBgL7J6E2yLyJNJIZ7Fei4/wC8y20NE6SZOxwiR9bGQZoNI1gSclo6z5wTX1GvEi3v+hNV5Okh11HZg7AaFRT6E77F7oRWKdEM6sMprRQLhFMpppdiiRi9UTYLTXZYha0VFPQQ/qPAmZHsVI8bM40KfiWmCRqMZ0fkPqYS0TLuEKE0UrICjcRCUUMiqi8yqKDZJQR+nCFvfHYSQ0bloSanAZAaJBIzGyyVnpYTEhdPos6IWActQ1saDB9mByFMQOxMq/Ue0egXYncEkVpYFZHRB+gY8E0RUwDJsjK+hlYaESRosIT4I3Si/QiZIShWPBcj1nQl1AbGQnxAyJIqiF8eTqsdHTEOjtwubtrJkOuNZ1okY6SrMwa7HlcHUUp6FeuIkgsThvsg9jMMkWQbER2ORmQ1hJFcMMYrWi6D7sXlUM1ankiE8QJZXgWULV3PQzGwh0GyWqYwJa5Ffc2Uj/tHuyMyPDLnhKig+3ROcII1rsSKA2iMMVYLU4KoQR7EiXQ6MIYm30NYrRQI5eySKmJn3Bk8JeOajZElsp/2C7PAyosdJZsLYxkaEpuNsMaRchDXGkWV5N0/AtQFqiWxo4KmxkYwLh7YtGY3SK5EinWmVMrefVtDEYQabmhyrJhS2JIaUf4BZNEwb0izbMpmKa+x2T4G22K20OFpOG9+htEJsKKFgTK9mbovwKeokZkVrRTZUkY5Rg0SI6rGXke0zovsh0OWAsI67LKyEOigqVpDLsc6Q+gRzuDWxTMghZxMSVMmNcs1UGQZhowkdhJRXYvAqgpMoexMGVS2bKFwb53A3dI8BiMUZIzkYWjB/szYTPExBI/syDqYb8WEbD3xcSCtaGHqlRLYunTssEdG37JtBpLC4GThsUcFoe+dGQ+xjbvI/sNlobIJyU1sykzJ0zKDeBI6PJrRgs8UjcTInDVnlk+hYRMGEexKIhPZRBYZeJ4Lt8DbNTX9Cn0Q1g2cFiLtwI9BwnTIi8sq8DGym8ltjhVnqFsacJEiKrJQxlhuJlcVJky3ejGOmDfZBc6G3RCY1oc6IucCjSH4CIankarIfY0tIiZ0EvGIgrBrAOzYVUXIslo3c9CcwiFlXIxPOWU2sHrM8ITtzUrojCZchawZDpYiqQ1UZPIp9WKwqXBXPFJaJdIbGME2kbcQbC7FeUMwcH4xI24TD5E8we5lhk8CQJZoioVO54Qm9wpHJyPZaxDVd4GT7EmaDXTighPDMkFqhcScbIzEiGppC1mxiJAjrQ+ng+gkaG1En0CGU2bZJ5HgnmkrHxBDtng1qJqvZniEvQhjnExBZ2MsehpDY3MD1k1opsVtYMXIvDgPpdEPJM7GxTTJ3HRJDRIdMDEo3xt0yLQkwMTwY5MlG4hVdhSwh2ohdxI+gjaY3jqiGk0wl6NDUorC+kb8MnkwdRSlJNMzeUYu0d01kWPofd1zwRQqNhLiLMo1SzWZd1CJtQbAmNkWEN8Tfsp6hZmMXOeCQwwVJDZp9C+B9oZDyWTwK2ZgrszmbC6HkILSMWedGd9EwbmaNuK3jA1CFjRMJZgUFzC30Dy/2LgFlpeB0EjcC2SVelke33NcvcwhtSQ44I2PshMzAOUMtmKHXhGAVGGENNmQikSHk2rECf5GiEpoV/osqJdEKS0ODYRB/qRvNwQGjeR5DeSLsYehBiDU0jw6a1/0LLB+SD76iRcCUpaK5CE8EcEsvBDlKVMg9rJijyiCHuGraE+sxEl7Ejop0O0JoUV+eNTYkg2dEKGDRjUfkVRg0uh75Grmk5RX0h0i9sgsYrpsTItGIW2OWO2LTLMnoSro9A66G6Ic4UJUeRBsZjvihRjG15P6rjIfJsOISRRsaG4b40OzG6YGIyGt9Df6PoBkxDQm2J5ET7dig6756w4DCRIQQ/8AkU+6iTCtNs7JQ3AtH0gpNPiYHnZ1gR/0CxQ0uSWLkEI1kKhShuJVWW6GrsphCLMKYsJMrwIko8sVJDVHLEhrdGMRXQmokJVvZ6I9hvITJBrDR0ivJCW5bRhDtiRiJozBKvI+lYNsaRVhkS1OkWaEB80bNDI2qNFtZSKW0I0H0YB4DGCY3mbcLVMXpMM8j6BNJXZgjT7IHodLYryxBEZJCd5aGVE/pMU+yRasyQ2RU4LWGOD+kI3MRi0htt8KhIyBkNeC1FVeTNUU8JFT+xs2ajvTLZmNvwdPB7GKSDNuIdvA8EGrBala+zDhsob0hFli1oYGN0gLDyMEhoi8RBaTH0H1DymB50PHY4K1LCElwlLAqxTljpihYiZgssaJYHbHsbSeR1i+RlBYEiVeWZlOY7wTZC+eyIokucMi1GRI4Wwi0IqJ6HB+yPEDWYOypcojQ10wbEo3KUxXIhcaZgujaND4MfFj4NVkyLSvsBs9vYrQy0mhK0iH+kNW2HN5EoMmTBka7MBbCWh6Ni9GQf0It+hRRYNG7ZlwsNC0PlCQzFg4gnIlsyyDOUmKTdYM2WGNPIlAtJF3fRJMK2NbGUV8ilF2YYy/jixJYmbcDhu5/TmYPWZ5q9jOlu0YfEEJihva+jOSPUNrA2k5clNQzeDsYzD+onhCUhjeBeA023ky0YKFNhjYNbY5QKS0NexEVSpJpyMjDR9nQQ23CN4LaRuxoIUxQEtKiPaErtEdQwbQ5GdmehlIkFexwqNkqMXkocCTUDp9np3BirY8yO4Ua9mxnbweVf7HcwU1ppGcmmPYSGA0bGJTbH9HPoCVKNxe2Tb2RW6E1monljasPoyFtFnTZuEIk4qZvC1sZqxnNpi0ZDQ1o1Iy8CRr2MzDhacAh0XZGWYaMi10RvQq2UKqqFN2DGph+h2boxV5YyhdDBpCKPSPXxwKGOzOsbDoaQ7KNC1aLBpMmvXgjYj2V6ovn0pC+ssNNP6RNAeEMaF3ZcDZ/gHVZKvRC4axFCYlhCN1Y5Um4jV0y4xjhU7PWbsRyngt4BdhokWLI24dnXEURtBSCuh0jeTyNi8jKDFYsaqILayPa9DCdRrfYiNhZ+B3G1syZ3BB1bMgOL9jVMtHewGtOCKmSJtj0Ndtiyi0KRZmGGQqNIK4SWFsXWywg910iLs78cao9U6H2PHgeMIbP6FQs8jp40OogkTbM2aFgNUwzXwLVLowV2jBPYskcKJTJujoZtccyLqCwx6chl0JF0P2RA71oSFhFrKa/LMQeQ9/rox0JTGZ+2QfwyKBHINtk8GIyoeInj2dMGzwyIu32L2KYDsRqabosCuSWqeqzb9DJYSJyRfrGW9EmBg2tmXJ8JNpaP2C1kJeB9CGt5ILoqPQfjDR2ZYCmyasaFkY3EDzrZjCsYJyRvMsWkitBXZD0JDZ0R0IMMWnEOngYoCVpijXsbHTNhg3n9EG8EAreUhI23QiiYtEvWB3klPhSFGTVHB0LyLhmAePAmDwVbFSCrUMvVHh8XD9sImYkQluMlhD1kWyZDCULI7TFNmzGYPR2rvgKUo0VIKbQ1atozHj4WpgHrEZ6LYTLaF9Gw3f0IeDMhMC2reBrQjEtQtTr5ZsCboaNlN5QjxKkGIqf2a32BFXllgO0zG852NCSiwZ0xigFe2NjYVHhYRTyxxGAV/qEg02RoVFWtEMseGBm3Wxvwg3btsZjIb2zvti7WGdsUvJKHHWzKYYbNO6xIJ0rBqErW6x2iwhOw0OaY7PGjIprBMZ4FEXQ94yCZwNbQeZFqhHykIrMH6Y+XTHaEAjRTBHYkQu+LoQ1gcSKCNwUVWBhGJaEp97KZGWYk9NmBCKnkyCyNCCiGt5Glkx74Eh64THFMhMjHSxLk6B6oJhYw7r0G4+mTsmY9ntEtIFKLA2ocjxofFchqttsa/cCGeMk0LAIi+aONmRuJhTNsxRSaRRjRaGmTohP2L88yMzaK1TZ4JHsWhIPCJRUSyKjBL6DzLK4d6Fjkhgsh9wJm3gdGEeYVthliJ2NoQkU7OhD7pG9msgzXsCr3MWsYJDbeDEzwWMQ1bsGLoppNC8gh7Kamw7B4P1ZdRqYljI4QtopsOXFFvYcVGdGEeEKfZKbEhNPEYiOGzAMUmPOTxElTApxgliH2ITrQmS9GK9Ie7CuirYhIcWU+KkEF2U1iVYhkODoyEqYmWaCKWLmjXCNT7GrRYGGwlQoEn8EEgsNiTyPexS06b4AJ56MR40K00iYdkxkEvm99hN9GO7+hPI1XR6O1JsWKJG+kh/ZGDCYQqxB1iiQnBvglZEOxSWH8C2oaUWBrYI0snUmIWUGYIiH2mPAt2IiyYLYn5g1l0GhVQeyjCxEWLWWwjSs+jQiKI6wmijKEiuFrHJ0EgbXgwzQ94FOjYlgKmLqpCZwKVLsSTWSLjQ+2KppnwYV2G6LJiKiPeOuzI+xXgkGE1hrWBMexQ23gc59Eyi5ElnCOpoU+oSWsa9D1D0yS5sdV6MmLBkxKkLgZJm48sSFgvTI5R2DI3ZDIehYITigwSEKoxlMty9l6F9WOxI2HBqq2y0aHuvwLVDEG//AGCW3wZTaJWmi0tG+xK29tm2YqdiX0Q8sbGSmXoTdj9Ik2UQksKiWsUUo8CTbCdJxUwV2yWo2zImiMIegynozmAkI4jEwPZHdjx7MWE0tx+5GgjbuhifaOY6IVdjd8GVsSpoVb0YMCd1Z4+8ElEsjjlDckGbVwonhlMyh0j3T6vKehn7HhLgmwhoMi8j0JZFKrAqYVFghzMacKvQp1slFhC8SyYW3xcHcxZYiRCTXAlw6kdVlMcUN5FkaZ3wTqIh7qokiFPaWRkZQa4pwItIbg7UWcFVKYmMtMi2bRdElvUMJaJZE+bSuirYqrsLA3ggDibFEk0hsifk6P6UG+jSL5E8EMENsXjNGAokU+8Y2JCjGiI5ZmFOYnkDGzCDJkdCZZL9jMXE3bEkKOO0MnNjuvMFR9riRfwCMns0EyX1xCGQ4WBMViWvhXvi14WBCdDb4DdEKS9mXok9CiDsXXQoiYPG/Iy+5M5hRVDjVHtONaYbWwwuhAqyYRDHZfGgsB75wSZsLLsxjaiGtZJU/AzJQwkSUQ697PCFgbiGpRbZizswQmh7FjIsiCCWeL0PBNodw8aGcMvNbNSwNnktR8B5SQvRkuxacrEN8gtxuUiS9cOhfNufZ1HleB5Z2a/QqeRbV4RgxhezMmOXVIsCzxtBpEFIdFCiZr+xoJ3hBYFCP2P9BJonsbrYkJGfUwY4HWjFbGcFXsajyI9hElEM4ZDRWmQZCp6GFGRkk6MmngjloecIzZyPRbsgiHgJtIO2oSjRDm9DVsfQinws3UspkNoRHIeEFcKU8xLrwJs1gwIyPzQVeWBJNzSN4Q7mUMvWPUQihMkkGzJSwSv0GNNBLJyUeXC2hPfMmnwW+MGeh5psScRG4XAkdSEm2GxGFsIQ0M8ZErhhyVl3aSSQY81mE7UjefAoxb+dQ6ZUvQLKEmEtex/Uh201eSTBJEMlG1ZUhjBj0SmjW02Y6hy/Yzf7Rh1HgYjuuAyipRvSOyR4MBCRb0M3sb6F7eTy6Kmj3hmKbly9ITJ8GKgmkGtREQ9hZz0WYMYUHCRBVmlWJcFZTVNiVYQlZXEigorFHoxE2hOKNCItRaIa3DCDzsSEwJDyhtIW9p4Oa9j2nWxxzQTE9G2Swj20UMJGSFQlcIQSusyKKSHgwFhGhIlYQlGNxDVnXHKaIbZi43DUXGbHsqhG9MKuyKNql2KTrfSRFlITRSvi40qMkJkq+BNXkYzEuxlqZhswG8sf0wKBcL5/qS19DMfdjNLw4RKHzge5gkEbZsVV7ZWtCJm1ipV6EPAwVLKcHSMgwltXh8HJGQ19iCekSDaWxuiCSS4zcKzuYRpDPoo6IX2yTLoy6FaVbMpNULBoiFE64hIFfSIw7KsYJGshG3Xo/wAF8TzIxLeUSumg0IpJTF9jGkMskbV4JybPI5mwgmHQgkrGkE8emU0B15Zm0QpLbIbL0SmCFQgZJEPCZiOG8iDduIXN2LyINDuDZhUarJFTFfSHltjfRiLkNiYM2W30USHrybKqENjtINZpgJgdIlgSrg92H/sTKi2wiuF+Jg/sRtX4K/1gPSx+vRKHpG3FnqjJNRAg6+hVaxshDw4jBCyzB5IIyyDsgro1a4rEUWxmroTcJFwj2Y96EIoJKQQ+qExqUQ4ws8jxkWczMNpB4UOxiWGzNR2mkLaRi0hNmJYxNhASFI0htGkImith4Q4VJkSnYiy1oRmVNlYH6Rjb3ArR4KX0RNwSsFpRS8mTLEuuWKtvZ0IxYcJcCpY4VgImSTFW8niL8DUaLKyz4dCxYnWGPF5YjuCxMR3szeCChrJ0JGKeB0aZVoaZUD8nCQ6WoYNLxxZdZVYiwhKcr8KgUkx0kMo7FIugkRBkxANtDbuxYk0eweUYkmxxwq54NcRlwLak/U3+oexNFRHky4GzRhCd0PGzBrA9fZRGzIPLG70h9VwwwuEsNivQhKDBmza8Fk2zDCJTU2jkJdiUm22SlDUqcKvwl96zMlxGaMDOxn0Xl2ZaY1w+xSPsyNdjpuUVCpvQvFDb9DNgWYkYsncQhbGizC07CvUlaSFaCDECKDeRKwPDiNxgttmINgEwlGCEyhojJoh+husSp2jknkVyh7wQksiZuGCjALsiiIIaJECfBfhd72yW8rAtczoYDIzX/gejdRkuY5B4LtPo1ww0LJEgynQ23SNwT3BFkozY9kfoHtSVk8Q686H5B8Jd2J8dkJniGkljZrrIqVkRcQeGbdhkhrLG3qT9hlhpCUVmabCYR5ZMEw2wh4Ix0JNLW10kZnBGhNEQkJP0TMWI7FfbgbLYynEqdpFDEVHpKMwZAZPI8l3BpgNhREmyGWdm4nEMbML7E8VmwUwhIwUbCEsm4qBrBk+hezsJCDTQfs9aIeR5UdKMycFkEz2LRPQk5hOF+F0Rm6SUGoXT5L7ZUyd4eBTV8CpxdjVxBClM2xeEuCKe9DiWDN5Zk2QV6HXBk4ROeuH7BTeRJ0P2FjSQk9si6JdsyGTCPCIKQsuiFxqLchFaVZ3MWVMIIqdmYQkvfFovCArZRYGriGu2YM/Ju+DYJoM1sbI5BrMb+hiNs8jNsRURwWbMvSGPYlybi4GY3hlkViPYK8s2nJjNItY3cGCQsswR2lmB4HipaCbH/YwLV8GbLoGQkNEwLYoFlxcC5X5KKhvsWtZRJrseTXnieadqCqSZtRgyLLhGBtJN+DNj9FlY1EY7RC3oIHAo5MmdDaY40WrJEMok2JD0Ef2imXoZLQ8MkLJ0pD/PA8RHZMJF+g35aYwRJDnGkiSi740WZ0iX4RkOharKwNDszBRtBgj0PoLEajWCTMCINZvbI15FoySyXAjZi8jVQsx4HwJMfoabKG2LEYGzB9sJVEITrG0sDNlNsxFLDbEoyiNIRjkO7DZGXEPVGg2NfY316hKV0ly+HyiHX8Bmhp9z+vMK9EpNIQTw1PS0wfsCrUZOmHG0qGiHKNBU854s5usv6En1RhPJja/QlG66G9MRvLyxT0U3XoecLRY9m2xVpCipCGciDamBLyRURNbGTfszbFFiHkzVjDOJds0ptncCyPpIVJIPlx4WNS4ncBsIzEFlf1NIqbKnRXDE6jRR5KWCwYmoJXw7wdCUG2ehsc3R4fGkKt5ISHWGvApclzxoyZrhDfKwMY3NBPYfKnCuTLeNEkll6H8TNcL4L8ugo1+5WtD6iU3sX7Ysidyi3ZDSHRhDtlqhKWGW2JIihYxuzBhgwFY5/QEscdmCxsps1HFjseCxiEoMMstrwh1ah5CZ70NFEWsUfZG98MIMyG1pEp2icXG+8VPsSMe2TkXAziMEbIwfY4zyTRpiZIqMGDT9RsxbfwNb+TsjkQFMURjKIPjhK8cizR3MnQ24ejwMgzdZH1ykP4wgkglyVDyoQQxC6bFLdI3y+GhnQhfwGsLhk/DMsHoKvookIXpimpiI7GM6FlaMOh7DSPLY6eRZLAqzQpB62GWppIJVtCwzxkPIo2FJGP2ayzOOt+hOQKtENqDhD0JRiUKnWeCEmajFMuAbyvnjQQckXg0+zBUuh68wcehT2TtujKjHKITR7JEPY3HUPSPoq5IupCjGlwo0hkaES4V2wLIVGfNozIWCiHy+EJCyJwodiRj6jJWNs24gH83wv4PTCiX3wMrSGUZatMiafRiEONMMqwucK132iiCAbZLJ1gowkZvGxtXgKNZNA5/UjIxfJgjcF9cXJWUyQkUQ82RITXYi6jPI5rHHyhIiS4RBIMLLMIrgSElBMVj7iRNi229j5Rf7Gr4MlGQzIk7zSMt+BOx+hLQmgsMrdFD5CcxsZgJgmlsVODkam9iwhMyY8MlY6Ovg3xRiyLZKxxYFjg6F4Q6L2ZBmIMaYR4S/A8k/hNXbaGqr3RUZoLSzPo/eCmn5HOXYxPxBn3DI2QTN3BvVk9PJN6yekYYdErhYpK6KVokwM94F/Y6r0IQzRhwuFgdg8+IQmDDYmxPyN+CmTJEReG1iRVjjTyDQoxNQVVD4g3SGsCVoaqaFiGKBnEhQJDYU+0Yk9xrg/pF7QnGJtOhuEyRkshyjWzLofEgiI+jycI/ozGw+g0/hRnQ2bcGodCQNjdJw6WexjZLmZRkY8whfJ8XsUZ3/AAdkvY40QroawPjVWuirPyPX2dHfpaMf2k/obdRZJl7IgsMkaEwYGr7EvIaQNeeXg6GEPS2QkNJvRNB/Ix2CRB7SxUxCQlWS5o6zoTJsQjOMojp6IKIbVHlAMPKxeWULqGeRabNqLQ1XRXXoxrwP9SE85MHRL7DVeQ1GbD/w3fG65U0zTR2r9DC2eCMamQhDRkE44QGhYkWDd5Yhs2LHR/7iZptfFYWR5RKxmmReBdREh5YvhOGMXgSgW+X+Z4NDdMj/ALCyi2CslGOhGtmJKKv+xS7dnktcSLbCJuic0LoMEiypaNX9HtnSjIQmjJxGXSCHSky4JdkGMXDgo3xrrZKI4K4JxUiUdPAgjIQHZVQcaH1RBEJMIlc2bm9sejZYxkXZnnhan6IXgPAmyNoF+ZfokbTNoQsIMaKvtH0+BTRTGGp44wEMbNI7EC2WcR6MFBKIezuHlJ+C8ndgdLx87w+O+Fw/zrog6hKXyzAXAkl2PVTTei7oskSddMwjQbRui1RxmkVn0J1GkUQ0j7HG/I5poLS0Wy0hMU2aCShGIvBWJwpaTnA3xgLd6GlwRAMCnRmyxDpCJCfBZ8Si3jy2+kLKw2a+hMB2djpllCifZcOy8n0ZjeyC+Fbw9GsB/UoJPKJYQzViQZmvSKsePFYQ9iNiZgg6ZCwqdzG6+JXga08MR6OsehfJ8PmfCfm2Zj9cXwPZ6P1QtQkSIGRRL+4LpBnl2hSiMTRPPZMFajQGSQqmKL/64JWwiDgR0OrRSjkrjbY6MsWOFkQQ8D4MYiRbeRklETtnUKJGGWWskhrobi9lMmRiJw4wjoyaSJorhHnJMcPRsTKbfZgMj4LTx8vXwzFMitEgWx5NGzQTDYvAwNzQrezLEVrRemYq9ISMnYSkU8s9mhi+T+IyC4f5sGzNVCiXJtESNeik6NMMoGyLoZ1pj2320NTqaaYKfse5NYK6E0abGpq7cgsjng8uhaEsYJ5HGkYeyBGkJOEHjMViIZy1GTtZUtE8iEiXPHn4VitcSiEhW8sY3EJXXw4M2NkQtCXLFTYHhHRc83UJ36cPKvRVrr4Vwjvlp9xEGIyD4NDiZMmPCF2GPCM+TCNvCPIxPLXwlLHJTnv4L47c3BfzqeVs6mSMdkaRRUzuyN9MbILaM2MOVI+6GS4Mj5MDwNAzlaYgsKRzoTJrQiVJr2EzC24NWQ5gxyyHI4kMeET2NzAm0wIyGfLEnkUdYsRDEYEDZIiytkMIwQeQ8qYuLZV5LMcSsbB0oZtxleZjcTQoFhGCC5OxIcPij7FsWoZq+zbhiOxaO+f95gqGiGzNmmLhXBuiCDhDniz7kakYFpm1ZC2YHQ9+ha/Jc8bnZOGF8382qOHgarIhZKZKhqobtdDzTGYVTIdYBmTYu0MMnVOhSoxIUWHcky20mTZARF2AOy0vbAr6YopAl6Deohxtmlo60hsUyKwCaPEJ1RtfRZ0aDWy9NCLVyb5IOdLIouAhnCjvAYRHkXwVyxxG+HgdsVt64dh4EkhcCanQxodFFlmAaNFGFSAlyjsWvh/qHrgZtp0yWRwxlESLm4Q6QsJsVkQSdyYj17sSke34WLlD2M3Ozr+CzUVKuBg4aiZt9iVF4nCz3TE0RO9qC1RyioloawIabaXQgmtj6baWGgxPaNQn38OeAgo4tLCG4ZBpexLfA9hR0aGmzODHI8GeHFTopnwMwEbbEJ1RrezSQlIijLGjwhDSG6JELSmcSSVY2bKeEx+QeVTGZKmkPgaqNC4boWhg+CXmC0hb4R2L4aHsySGLC0TkbJgpmKmNLVTb4E4ssrNt4MNFgTr/AAMXL+J6EdfndJTtGExcYgeVFpJiAypGSgpsEmk6FLfZcW0dpULLFgh2XUHL3pktRS46jj2jFGAc2kZhxoUkEnP0kNm7+xtIXeO4VZ4CUNGuNpN0gNiWDSwPyJ9jYi2ZF7KPeOGJYQkRswiKXw0Noi2Jnv8Aoy6xPQi2jQ1hkRuhWZIeEb4QmDY3aNC5vIo/R38Fj4I/3j4CriuOKU4TskU6PkL01kteMIWuO+/X6JEktLHCWfg/iuLnli5XLF+Sh36OwlVILQm5hAhkhn0eDGwNFZdo38mclphoPkw9FtXI38T+CKaBZvV/oa1A+pntltYFtMsaMA3MWqENFCb7GiHHWtiPPGrCPKSsIP6yJ5MGY1CwyJBTBTFiNes0Iz16Emmb0oikxSyLilgawbi5NWYhHceuO/hsnOr7Mh6Mt41rntpDhDvQkC/YFAh8Qar7YX7FUl2bfKcPnriXlcT4P8rEXDM1f/uRKQO2aeh0w3CGhmBniYo+CIpsgxOwsabQp78BzNPp8WcRae1+ZkO8ExsW2ZYhGCGzcuEoZIS5aL2PAhX6mCwKSkyZN7NgSVY9hEpXhGGvb9GkAX/R4ADWo9oYjlGhmhYT4Oh6Fhjyg40QjF0ZIMZ4+HZoueOjFPsW/WKJDXBkxROyB2MbMK+g8xK+A1aOJSfg6Ex/BiwjoYvx34Lh8Mro8mGHYSpYItjBNbElCK9pCb7RkWQzEzTfAsvTGQhs3x+vivcX8q1JOMdNFXTFf2LeSiOho2YoSzXw9ISpUNOiy1ex7Xonkqmgqdj8CG6ukJCA74Xgd03aIMUTEjaH2jShix+fYylmpmgz/d8J8Wx+z/GMa4YyobpEEhbR+7GxC+7ejPvy/B/FiH8eh6H8S/C/k0v+hstMwUTou4aZGMfvRU6u0JGXQUVmiCiwsnRT6jlG+hicTh2MpoYPfH9DJ+JbEr8mwxsmKNRIkCarEodMGDJCNeLhhBuWyeDQQp2Ci39GYoukuuGdCGJrDM+ZLOeGw3gzZty74JhHoxLYTvlfGC/LEn1DiGxnRCFLKXcIsZREseCK6WyQkuvg/gzoSH8eh0fBiH/Aaksm1P7PfoT7iyE46Qio14BKfsNJ0izJjKdDiumYilElAuAx4pzudm+KK8XAmn5H5EAuRoxiapg6Y4yRCIWeCwW+xVH2J38EsIadb0h7f9rEKnlkDcxKD9/Jq/QJu/rYuOQ2G3JIYyxQesY8BPI9C+LY9gsWZCQIuTbQ+IakrQu8KSnj7kwZzfwrh8IZ0MY9i4R38+/wybGwzbjMvQyelw8xKJeDGvI9K0xpjpmwqrZkMRwYKLuhLLI5lHkyq0+D3G8Pa/KZD2iIvowGURaFqmaY9cEOtDfkILGR3pRqMIp2jfg1gJCVN1lp9A380YMKaCtD8MaPcb8k4jI2HY2FrujQWzr4rZ9fFjgy2OOxMj5EqGKXSGSRBIqO+72Eztb/AAdfB8Lh8vYtcL5ITO/w1FwyOm8olmbFLRusu0aPZlaY2DNzO0JX2LKxkVyNUXV8lmv0Ub2FhJj/AMxB+pfk0f2Yo/QtZDaIkNKCUQ0yPUbRRg4hsFUZlTg12bE0kQkiSewT2kz+C9jNiUdwYMPVze+LEbhcMeULfdHrha5fC2WfgfPBjo1NTJkETbPZhU3bSPVBR0dfhR3y+Ex/B7OvwItNTfD+d9OisPBDssMig8Of0Ja/0hAVNVGoLVhlextTM9ommmL0QbJSDBnwwHCa9i7vAiK8Embse/wd8pl9jV3rgal5HXDQxRXFayybkREFUOiAgKNvpDHOv/0H/n4emY8J6N+D4SiwFGBynk3wtfFuJv0JjNsaM3w1E4JfQRfoNxP/AAeQtsk+2Ec52P8AOlgezoXwXKGL8NlPWy9doR4aFe9jDR5wZEhKmKSJloXEMNoSewdJsytDtHJCwTYqrmhCP6P8XDTR/jSszP3jc6h4bJULAfQbBUL2TRFFTzMNcw1KZv6HiNhCqs/+ha/Ev9Bh6E58DcwczUyfyIMXY9i+P+obfdw2E8GCMxkLGZlu2KnkSpfpUPHMyP4UvyfwQw9C+aGL5Xl5RhjIoLX0F/u1lDWum6KeDIItFjoQnsbi3PEurH2JbQ1RU+xBT94hLHWBTSN9GVID38D+aX1cAuWUZlhYhywmUbSaSMFIeFQ36DLBYM0QxKRR1kXAPCnj5rh0Iv8AfwejseiBITIuwkURi8iUX647575ySFh2mNkWuCjLRNQkuiRtjm/XxfD/AAv4XgxfJ8P8a+KQhUPo03kvrjI7yA1p2WBUVM7JUXAkjXQskhhcNnBEkxKRoYnr2MmflCtfQSSk2/T4MXyW/QZqvHAsKWY+kNiCGCb+iGe2WwXyEBKkdfImj+4uvv5uhco7w/B7MkThsQ8wSifRDXgexHfyXghnrQay4kZce+I6xRQ8b4JeWHXyYh/JD57Gd8L8z+KM5pD2IsjsRdDk6RKFA/JAddikgSDxRqhi3x9GNaMzEksUitaYjSXwGivBvIn/AN/jT+oxIeToxIhQkOWRqp0NAs1kMZgFREHRuImQ9i1PS+DGcI+D2E6/kPY0Y3guRMmajbK+IdnXwvwjX7Hod552ISyS/qjt8DA39fx09fiXwWzs7Hs6F+Z8vjRtRjHLDRFtYuGOWwZRrofCx2LabdrBgfH/AINRQhIryNocYXZUaLGNWG2kyXQtfaD0Jgyce183z/mG/tEyxbG4zEkYqMVPJs6RvBTREwexIr5NLiUNboeyCXzvH+EbAFkME5ZG3DP9DRne2d/hUv2slXbeBsHwtmZWnwLuQYNkY/V+F/BL5vjoX5oa4fP2NRGJZr7GS37K035Nu01gZoWfzVHjJjWxIIN2H54wG4yYHoZn9RsowIi+Q9/icMPuG2XI9UyQeKFtIlgbJOqIG2iuk8I0kuEVpR+2Dr5MXENF6xk7+R7vSLLlKjIKNVkg9i0vDJ3+HaTyPsEyY+GYZMm+zDnJj9f4X+F8MWOF/BfwsdK1jKmsjgx7DkG6xOVhjza8jw0haEzTJ4MlBLEN8itMXKJIxc3EfCMfs4b8L8XhLPvNnC1EDbM7HozFjIjN7J/ZjWm49ipgWzT2KF0vmsvj7U8GPBai4mRKQLDFyCFrwPcF+FH7MgMawdFjllvvjoGoP8v4X+N8NcP+EvgloRNF5mj9IJ+uEVEtjdaC2YMasayNhCUdFyYgzcRomNfs8lz38sT9hhwaDSEJDhRlsWWRa9IdBoRESslbHj7s3zOGdCQh80DMJIUKfOCo+rTbvg7/AArZmOayUwEiGiS8kuYsYPn4MXL/ABsXL4XyXy7+C18NkBNM9X7F7bYuInmMWUEyI6LGNzI6QWjNBJXqaGtehq4E/DBPkSWHmBcsSIYeA8DrEhU59sSK7HrhcVtEvJI/J6FoYuexq0IM24PZA0M2hks9ssWzs6+T4Wz9SZjFxdC7tCeFPB/dGz9DRIFr6fF8v8TEPgxD465QxD/OhbFtXkqJGFfQmTO24OKNns24YYE7ErGv68FWUa+ChvwqdIX+qHp8DIa0z4yUXaI30OzlozWRf7NOfLQ0H8Hp8Ir2/NtFmNBYHkzLyfJAi0Lf4bviBsEq4U0MWgtQWR/oFp+BjFwvijbHBaIP+XcQxRaLTergaqglkXCHIgxvfZ0foZtjha+x+VhKwe/xJh/Z/nHrgJgaBey8EBYbPSsDFAtGSCNv6Q9i+b+F92zBX5M0PkhwRk6dmkZjMB7IAdC2P5oZLxBTzg3+eJsnZVp6ZVN9o8Rkmf6BaX4WL498Lh54SJ/JXCIjpoT7zQ9Mi7QPRtLWGYjJIxHhMyEwKUd/B/L6UPXehvBuFrmLPYPPpF/YGJozoKC1g98r8P2pkVXgxMhMEwLQgxZjMH7FpL0M2H8Xzg/0LX7LIjAPWdngh7B0CwmN/cdL8L+Rcvhvg/gvzv8AAib/ACiK9j3LfTgjHOR4g4NowxwoLwHmYV+iXufwfyR7Ch70+h6ZsXA3WXhYDoeDAaE0hbRiZL5MXxWx6JooaHZ4JgSwQxDTKKTHwtj+U4/wjYLYJljs8cA2MFTa9i0vrli4v4HwuWPi/wCFfxKNJZ5JndkSOwtYkVlG0Ywd+hqz0MURmkib8r4rl8IdHkhr/sLG4JkQSyTRtoSHL6B52KP8mCyThve/hfwIao8DYCEsiFktOIejQPJz/sTqT+Gjr4Lg/wDTxLaLgmRrI+jZ9jUKFpWO9n+Tli47/A0T4N8LA/x3i/Fi/DiBhW+xc3gV35M0Y+aJfSJTgbLRvQyaHwhqYnovi74Qu3whCTlgdM0NhqzJGVRCDm5eQuR8jzSL/f4O/gi/NIuUqjbgwll5rowa0glha+DfxQxKv0SL9iKJDWR5QmXpj1nkwZq8GWZ6/N38KNGhP+Ivw6voar8IrjoBJ9Y9x1RIT0jSHoKZYX/YZsifLH45nD+cr2Nb/TFEhq2NmwnUGjjhNUVbuB8fv59nfCG0lWiELyMZ/bO6OxgsM2Ew0yRjRk0KixilU7iDUp/ZPBr4QSGmLPpFn2kEjoQTwQ0nRMkKyIi7CJ+C/gfDF+d838WyHseEbPpDSDWkLL9F/uMxn/wLXPfGYMxZa9lzbfHrlfDoSTrh6cLyEMlI6EuTBouFTFI1PZ1w9F+HZ2JSt4m2J9ZOyLKGQXCLGKYFFHEOoGx2D8kN+xJ5XE2qNWCXZeRpWwho4w3w9FtoPSvL40XI1UQeNpmNMwwba0LKJDyitpYjex20E8J/QT+p6QnaDD0nBp+OL75eeLz1+R8sWvyrfQamuxY/QlZIOLcmoy5M2pK7Z2xKo+oYPP5UjjpJ+jJHUJFRZxWBk4dXDIYaLXwT5hYrazgtY3R0xryjqivsQyPKaDtkLZgM+DotC8FucjAtYF1IfdCj1jGEuJbyJjM0bDWaIg9MTzQ02K1sYzoeNlTKb7YmHviaLYWs44wxvsnYUZ2NpgznRhlos18uxcP8XXNyT59XhlL9jUl0SOShEXDbxeoO/QqzKTz+ZDaf9R0JYYsoTEqorrCEOVoySFwB1tNEVv8A0JncgfaFNN/R7wnph4KxOE1K0U1vDKFaxTLW0PAVsiRL0Qm2v0Nn/uZdSLUo+kJDyURmyBFWuh23wHWH2CViyZF0hArehpgeRKFGmSmXOSVRljQ2oorYUwDcGkjiFXgcAn32d+ElGxDWoIquIMl0VYQJTDHd0b4T8i63NfFcMXw7+bJkvC+LU+hazyxqnwJgSCVi8YIaouwe/UfUYYfYpTyuIyH2QjGnaIT2G2odexDybxwQlkZlJqGCT0Y2ZDwjI2LaDU+wth4DUxhRzGT2OGGZ6E3gcrQk7oppHZEhb0IrsG9rBmGXsrLHjQ29w87ozodEa7MtEyMwMLahZ5LKxBhbEKlNrM4sI6sh1PXDY8vZU7GB9J9RD2HlJmUhNsdEP2U2KLRdEOS+FwSVeAxxY4J6PejDY6EmO8b4G+czJf7LB6dfwLkYtcr4ZH/oMBs+SCT4JCxiGlGYwh0PdfkWUU0oJZdCRRm6VIQ4GOdwx1ngQ6yV3kvZC6hVuDvOJD2Q89qjrHqGSF0ZovA8DGuYDUf7GrOLJoQJEJ9Ck8o6ZCMWYJJgb4UnaQmTJhzisjFkaaMvpltMMdDWy+KogNhMuimWxR8yxqkQ2JpPGBu1hsYPIfaUPIvUTEXQhrJ4Xg8mDdMn0Nb4l5Bp5GUqpiD0JFs2ieBqKJCY4KFsw9jRjZC98kOhroyt3wLhSb6/guvwy9g0Ul8Lc64WxmvsxGisekPWYo72hbDybFmMc2+kd4F5sLiRpFQvobE6RpURAsSmSlRfZaX+yLkUSJD5FVQLJY9OBS7YqWSZ2KmhIMxw9FNiWBqiJsqQbb0iGsoTIpomRGuRSGoechE1onwJjedlE2HDFQ+KuYgYVsakR0ytPDPYDdrCQx7EkREsrzg96K1pj9lnXoa0UiG0PHwbbNjEGqoLDkXQkpuKhrOR7G/i/hc8vhZZSaLD5sT2MFwpFHlnY9iLICtH/CLEkK79hOhMfZoRLOV+NEzZJFIE6MkCQRDSzwSxHiWdeUMbgZ4MtYGpENF2RQtDEUtoijPjlHRjQiIa3kbuAmOzIMHrBoMeYnDoqNkaCt5JaT4Cb0Ulk24rhGRXEEvhSlExZZhgYDXCcPmuGIuue1C4hR8Zqap38j+J1wzoXOxPob4B18V2O2q6GbTFbQmIPZ2di0ZMVYj/AKRn9Sr4UwR+hklEsGWyPY5y70TjQZQx65w0seMQt3sybMEG+EYIcSm9C06EoWoyTKhM7HhmxzkGBqxH3wwXuP7G0MzhaJkcgysY2hb4IWE8cLY4EhBUWFS0TGRLhInCCfgIQyZQnIhcGxxajQxWNhYi8sQTsUSfxn43hPPL3y+NIZD5tX+CTBUnDSpsTybczFMSnvfBYwpbLoUPZgbIJENcThbyOmpzLYuEYHqfYmFRY0o0Zkyxpy2KWUmqQSYvApEjQRJaDRQZPJnrisQbFN4EimRbMscCxGy3QzMmTJCYoZbwevgqNvvhYi4rGKlF+C8IQJJcYgnxY+FFniSyaWBiThDIPjUbOyBZRTR7OuYQnK+DLVT3I/ld/Q+3skRgx8C0YmQlEbDKYPLIEKr7mS9GNjNMuMgh8yis7aZOHWBM4mE5RzoYuf2JhMlNvwD4dE8D3ENlmirgV9Dbhg+AbGmkKWQ6GudhMKts3zKmkV0I3siHgpYejQVsaWfGBtiRc0TwUJgjTMGPiDrgc85KK5ohcTmiG+EEylKbZpFNJEpAos42oX3WFl2GP8bRYwnx3oW/0akmA+C0MJw9h9D4+hViw/ub/Y1Gg3krLyuFsbK6JgrGH/SZudGw3HdB4Om/YkY7p4EpTEjiZGmYkoY6G2XImN5EG4QNILgz4pkSECZGtjThpCRHDFoXCiIicLiCQSDROHwvleGX47mvFrB3w2NOUXGeOO/xM//EACgQAQEBAQEAAgICAwEAAwEBAQEAESExQVEQYXGBIJGhsTDB8NHx4f/aAAgBAQABPxD8etsss/C8nsf4Pp/gefjLLIaf/wCcZOflvJ9/VxeuvTg8sGJD8NhwdgejZA8M/p1uHxGymqbGmDCNO0ZYw8B/uMu/H8w+2/8AE6xMTB8sgaOth6TzU8tgejV+49oHBcZSY9kskssg7ZZZySyzb3JBBZZZJBZN4kmJ/ATEnIOSQQmyyyyyyyyyydTcGGkEn4erOTZyS9Qcsm5eI4/AMntnfyZZMCyz/Ats/L5fjPy28tvi2LfwHY7/APl4yk3x+M1yeLOj+V2pCrcOOHBIO729vlZlvfiy6e/UY8j5Lapn9E8mVpZklW7sX0Rru5vo/bbmSKCT+2D8wgy8fuDaIRGbj+7Xtvyjk+s2Cy65AtcGk9ZMHZ7Fn4ztn4y3/Bks/Ddm9snhPsSk5fEkEGTBJsHJIhJZ+Mss/GRq5ss/AfgLO/jk2dg5JBBsH5DAj5+QsvEwLPwyz/ALPymkR/jnPx8WWfh+EM9D67/xn1Pqb4/B59k5Jmmj+hl0PPhCCsPz5J+i7BPmNzkGH8MClJ9tgPZyDYb8WvqXGKPiLKDHdLd2Gorin3YlnHZl7zA+oRHEEbouof8AF3pkgs/OWWfnLJPy3z+GJLPw+SQSSQSQdskg7ZZkxM/jLLJLLI42jJ+E24TH4zbOyWQTMgibIcjpdSYxBZBJBZ2yyD/A/wAPiz/ACy+L5vi29gDTZrYJy2fB++tl8Ty0K/dqj48u1vpGDj6mj4QVPjJjgHluDtwjoWg5AduhjJ+L4KcebAcL24I4jsMOmk0b2+MZJoTkyLLwz25hu4+siu+c54z9SR7/AJb/APA2fkmPw+XzBZ+X8pB+X8P4CwsmfykJLOWdjyTfwxtllhefjLIPy9gCF2gssiyCywvn/DP/AIjyff8ADLNZOBZmOrzfRb1+WMEfuzrx3CE32UAYcNZX90TfIBhxh83rk0XEQBkR8QnxHkHuX8BLE9kkfi7nXPi0Jo+Rv5Pfwckvx2b442BT1M7x8hJ/8B/i/wCGSQSQWScvn85ZJZBJH5Z8vn/AJJILLOQSXxMHLLLNssg/xyCzsn4z8ZtlkkeWQWdkgs/B/m2fg/D/AIZ8ltr6+SQfmgCXxeaLv9YZNw+vw6ff6kePH3bfI+YGYQJifc0t/BjS4mCX1zXbat3s85a5ZByOfPxBYBTxhTk7gpgBLvkFz8EDH824zyI/6yH4n8H+Hz+HPFzYLGvKFlkez7ZZZZH4XCHfwNIuWT+T8ZZZZJJJ38MF8TZZ+Dz8JZt6sskg5Z+CYPxlkTNkFllkE2WWdnr8Myz8Fn+OfnOx+H8H4OPfMt0+o4ufBHqPjAP0T3/8fWenfufQgXeSHf8AGHUtfPzEzdMmunYE232EWXN9g3PiGaNm2thiw4vLLJY8QpBGrlhuE3B2fvzO2dnr7dBPJJ5yg/T63ySfg/G3sxJ/hnJbaTfU+sPZ/wAW/lxsDz8bby/n8b+T/Jln8hZZ+CYghN38sWkn4x2DlnLLIksn/wCFHq3lt7+Mg/D/AIv4+fyzH4TN6WWPr2S/l2KfNLOADz+2Rg/tbIQH4JXr5cbdnR3yR50EvO0c7ED4Ji/Yup5LH/t7JGkOltMMuBby1+bSUBhxh7yy2TG763KGSC+XWzX4i+zaFvx+SfwEke2zB2L2Y5PJpNvgZ9j/AAYnz/D5iyy0PLqZH+TZCD8H+KREyQWWfgLO2SR+NjslllkllllllllklnLLLP8AB/Ofnl8/4MC+QO74Wvjnk90a75Jpx79To0+flFXwDXlgQ4+/zI6/gXLlfcIYc/iMcVpAMcR6ZII0TsS93k674Nvz4ZHAPnLBDsHTmy2G/wAxGEziXmRkHOOyPyJ7HYZ5bCHpjxux+ZkP2W/3DbBr5Le0nRcPRP8AcjqbT5GF3x8nB9vzlhnhfogd8ck6yzLmfcxIf6gf7sLmsMGcJ/C6tfY/m58uNh97/Fj+P1K3zP5sxn8Z+M1s/Gw2OfnJMNs8fw8mJ/Dbb/iexMwfnPztlk/X4Pf8k/G2/gJO2WWWWWf4P4J8tt+J+f4Z384IdZH4evJCMvgXPqcuz8JjuHBDDA/a/wD2H2x2B8/uU13n4oIPP4g5ePLLD5kI/Nm/fywxXOFhiLJdQ+5OKM6Qge6/udwn9MmeT7ZfABXID5Kx0wT/AAhCNh/FgNnGTy+7FsHn2yJyvD5iW3ISOKOfE+8vhBttP3I+/wCr+KpnP+2Ro+p477b23GfDxf1LR/b+56frF5LB3/tcEfsWSPn/AErLP/TLD7wCeP4Idl1R8ZZO2WTHt8flL4/B+NM1i+bNPwJskssk5+CyzsEkx/mH4fbOQds5ZZZZJ+c/B/8ACx57fOTz3n8dg+Dn75FqMe6CEcPoIBT90qX8X7cjXw/zA4z+7+usaWXm37QgOnP0GHoSux5CkunyW3Bvy6Yo6G8Je+NY8Au+X8DB/wBtkNlfcyITl0uj4QaGhPn8CbI83sRcNLln/wDvdO/N9MtBS2zA9sgcbhAsUB0lzevf3duA/HIQePNJGu/Q3Rbk102Y/wAjEfla4J7cq/F7uEEfMZLaxxvUcSwTnQDj/uYWD4fUgaj5DWF96O9GPaLh8ZkzH6vXDD9Ror+5loMp3B3LSYYfcNzZ6DH6WTf7TId8+5Lnp2XI+fFlOjmNgg6ekjvu/u4e/n4/wyyDPx8/4P8Ag/45H4+Pye/5n5eEtj85+Fvmz8KBsP8A8H434k3kPo2UknpvZ0UXjtXpK9BbJun7jWHP4sDVNpQKae2zgstqbT1G/ay47g+0xL/mnDLeuRpX3/a+Qc/VtGdmOFpsdIPj/rbPZ8wB7bf9RBRwIAhw+5dO7tkPyIYTOuIBxpXnLH/77b8+LmYWB2TA88uBjbFH85eNGXoBz5k3o/REtHDvJPviSZs+1tIyTNYSbtrl9yg7l5xhos/TizRfZWTpEc9xu/EGGJv7sIm+fkmik7+kF5Pp6mSt/wBi4yHx+2bF+1GWhc/C3jV91Ugwh5o9/wCy8V/Tl0CD1IuZxHCf6CeVc/mcqUfbvHz8/VqQfmBAiWptlvct7nzY7ljuZa+rH6kSO/jIvme/hn385ExZF83x+T385/gfkaWB+MbPwzH5z7gPH/wJ3sd4xOrdZrxEzIddxeaC+6Xgtt7EwjnttdQ4QTrfAzdfVlfGS+DJaZYHOyjhgIflhyDbP7x/2MFuJT9uUTX7Jo1mQI9vA7cl0xaSYdEeedzsCFyQex2XzPXrYNg2bj3e7FDqyc6PjfNQ6T8mM49k/UjgZ/Ul1R/c1H1sqVYz7C6WKgR5jA4fUuRV/ot1zAj3bTPq+mcgViiPwy/Ge4+YAMEYet/Zbv4XRf8A2Q20yPiReJdVhfJ17skUHf2uMJ7ZaG6Ey1cg6HFhNT4XyUFz4Rmy2ZCY1IH77bZF4xbp8AkFwMXpX0WS/YmQctHMVuDlId44Ms4Ht3bZbbLLJImI/AWTewWWfhssgs/D5fEe/wCDJF8f/BllkeO/QnmI+DIDIdfbsep92LrxsTTs4d5diRpa+5cDe/jCCDsfC6zR213bdtF1ubO/dvz5e58hDcY0GFreF3mR7P61tGy5usnsDHaXE4+yfHoZds6mfFm0dvAOXuS9RlhwPfqCP9D9wXJgQpMRyXtzMbPIBzc+4nzkmZ4TeQN0WCX9SXsuvzLYNfqD+NfT9tOvIHj9yxtnBeMUGr5PIzh/uC4Bf1Jz9dNbBGfEJMOl+3kfhv0bWvvKtshL89tYkPrLuiMlF9W0R9pKIxExmJ83t0kdKQI7ZcCZ422XpQjfBTqQ03qHkOMz5Tsb6c/WRTpsLjZLwA+m4Y/AkPUDxuX3bAilsiX1KHv/ACfckz2z/DYJLJ/BfH4B+Nt/HfiNtR+p/Ox/g8/AfjJiyyy+f8GXYoP5kY6qr9dnEDT7YOWnhIPWd88vdGlkbuX8pUzPbVTyo/qvXC5TguOQp4znPv8AGN+3V3O3Dsz95IHh2xbYyeln+VYfg2Jn4pnoP3pDWCIHzYHt0FEZ6Ry3fZGeFkCfRMuQ8DpFE2ZZou7CZhbH+I1m4f8A2HKIA9HnzZXjdImI/MfgxRgs5duPN+HyBXOtNY3bPgMn5YUNuroaeFqzD4yVMu8y6d5d5LZaw4+fVvHB95aWhWjFpwc/VgnX3H81+4GjwZeQ2y5N08vTa+Nh0lGuW5qQgXumDw5ZXye+Qn5YPjB8wz9XROMiuPAmwAWvgfJMcfbWvbMPfzkEl8XzB+U/yHG09u5eeXbv5D/Bs/xCyyyff8EIPAtCZwz/AFcskTJ4QwuEIcZYA5dr2QI4i/KTB92WN7TrFuyMzIaXSI+C9XuhQ2/uWUwL7IQ0lBNJHBfL720nNLaH+59R4j5z2yAd06GxbVI9LhEmzhxsjDmW6dn/AMN1cJK3z6k0byGYzGU36We9E+uj5javRI4Lbx2xndjp5J1lv2C/WxV7InV+sclDQh/K4hP2LFvSemgfV3KXy3MUC9z+mQCgh8lzjjZ8wJ0679BAyzny3YYLXgTzzlnCOinbfxC+Y/VxjFjTtjqeM2VfC0Hcv4Q57C+IN0t0O+ThZPh7aHEnUeP9Wf8AAg/MQ6OkIgj/AIvkQd/z9cgx7IOh+ydf+Swn00PrB9x8vzODn+zHN1+9lGAWE5MIvmSz8ZZZ/gfl/wAS9BwmiPvJEfBN6D+V+8ZOZ7KDH1g3dWF0u35WcWImmxjr0WWd4w8babdps74Oyh0mG5yzZAaR+IdDZg9P3ZGsY0hmvmHZctxfiR8Jq8jY5nravGof4sQdCP7uYl5/UeMnejy4hiTfZQh782jcCPFTt7HX5t/Jvzc7L9wi5vKd3l4ekyQaviQv8qAfUelkszUAs+HTxC08HqDN69zx/c7f8DbTBgO66+BkruzB/wDgWDc2d6fic+rxzGW7j+mdsk+vYbWP3KED3k7yv0bxPQ+ZLmGx8BdRQvEQ82TDBxZeWfgT7lgjMWZ2AcgR26Q4fmbTUPn7XC/jZ8zjXhbBGNnPxn5P8/mdZ1v3ZTP0WkwfSVH6nZ4hf2+LIN/0/EbQHxsQOf0s8RCBz/VhY7YOrZQ6Wb+Mv4WWbYxZntv4f8d5vqLfJx3y55DdXcgaL+J1CTsjBy9xawwCz20MWwEGR/hgSsF9PxHrtpxItwbgkTXwkeHwl0PsgR1Kj5a0XYTrLI+IOfNCU9YjQ9thMtT3V3GfxPD8fIsi/DEggLH2A6zHGkM/ilGhNDmaJxzPSJfY+lq4w2KLANz+Jc63I/8AeXh+yQxnkBz1JmTm7NnBsKUT+cquV8Mp4D+J112M4PZve8I8jB/cp4r+GB5h/LZZzZeCj8XQWn1b8IH1kH5qD0n0znxPtYd2VGAmbpmYXLqLn3Yk0ewrPmzrps9XB+7nRYyQkJQGw6Hf7IMiRYnpLq3td4fzlkHJ/GWWWfu19c+4le56/U4Fb/S6gp/S5h228dl2+ppxcvhEIcGErQ8Gyl7+runLh7YPMd/cGch9w/3f/aCWcMT8oZzm9lPz2AHGT7dbsxZZZcpI5nuzmejPY4d7l9U7eMvGBpJzT2fcetphXhNqA/hJ4Z/c6D4fu68mMPZ5Ek6FyfNcLxstN0fc+NER9PYGvUszeHIanCGY20fZV5fBz2b5Dfb2m5KJV4Q+qifU8mDgLdbSPXUHIj9PiQGN5bQPi0oNJZnhpyxeNueR45H5ySag/mc4P9wm+Eidmcury8TqaXen3bkgMDMOZ8WjgsBb6fP1CdguYHj3zL9dIPke9ZnxaWPn6t3Bv+7h7atPJD7Lrt/QnaPvyrFTWYHYO/zl3+D6ZneQLxvgAz7SF8v+ws9JaxJHj2dvW0ecvBkiueMfuMBiJfJ15iZD7kch7k+ewks+9tI6OSp9ufnt10g3R8Tu2v8AshsLo8Tf8N/GWf4Zv9X+yM4WxcbF9pyX+lpJEx8e18bOd5sH+nKD+hs7Fqhlzi5dz9wODn6jGiQfhNvzn9dnrU/tsXFX+V5a/uH0P42+S7Gf05bkj/2hyafZcQgr5G9j7PPxsTyvX7l57jPbTDj0INUZjILfS5ZeWEyIunVqk2bOLy5YrT1xfjSFT42B1dDkmxMmHZDXkRQ+ID5SmTpnz25W5GrH/vjvD1bgbhDReRiO9LBv1sRaaTAi7odU7N50wX5uMeMTYqMnCVdTIal5CE978/5icrluR3Pb4rBffxf0n3Iu+Ao8wZGgAj03T6bNrPvF6ibdB4WIWuJ1PL7m0dZ0x9nmA7YNXbEi9+I6LhMd5Kz4Wrs+dYmbOhEE+YH6XpN40hqxPStqYB/Mn5QZ5MKUAR/3DF9+m0Bqg1mfDIQB2Iai34/DmMV+oL+GQTrMmPHspdhryYMYf+5h/wB2Id7mN8v/AMXeyZzB1jd78wC9F83ImBgNiXF/bKc4IYJj21vnwmMeMHCaoc7EmVgOE7b8HZGwNsMYa6dW+kbt9z2vBHbg8G+DqoPhPtIBv6f1BSfIpOHzfH56siZrxbbuAi6fLL8D8QcSMqfJDdGBuiHJmGv7kGwfRdsD8wfD/chlvwzt+PmOLIPQieSw7mMdDG2z7w3DfOR9eZF2Xwl9m8itHq9Zh+SRjnJ7iyXbr5FhDD5ViTGcU+J+YFn7bZfB9YuA+2XnUiB2ycI7hCiiPEs5PRch2At2vD6sAQOh9xxjBawqZMC6vsUz+AgfPsL37i+wf1E+mRpw78MEbb2whZta8nFfhHt7sgBe26zsR8SkULLq3Q1spB3hPsbe0KseEiefpQrwpfJo2GkfuwHU2Nz+VBcXPqH49QG89iDAILqPss0h8fEbbHs1eB9E/wA6weTuz2+c9OWpvFBmB/f+D+ct+4zU+PuwIdH5lTHBn1fLAWCE8S4Cm/T+bsPYB6iXx48uB8Fwfi/ik5uqoTfv1cvWRmjK98/uwC6/AT4Efdxi26AZfXHumvhtcs7sMYi6D5GOug8fKFgCdPuT48Y/ZF8ln8ywD+tLe+YQB4LfwUB/FEN+7cjWLRF5lLpCd4NJQeJ9RCfJDXXT2y/TNZLrFvekGGe3n6hIdx7kpg9WWq1xrXxZTuvPlCMkfltWfLaFOt+2y6epYltB/a16J8lx39I9XJ8MXQfSWwwPMJTBxPuU062/FDP3fMGSr0rpHfwRyYO95F+Jz7ye6HeqZKQ4yJj0g6As58BaXexJ0dtzpDogzcUuuE6gGxAXBCibkHT5lpebeWL7PLgexDbuXmEeSzeQHYXdRjjT421saJ5twWd6G+VAxgT4jkNwsEdJYxCxYVKh3yWOyg1Bsj8+iaWjS3tHH8XJDT/9HwWN0+fwf4Y/V0+ISaFni+m3cRc2Uele7F5wfU8xx9wxhLWZHzgkHHkhgctHSH6keI/zEmHbQ45Jo7pM2XvnkHg2uPfoZ8oP3JtWMJ1sVo+yOIJJGjZogM9nJyI9y23TDv2susmJYnv5Whnt9TqFuP8AEAE6a58RN9fk/GUpPjIEx3ZEPNnvIIrdgcY9zhOc83ke9FQC1jf+KRIxkTIdb7LV778v/JnwD7WPln9dyLe3+hH7wHgXyxChmTqqxfVXCxep0tvFy9OfcDHF8XJLz4ZJuTyPI4fkTgSi8xyXzJ+fmNgeL/F4ke5vYQAHykrFx8E5acLY1yBGa7Pp+lzBOfgjcYgI5HyYhcoRxrJ/BcwSpACPYD7tmHcLIw7ceS4Xefb5SFz2ysHOBH/Q9OM2fP2s4+N/mA+iwG0/GbbpZ9Tchiy8/ZAT1DtyLqymWDC1yOrbcfHG6n4jk9Txn3c719X+7OH0A2a9WMuH/cjP6JF6Df12FNL/AJUi4S/hn2fro2vJ/r5Lv9AsOz0+W5Py+ru+JTnEvRpul8pzvazHjYNfZRthpyPA7/UmkYcB/mH/AP0Wr3Ut+U1q/nJVrB+NvkU9b3UDfLw3s8bB+41VJnNhIXTsSWWzJhl4NJKxkl08NzkODQZPEYgfKbv74/DdOMYOPhPfpZbpAfmX5S3yEd+GBjt14kQgn3E1nc8nhLrmQ45vzc3X2gPIfu4A2fbuEcnML6X/AN9lfKb99SPVv6Sl66/uMNl9Plq7CTyxfbDCQqA/UwOZefBPsR9S+D4RhiId/cnmZpdkeRHqyv2eZZzg8zSVP2Gtg4Otp0T+GZ7wgJ724ROTgwyBVbL8p9RE9mcSchuA8i57uLZsJzp5OY5uYSn1LG86f3K0wfw2Bs+7Lh7YdPJam7Fhfg+JF8wxs8Zlq526+Wz9/wCA5GHhExyFbIZLq8gATx8jMDbw7H0wt5LJknb1dc29INr4bGI0YHzkyAA11hWlUo/iewQs+lv7xCWPB8+rFndfV5WHdTts5HmkXs/ZnTORtTto1w+tT2LhMfCvRRjDY+zLIYPuXdmTYEWsB1N7BD66WLpYQARh5WeXcP1HwKf01HzAMnpEvv8AcZGzcHkg978i309HRj2uDFsdzGfzI1YGJ7BuPzr4k7t2GJT3fiGCyHxB3Z8pETnO30RgqdTHc5Kt0Ek5OUwRuY2IKg8IrF/kQhqfEIMGK/nT9Wx9Ch9Wosq7YeFt1P18t8uqtjPklh5wEDsVyRpQTyanyWJ+yY2s0J2WBfDX8HSAbPhsvuLZuxmwmaFzLUbEgFwt7DuxUiaUdNsH4bDhgcusPfxLon1pHB9TdvR0Zx/PIyHlkBhizHI1J7GyHciNe3OqDLiU5GOLagAvUZKSb+BMy9WzXkOZ9JB0c5EDY926jwgRfxLC+tihsIJLqWPHzIVj0kFftSdRPgfiBOp8s5Az9WWPN+b6epYTmu2wOvzdPA9YWdT1vBGOJGE4wN6lcj+5O3ncjwWn1h9mzmc4AT5tq+K/Ng0MJfgY+YY+xL9VkZyOzJmSD9zeknG4QROn1D4nfu6NAfFjP5kP9Sj4ZfD7Kq6z5ZNPtAmPuzZE7pscRdi2HAJIkfBRZ3B6DLfAPz7I8EzzCTCdeRn1v8xLwtsfH6nSPvyJR2DrrE6ZD9Edwfs9gvA/gjyyOFPSx3x/9Mkr0DZmdTticTX6hH1YPglgqOPWTMwk/BHODHJOxHtqt/0vkP8AnLyRYfQsSaL8bMC6WCDR8yFnJkPm+xTGDn3FBpLUT+1JDdKTEQbfab2IMLB5T6WNCEFhxBZ/zmM8UtRsX2Rz1LfHkwh8gaJNbv1YdPfLMmec/wAQOEczZIyq8gnL0GCnsl06SXlg9JzeWcvNRHxGmPiZ9g/8sE8SXLjz5h6Tts2eCMz+bLhGzs8I+SDFmhp6MxLrw3liw2ScmA679wmG/aUG+UF3Z363KZwWatnwq/UBoyxuDJh6uYcWCV4Bu2wMx0SdivlleRxpEjS+SEJ6H4AgZi0TJB7aQeGS7xOuj2R637O869J6iFkhOBevYCefzZH0R1z0vNIdbJDfnkoEjCbXwMnYNP37KnEvrm3Ckd+W3G9Ptg/ug+x+LrST35RM35hvVhZEHZkGdDbQePzyygPsxjPZN77J69jd+KROdR/y1+NYE/GQ5GmZY5PbPBq+ouu79ktKD9WvEP6ZI5H+G48/u25fhYnWIaAfWWltNgPf3KKBz7bDOM+YM5p8kg3I3m/huvX6FmcJ/Ijf/aI0n/SZmx9yMRCgxCqC8sIPMgM8jZ/hiBPcu2Ns6WyfuP8AdTR1csSCyp2PwzCuLF6ens4ctu2+Ik8tQ5KfE+WcnTclDyZ+MtcgCfW+eJQHxn6IA/sh7ivPuRZ5OiTz8iFvzYOvNhnfgxm+HL/2Rg7CoPRyBnevIAO8orrenZBCwwXJgS+YzTB9pMWdCFhHo/F1mNH5SUtTZ0c2NCkaMjwySNvJPqevJPQvlGjEhY/V+8D2EP1w2RdXU2+i6bCT9cn8TvNs1b25SH9y5YNPic+QnrIB8soXfnLWLvlfC8jL1EubO2XmWeV+Z8xq+Y0cR8Rbc+SwfF+r2AeMuFkx6kCMZ8mQiW+3zlO213Pf6ti8ALHZ8kaOWHuLn6g60PBkzjPJV24/i8JbFPT9fgnByPrkA8kfrQTF5I+JCXS79yjdwI230uE8/cfIyuL9MDuj7ZWOnw+pwa4cgFxxl8DsLX+LC+KbcuybqOJtbTkLr6Ep+5Lo7TmdgLRE9ti17KIZ63h+ImXnMJIeMejdJ9tQszy4QHrZI5yeTPyE6zEMb8Ny99LnnzcbbJ+g3wLX/wC5MyVztsOj+rpz0vHLCXo7fxHEtzHNi9sdP4JBejkOX6uHZNmAmn+yP+ewgnJsmdm4J5GnwHFmw6DhYDbxWYQMPkeXFrcwJL0QmjbaLijXj4sfegXc+vY3qTT+L0SW0/VEhsgUBnvBPVfj2EJy4wn1ZAX55sLA4F9Tr+7MBBF8pYqchx7hAaH7MF8T3YiAAPiDjgmTSSXLwkNVuHivuT1nxB+6J1cOyBnC7/2R4zgWDk/iw49LXosLPY18SgV6fEDvYCe2PiuHxGLqQAwidDDTQj6Ej3JEx2+Ibs+5j5T4dvtI36yGmhardZMd3v5nBGRweLID1c3xF6NB2ycsXWwtrHYv8GQy82JyZ5p2xnPYBod+YuFsscatuDzydn1b5sMUgYdLmgriTZuQg8lltdOxp5IXykfbcbZTLB74OXz/AH5OyeFj9YMeH1bTPhK3g+ZMJmvuVp78Pm6e7Ub2z37nW4HjaAhfcA74TVvdLpk/2MEWT79r3vhl3npy1fkcJM4ORbh1hDo5tXi6usSv1tqWyHIgj+vyAQSJCNziV0ENBOjYpeNv1wcvKfV2sg/Dfxjdh+b+XEY01+PuHAej9fVi3GIIH0ElJrCnTJeqtrgYhqfAFwE+RhSV8lhDD5iH+XRsmq+TIey/aE54dhAfhDT8RBjxjCT8FkeTGmJ68G2z8NoeDLABq2mOIYE+JOfEixJfxcPJU8J+mfUd/HlbOLC66XZf4LXQYWri5LLEeQHnT7HL4ZbGHLf+R3Zw35bqWFyFog8RiZeTj+C2AnEN1kBZ0tDfYWwJMd6J6L124LxjhfljBhbno/UyGAYc07tmFYEfSBZIXMv02jyxOTY7b65DXYg20E0R8M4h5IY+2RDe/MsGaQhL4ssWVDAvi2A4EfeevXbUt2OqJm2mxww7jgiGwEK/uRrKOBlh0jrHow4WajdCESyEDGtkMS+gg4+NhdT+kNGP93SIhEjpcX+benm5Y8eEh1l6tCxQmi+YBLo56t/u6zqOv7sXfP1y3HyshsA2Yw6kcf8AstIjfg5Bh0fKy5IH1JqKcgg3j7PkRnZMXA8vgSKGin+Ef3ZeR+1txjYBj2Hmsek8I9md82ziYM9g6UTr7e5BIm3fIHSbnjlv82Fep/KD+bD039Ec/wD5bf1SH1hlvtEvRA42wWtE0Be/Bh2xqNqtfq8jJ7tolbm8mln1kjl7mtoWHEslQLd3+YQVYsZN+bIIObyaBdJsm583imezZljt67bf7w9Smud2xOweZeYTZBv2DpAnttlRySbe6ETSz/ouIJ41mzV39yNcJD4c3CBEwt6xLBalymn1Ho3to+RxhPiM+Z9T64itddTqPEwf7mj+yP2TbD8E8f8AcyPvb5XO23e31ZY6gujkfckI4qzI/I/5DE92IT+EH+2Jf5vIbp/QvSel9u4B5ZoJtvYPdNY3EMVz6j0yMz1P4iNh0IsWUvn3aq31cYOyg3j5y9Py/UUwuPqDzj8Wpnw6SHsclz7Cfss7PYInxuBb6MHjqJ/OQdyhX/UpMi0ZD6RRVHyDdz2ywLI64g0LW7bxh1YffNmu+HwQ7eBCD5AtyE6ykS+Ja+jDv73N+fmNgfGQDRbT8+LLsuLkURgeWG9bjiH75bLInM5/YSnWn7W+GIkEH3O5dICH8THW/wBZPkwlGR7uLQzW1NB0CFRcEAmBYxAjlnrovshff2kT8st68E5J+TOmMjsHqXyJ9s+58hsOMXG8LSXXkpvNgNyZOhI5xrst09E5/AWA5bAYFDOfuy+29xFlTdgTKkHP1dxkvjc8S+S//vKIH7iCfJ8QNhW1b0fUZuPR2fRIlzl6B7tufjETXzkgL4Ngr4mO+C2j1LRv3DB+IZXuEO3r8y08bJpdRow/ub0csB9yzD/ceX0uP+ZYLHX6l9tl9u2ZmbfoMO3m8P8AUtUebKgTAsQHDuewQFh8weJG9zUmPyABtiXbp1hl4+74lZMZ0431t8QnTVnpn4s1oTfYQiPq5j5WOrwHQtwcDL1KrLgPvLTI92GPTyyMcndLJAaQp2D5lfph7MTRMd5qEzR/UOED422iN8lowZaNhciFufO3IOttvH777Or4dN/DiMgDn7hHZdMNh5Kc9dkQem4V4x1TtjIU5bk9zjAQ8JLwLttQM8H4n0cfO3Aax7FM7HP1MVYG5o6mLKaHxE+8uO8Oj9y39a+Qv4pnXpbSPV5O+uWKPMWdE/bIETh832Ti7DG7RmLrYtVF5PXEe3LNT7t0IBCR4JgkuWQ8gNu84hh2+yEXPtCjAbufq9jCgKQzrp9XPwfnJ9Bxk6PL0xmOnyPf/wC+2ajkUecjUTSe/EQvKzI+klVkQJ34hfadR930wnXsA9uGzYQLp4XXgyaH+d83rWHF+zaevSHh7It8J2in2rjX3b7i4LGK6lzJx+BP4Kwd7yfB9lQb5DfeWyfDbLFgIILUtP1ZecI3VXst+oksscf3Pn9cjYaL8t4znsCvXk9B9y6A2dWfQXanQ+YDwS6bkDR9To935sppkyOMiga+Y7C9mvf7tkCl8woAAB9EuPzZL72V8h214h9T78RF8Flt10mJp/SEaz+2W4abgH+yFhAbY1jLvzfY9jyWM1z2f6L1DLOm78dlO4LPhwt3tsZqfryK5j4JMYDaaKeuWIGUCWfEbhVjzYBlAO2T77Qj+3jrUN+ss5C424zDpK4PGQvye72PrFuyQHOXrsIfbGxkFOO3A+Y6N6z3xInWdEkj4RmFj4W45K4x3iypGHMd2JlX6S0Bp8EfFq9WCcDn4t+40+GzafyHJS+/xL963XDZq3tjAzMIXp+v/t8w0TOBrP0nbRrh8wAZ5MZdC2AS5DeAPbbI+w+WpxL4f8WzBYs1bLlvsvZjt7Fjyb8aOXW/Rsy/EkYfEsj8wvv2N+uyL5xYffxPAToUg4+YZ7n9x7WhPpgNX7cgZZlt4t/7yJANbSMNp+zaiqfNnJhA3zZYT7y9rA02YZ0xf3kyAAcOtxHiH8QkMzr/AFenfdj13YGRZvy6l7I3aFyw5Hm6Fr5iYju62XsPmxB8y+QSLAsN5ehuG9LS7yPlTOZ8HkJoZDYx+n/sBm4ha4XkNn4Z+3wWsD6g55fd4hEtOzN6mEzkkci3CHiYLrh+2R7d73sRyDzchM6t2t+2RZ5EzWScEh105tymJozp7sLzASRzzIOGRg4WT4eXOCwR8zRDMZ5d8v4bIIzzvzalEtcn8vLGJ5cnoGkdm+wFHmI9OelqORYcsHRFa8JnwAsL97YB5YEZM/5JBhIrDP3k89fCHlIkxRaJJ9Shb5Nw/wDbfmMFw+ssgA+L+SuysQ32V+nwS/O8aGZp8shzBbV4RNZZoD+5iHp2cexalIddJMfhsyfhstDjLuEM77AbfXJ7tzt8vhd9+4cXMZ4EEJX6nvIBw/1J0cugHWbQnt1Cch3F8d2F3T5i4Jwx6N0+ZSIeRFT5zlp745JtJPnHF7mR/LyAAHgZ+Ov5KOk0PP7yJ+sX67c/1+7lEfqF1usP6Q7BFDs+/RbAHPll0x1/dnvMsWPYda9nUnytXtsSMCNo3yI8WnX2P/YOE/tK9b34hWh/cBhNsA4+0lHZO8MLBckMCsTqJextj3NIOoFfudAZ9XLRO+uP1ApH4Wpqjawj5kHbbfK/ZHh4fUd3Y0qA/MKnSWhRz6J7n+1g1F2V/UnyS3o8gf5/qWe43ow8ZciPntkyehySN9ggwE04/Eojy8L5sHjtrplPJebx6RA25wkzwfZfCUVjJDoSqFtlgYnke3o4LLAgT6neD5bA963cex6t2sEstNEM7DzBkfOHkwEDs3XErxsIF8Otw/IAjOBwutPt08hjEx2EnmQHhFlNEBKjxdI/BjWEd/mzvA4vi1/S2WdIp5Ah198TfZhkc8jyswC8i8Qjsn34kf25MxylR1sM8C4R8wDBSddk7HLEPmohM+v/AG4s+STicE5r8ER/JjmIeWdUBHvP4TjmeZZZ7AMd7Gxb92nvjHr6Tuu3ypfdXEnCx/dPDwlAHrO9fJA+S9Pq1eeXQGZKdmjA9k6gHT7sDn/7brn8Ro6fLyCQQXlkfD+b5UZPTlvyWC5rM+4IqHq3Q9kx4LkvjltknDvlqXafMJAH2ScR+R+74+r5jpjZ4PDp+5oicTwBOrKjX7vljLfV2CMrVl1q8tQfHzFZEW98GIeKWcH5s4WFxjDS46YYiJWml5AwBdsAxCb/ADEg5OFuzAY47DY7t+tSRvYPguIMgRj34in6auKY/iaSMuFUzOfuflZsDwPuZfGzLnZpX/uZrwETs+J7P4AC5ozotlusd3i8wLfN5h5YScsn8ymzkz/pt+OOlt/i8kcfiEeLUUiFaXw3iWt//Nbb34tFkI8sOhEGFxdkTZtjVsOpPclmjPtAVcSgdtxL6xa3dW2vvVh/jqYU8HIWk00+4O29MF4+rjaDP5Wr7+MWQOClyD2RwyQOwZimfZYM3CaDIe2WMc+vb5g/UGBzk9mRY7lou6x3Ok+PKcLrsEnMcMALelg6f/7zf1S9DYAfMuA8CO77CMdtfb+amPkkGh6s2LkZoMLB622hfeW+cb9wl9Pm+1QHEbE7+ctddbvvD4s3bZB4r7XEPO/8Sb8kKxM6csiWtT6aJt4HY9DyxyfuTa1cWDaZxG3JZtrloh5If1g6Xdk6XO/cWu5yV7JsIKKkrCB2DlRHK4+eWYLtyL5mzvt2bCjz5lpv91KHWQ/wMAnwn1IQeO9tu9dtI/Ud2x6x8JJQW3RV92KYx8IuMgSvH8GpemaVZMx7P3/9ulvvbtT/AKbNwpxFhPIyd0/+2cxIQNPYcfzcBmUngXdMmO+xdRP7k+FnjIPk8twG7X6hWcfMT6zsDHmBH1JwXkN28tWfh5B8Uf8AJ6/g/D05FJ/DcNzjeqGGMA3rrEhBxfsjvpOt8n6JOH1JmaeWgCPCt+uRpOkGZhfBu3qEV9yPsQCbPerIc/8A95YH6ZDuj+rB8ZJXVkeN/m7N62JfHk6Hyzc325mPCZGNvW7cYXB+p5lDo7H6Le1cnpLAeFqEZDwFPuI5N/duiAll868t+kCKgEDzdn73Y1+J7F5cDjawgH3EqfA4weZSHKjLgfWNGrp6R3cwGJYDhhcGHE7pGOaYCVGzUM4N2HmZOh9Y82Zxs3XHfz/sTYAG6X1FNx1pcsYu2u9s2D2TdzcIQj7kRzc5amc1wjLdN+y2yGnntiHzaBcpvaLavoh8kBNydeLfh2eY5F52IC8hJjknfPZuX5iJZ4tjA9//AItr79RxjZ8TGkcPTy+93qPpcUtMp8uQ1mynZC3p8R96Q0B6GpDqGSuQ/SSHQ/qYgPpLz8fIaz1jP8HSLU6OXF9YWK9bfqsUu8Fi6fLfife9fhsvmJ7/AInDHIVj5kreuF8Q/vanIO3HzA+D2dfONwF46krCD5bUc3zLSaDyx2vPqDywDsDl624RfkSswN2P9VzEIAyAPqAE/wDylhuduisQYZ/aGf1knw2yT4Hb6+OSHyZ926CkJ2++2KOiQ7/paufoWioPuw1Hlqjwew8b/uG7qzAdH6uH2j86/V6RsN10IejqXoUCwRvSpdxR+yHDqM8HLh182D5abCi5ttH9Nsjej5KPYlj8vmDY+YG3zewkntzuHm2IOghaOYC5N3cIme73Sfd9isBG0nQGR7XiQxCsjdbYn/E3FvlnR8WQX29IS7jvxA3WO/7kmgA5/UWQerHY3IGPrIRfIlaevCZTzGszFv2lwvyDJOITjMydg8l2LCZXciZOyc/CaO8CTMesb4aWuMhE+pjnATTLAjyxcIR+5Tzoi4tAGM8vM/donkGZfOQlfa2h9xCFBtrXeaadOWjZttvc2H18S14SXO9cj/cm/ihT95JXTY/q/Z4eq2iZMC8bfwXMf0PL1oIfM81xvVO5L0fmS4O5uwAnHzYNPi5HkdRRT7y+M7ipRR/ZkQ1PsdhQAdNdT+5wbGEt2quo/czXf6sQFs6f1YAeTp/ceP8A+9I4eGW9DM3CD95+7iI37jeMZPeMsP5JOge5Zj+wbPAP4Xg6kPqGCM6tEN35y1KgW3nR6sBMmWPnv3Pd7Dy5rfu9OvuPxbmvSKQAQuXtqNn9xp0IKOvw/cBzZK0gjPlnMSfA0TIaTi3YtDg8y9rTDb9kNhk72dDyRhab5I7LHn1OW+PLn2XRPAz9+w3wjLAJ+0WCq5c+hh+aPWO8IWGMnIHy0bJa+YwViWWAi3BfQT8EqVNvIgvbryZUWEgNbg+0y3RatqVT6LgAfuKV8fMdMNPht4+/U+4WHwORwP3GQ3krwD+AYnN+Y5E/a8BazkTnfog8iN9SDs8Lil/EaeQXE++z4MS/2dkju9u9tiz2kODApLC74ux3A0xb6tSdhrErmdZGVtzuYE1m+1jHD0/9sC4LAWffsGM10Cco6/8A7dfMP1b+CTXfFjhb7eWnbNj7T5Xtna/vE8Je+HGEHpGu67qcbOnevZb4ah5N30Gu5HeA+5wCECY9XcbF02HWDd7BDfl+JNvOr8wdn/8A3JcQZADDIcLlsWuoPPdITnn2JZqavuVvnP1LBxWrtkF+EYyj+7I3/YX0aLwK/UdkCfqyl4TgHWFJ3nlku/eSWnnzH2zzZo6O5tibfk7c91h+jCD1F5Gy2uLHmoczJfglaaYF06xQGajJ5vVkR1Q7DU6fK2/6SxwnHtoHn9pv2GEM84OpG7M5JCfVHHCDaJ74Aesjfd2DmFgj21nYmjtfJAIWBsJvqXDdZ2CB4VyHnH0slj5+RKXIzvxGYTBduibrCW4FiF1Vj7vzIeMesNq1h4Z2toJGFbHlOyuavtsu8n/yIrt89th+pEPOB+u0V8r+WTBXbbHDgLZXfixf5hAiIwmG8Cb2ET4MY3hYDkA8XdrhPRQPS0TgOfzD1Y4sZ+r2AT7kxM03bk+BDLMeRbRKIwkFKHblAIRyeGx0EBcgZyaAzDvylynq7JBdXL11yyXoanm/E/bCB8MkwNvZ/YnhY98/U4h5IO+EzIl+4kIpB5/UzY3f/cgHMSS5hLOu2nex+WlPh+oz4m80r/syAfqBZ47s+puVD6LNLWGyTijHyHILwNiD3IXSLK7uFrJ7OBXAhY5O/ZD7f0vBe3938aReoh9Wa1yXzdZ145L0h4FOnmFoh2GYCXa85Naqvm0fyzXSgQ6/czM1DrbRMkODLSNB6wBzqsq/ZP6R2Txmxu55Y/hYLF+SNjbveWnTloOd2WpbqL53N9uAXYggXCpN1hxlkG7wjB+pCYN+1th+FPqyw76m4zy+b0sYPj6mh1Q2B0/gupIXUPmIeO3pgWLjhy0hlfdoZ8kpi7/MQRNF9JdpbOGePIcAdH16xs9bjOHHNvCrGgYSbEDs0EZ+DJiAawt1kEQbAIYcCZVWgq6Xnxe3qEH3yQH432OX3sIx8Wcj/AtiPiC5BD/uRYDHIEKDgQCJEgOWw+MsD/J7A3DD7JPp0/Uu8V4Swn2PiPpg/UmHRy1seWiH90g8l4HC00uwHzhME+c/9kO1AiooxXi5ZfZA0Gy6PCRhS+5T5LfdoOcf3fHH6gG46fMvzPJbnbM4cgdgiXHv39TSurY9cnqKswr9fxao1duUnFpEC+ZGKIfckVbc8ML2D+5R0ZHQQh5C/qWUeRWfcZ8wRmr1ERv+18gbTa4fEH97Q+DdhPiBM7YVwFDt9PCWLp0TQbpzYQEXujs/okrptDFEdPbWF1K22SAmnTyIuPW24U+yY4T2PvPqQwdH4kHxeFzPBAVcDi/Mo+vhnMy/VvHh92fAzog9kL5LaQmviXNM+CfhyzNfZSsWlqNnjlkrEMjs+XzZz7iM2JQIOTscmAHbBwUi7aeXkq4RrsoAt1GJOtu3YCHBxdScOv4s4bM882J1+TLVx9YT+lwjozU7B3YDfIXx+PP8AeJsY3uf+9kJ4hL3PzKh8snfp1hVf/BcA5H8+TdQnT+Gy4cM8tqsgc9tOvzHgOw9s45wkNxbqbHi624DPfYjfGpDqFvHWMBxZw4RsrtvTIGvYEa2YPpuswNDkivIyvU9nwgPnbecH33OwDV3CSeYY76JcdOyFPMZTo56yqn1QzhlvvoSe4wv9EbP97lpjj4Lh4MB4IUwL45I7BsugL9QjD2dEKZsvahGXzwZYIyN/KgIzxJLjTw23hx5OwhOMc9ozZNDon8RftmNj3yTg+MMPO29a/MjpyJ9uvZADidJxORcMN+qMGHSxlYew0unbtPI3ZuXNeBL5exB9N8l80kbceSwCAB+ZPly+jmXkO3Ovu4LWPufsIiYSYluJSNtbcf8WSLoSN+AeySMPIwDly7B0mQsHLD6xodYHNZSg5kdV1L7dMPJVynuEY8G2ImpsAHF0vpMnrsXkv4CY674t8f7mKfOzQvR1/qFYQnuykP0/cvv4fpdCuqY0V8nPjTf4uTMMJLdw2yAesKNfxFYp65ZSYj1dgHJ99tjsl8nZqcbPgO2Duz4tnwJHrlrwbOLfxNprkfB5AHZYRScmIANgoevtiNjVhG5GKf7k4abJWGZsLrmv0bcf26xsOuckH79QHnz8x8NfbeqvCwHU/zlu0/X2B/D4yQJr0nCnzFNeRnBr/M89HwQaOfDFxnqIt8fjLayWkNEs+lWoNjmD5Kkg8HzOGY+iziNPm4wI0xIfS0KdH6b3mCettZ6whVvi3v1IlSvkkRDUcjfLl2JKkHO9hnHz2ytnNA+4duiftsF0fMiTyANyUcet8F22fyFht3yEH4bnsm9I/XA9jP22MEz8CWAEU8ZXuBcmvIFzHASDNLpnjZdGODYcIu2T3PbVkHn7k27+CBDkaRHchRrZzONYsB1ZcSPwRE99LM14mvZ9mgcgh8H6gS6/f4PLeT7EOS7c1amPWLm6A+4xf6LbpGuLnB5+4jXzdF5XwswPxOEvUQIG478vl27/WR4hd35gfvsz329V7doFsf2u2t2PbD5Oj8tY62E+WX5b6nLwljeFn+lql4wcD2O29mzhOKcl3mr4tS+epCdSUK3dnkvv23f2Xq9nJoDjzYGhwIGlBT4jmy/9pAD+WujFfiK57LHYMvcHbrJUwPiQRd3L5n7ZPFweF8yfgZTEf0sWekpAccur82WT1H+rs+r5EW71qa7g4Fz3r4XbDjs3MeOyE5ZyCBc9mfr8bRWBeSFajaEBzCHrXn1Ekylowvi2T66rJwt+TKaSnxdb+gX2pL4oJwctovAvNsTev3JX0vLcPnuo/FpP3EWjGi4t0T+Vw0w3wiiul2t3JOJuDXp3eTkppgeXzrAgz4MsFv2svo/V5dvKINYQZuq/RauhNZYNIevsMLPK6RHR/cRh2Nx/VmBtDsu/h9thi2HejCaB81nOAYowF30TzL8ufq5Q7uy0te5EEfEDV1PbOzZ8+CFrvZJ49m9TodtwFxzjvYRfdkGe2HNxIe3u3e3itha+lj2AdydvXT6keAIDq5FoAxe5x8QBh8m9sJfkEHA7CdYAYGfZwket5zL9r6kDmHyz+H+UWxilPr9Q7lnxCJ4H/bflQPi4OHn4jE6nxIC/BDs9EiZ82LUrLAm7sPkGdk34hABGpXvx9Wk6wuGdYI+H1YA6fMF7rzYWfg8toWp7aHN+kunwBlCervxKHg5h92epydHyZetcSyOx+54jh9whz6yYAaHtoDnPLWo1bQEfN9ZVeH4sE4fXzYgw/sgD5odzNs1nCW/DiIGvmT4CwHGNWxvq3l8mSd7aZ+L96Lc96/dse3bhLA+wIrZYyb+wjinzZFt6S35YeOETyMSyYGHYVDg3gpwj7c/MXW6aBFFvfY91A924x1vNsXmfMCybdXz5G3bMX+rKTwb4wC9cuIcfcvnyyL9fxPnPwx2w+vwvPJCaTEf+Sa4WH+4dDTyf3bXnYKnjY/1dIEpvB/ieAfd7GSnI94VuIv2bGwmH1+Lod4SARLY34vLBPLbbja+BbL9NQm+vn+r4piI8jxEj3WW5E3qEnrdvNY2DpsU65D8m8tMm9cv8XxXJDfH1PcyF6QFBWfSfXw/d5gqATTN+7Cvuya+y4zgQhfTAAnJQ6bA+OesBx1fmfkvburxanr4pdkP7vgpQB1fwJxm5M/hnIM4PhB5e/EHj1utAE+bqfSXJ4/d1flLl/J+orgODntoSGpsC+80mj0bN9/X2NJz8fMFefnGQ0a8YXfcWj8iuRvkDCH3BDO/pZjfIxZk+KFdbDhh93h9kn5E+RwIZWGshh35iJ9rOdkHsFO/3l5F7X1NwkwPzPui4zhhfqYL5YGnA5LcvhuzL3Wyxnk06Nu3klCjCnaAew9NuLZnzdN2CyuR+o9+okL7r3GzdUwEg0C8Fx6s7NDX+r5hH7ESnh7svvAjJkOs+Rfq+JmI8uWLrsUZ7x/yXg8Rv9S16bP+7g4mR/qHTwGIkekxjJmqXPY3hIOfAsAOWMQOByDo4fBOnIeRf62h+0WL15AeP3B0+uX9Akb/AAM//wAok+s0AjfVSCOk/dq1jCvgzGYXMO8OSPLJJ2X5wz5Zh1Hu2Ibl6n1fCJ/EKJ5+4d2Mkc/cd+RPt76tOfwMxJWL0lGDC4BDCPbg1jpL9lcYifolweGQjxWBd1iAvb3V8CUh3fE7Vx8IADYwgIQVzgeRVJbjh/MfggU+kB49W6pAkC8/4kdxHeWG+hnKRwFxUPgznIPllmIPOE+PnjZahy9pfzZ96fiKV9hYtdy4OW/lcfZvMQC9JlwfIsYB9kLtr92RvzkC94VXq4Vet21sT+pzf0/EA8gFvfm8ve+XLmY/lk20g/guu+YQ11NktHMaXSAz91wLGbzcMh6l5Z++T+Js74IN6eoP03hHON9EedfAfUmG3dZFRLPLOfinYJJJiPLLXB5Zz3QTD2Fn+pPO4/7W++JX+eTD9uP62OfwJQ+J92vvPkskMCHDDJAzFhDD4tVc+oDf7p7Cy0Pq1iF1sjG3RjnH322+0f8AiUbyUDeBODCAdQF4Cu/Ux25Fg2m84Tzj9AWzm3w+zoNflhF/P3OJyMeF4q2Ie/cvAezpDb4Bv6m/gjMyL9ns8j7BomN0E288IXXYDtxzbp5Xv7ko8C3HgGE8DwYT2c7In0iQfI3kkzAsC9bd8w/3LSTvvyTLjOotA21Jb7LtBP3dlh+oUen6lu38Pm9puviSB4/Nj+lm5OHhE6Nfid0AS8D1j/h+Lp+0Y5nb60Zj2QHW8rc+7sq+ZgVPcCFHr2KTRHhay6fFr16S5MuvktBvJe82HNL5HzLhM57B/dOW85FqNhAceX2elllkAn3B0LqnsMHn1LQ6OdjcpZjXfwCG2lzkg3BSwOcfEVw550g6ae8tAIxvy63xcT7FszDDF3vuTcmq+Slszb/q+ClR/jIE3CF/WT8ic0/cVi4rZH2GdezPcI7JH8Dyx+I2DOlt5xZ6V9yLZwW6ynu6NOXFEvA6w9/ioh7YP7kHfLNdiO05AlbM1xZPDCR90z5vuI3f5RqJfiyk0+LHFPiC36P8zLqwYKT5cKHF+PcsvQ+ZMO31Yi7PrfIOJPLOwHWarvNvjQZGNDtzkI69ZNWRPPUwuv1ViPDjtrc89iCcEHYCYgC13IikrOvl8CIa4PPm2uG079Tc+nLghsEAPJMWMHtEdx+AP18zh32TqDuLt0amw5PiEvwn3D928vdlQ30mDjYd5F5DZuPiIv8AaAflLAFzHnLmAQ/uyD8F7PpyFH6gknjfFe3DObaN+9iQ/EbeLG/EQ093J1ni0pWOjX+Jd3Zv5LM7Cnon2IX/AEbHC2HG2B5GZ+fU+/j4n8ZESUfCf1Y5sDMkmejr9XEM120T0Tv6nQ4//rvU75Io9ICXxZkHdZ3GCK4rFYeHsnX5vRc+Ix5w9jJ+RyTCZ9Qbuch8Tw9nJvz/APLHayA6Pi5oL40+1nNg5QwiOnf5gzJzevPu+4P6jBfPsbOvlCEnTxl6XYB52CfqE3Lp6QySA2RNDmWC+jstgwgjnrm3NvbOB8237Q+OfEInfmYfstx+Q0hI8IXh83J9PISzkmlw5lthoe3N/CI6vzvYYhL/ALgK+YzDtgRNfiIgnq5x6/FkImCZ0WeoW0C72TEwtJ3+oXQdsFCZ8NZQ16m0eQNnsLw/EO+/BN1cPi5i9/PtgDqvWEZdh0J5fVegyr7J8IV4dWPyI7LwjH12hh8xzfu/mC/qLPvPq6I6X3ZLb9fVrz9SMH37EvZPS6TimCPLw8L4PiN4dhyOTCBsqYd2eDrPI0UNjU0bHSDkfgyEl2OyFh+S0wwW9spj1Y9sRs8NuL/f/kH3RLbW5UH1bYDiFw620G+Q8bhIXzWBDJPoTkfrII0c4z3Rml8fuFtAPuZrssq/H/5Zt5sD1aNnvqJHXr+ZZ8JCGpvZQ+Nq6N2BGH0gxh5dO/dvVSRcHv1ZgvrcHO2yXkPpyGqHY9jyDI7aCd+InS7abeTB47nICHeIOn17Gmdg/rF1H7gx/dtrw7YnjJiPS5LDyav7BqfueBYns2tAfN9JlZdj/NuXnEC4+RPpXkPOOSNmRan6kCfVnLAuq4vh0lrmQc/d70Cutr48i4PbQVLgMMwaidPVfI5l5HIc2Ss8ch7QNW2YjFO523s+tjaen4nYDPhcCyvteb8Fnv6WhT5Usz9WlbMLI/VqM55pJW/flqzE66hchOhezJDlgxkNIMiX4Y/GRP4PyIj7Jhr0hXssXiBOfBOTsGLuf3spHlC/3Oc0Tso+B8RA/n8YgJnSZ/oj5E2IfxycHxf0bRg2Hb6fcB3BjGfZIsO9f9XsY9Bvk7zb2d3MPATIHX9TZdFCmdmHxheDWx+C9jy1ZFngh/Xs2NNvxAP7nh8W56fMAa5H2exJfCLCb5GJfRNunxPkPtf1f0BIfyl1fm2SfTeQP1Pm92VFxb6fHY9Ih3yXDftck1fEB/X8QfkjCJ2deswV5YZdlK5yV5IBnICL0XkBKZyB1eSB+0g268PLOcUdO/NyXktDn4CIzZlHyzPlYhORg6XkhHlsXzt0rgQrZ8xVz5ZyPuc15c+IxE/cqmyP4lrhwhi8u6aDPG1DPVzwiWy8yFmlnMhvLhI5PiCC+Pwf4btl8fnoOXJvxOQPFZNv2h03q7ED+X/qPm9D+YTXOjZDeDlqMdEOxChAUfZH59FiELpIzhL4zVg+kkXyzBofUOaIPqduvf8AxYzxgPQ5JtcDaTm3AAuc0wKweHC/kk7GobBO4EoO7+rfA2WDywHXIKkAHqNB4f3fCb9lpJpCgfwyzeZ+77wkLr23zbloZ3A4ET+cBK/tS/qEx4erAfTBNq+Xlp7Zg/PSfn529MzPm3fr8T4fBuI2MH2QR8iZ+t/8mfp2Fm2bztgBxPL4Y3WU1z5L/SWurC+0G2QfUkeBasw6+y0YRw7Ic8ugJLTfOw0rjGWbstD5MdrT8s7WeT07bNcLEdsWAFwyJS6C+l+nFsb8T2Tjex7aSelfck7+LY+vxN1pmR379sMghkAl+sOuz9/EPkjJ8nw/DYRLm3D/AAY9s5Z+MH72yfm3meqIVjwh7PIvBOF85hD/AKk97tv6jdcAsvsE5jPq4duYHJAXC+fDD8QTbq5YUQPiCcPlMxAPm91J7k+D4f8AyQ6jQ58z8IOBhX4kAGWXBs7/AIFiPaH7mQDpIWMfJmexKTge/hof1UPCS/cO/wAPkubvST7kwcj3sQy4QvBdNQc7AVP4l/y+SJOxvbHL9kbYflm4fmO/8lgH1Yj4xx+M/cdIUN2blvHiTXzf/rZ6fFzFzRaO68SfDkm1/iXT3fJ4IdgGJ2f0wgGX0j4bDpThcIQ7OSCTtD0Exz8ycuRv3AJizmXD+o/hssD2TOxdncbvrIl5DL2PL1GmI/uw244Rx6SEW2BNl6ARm6nUFoBKqyBurM/AO/h4/D1yY5HS8j8HPy3zD+G0b9Wo/py+jdIOBzI+dyX04vICni7B7er+4D3Vmfuxv5eWnvrjb/3fYMPRuQomXAvpcJsPm2nsHT/WyMwebIhZvNz8EzDcYcp3x5OfZG3b3Mh98sGHCSH5gQcWXr5fcAvdiM+kzA5+k3aZ8yGfPmBevzDNX4nqcXU3Z+HJbWD4n2fgYH1AkGLIwuzrIOZyFw5yV+kAI+EwfXlj9RGQ+Sf698Q5D5YxPgWBCT7CnP4HLbei5kA3xAGfxJg3Fk+QMchxufMg8eJOevI2nfZ9wWnh5kXUS9DEkFheeyXYTpAnzkhwgVY4fqXZBOsjXl3A8tGfqe+k/WwJabgQ+bXzAyXLO9sByPOw17Yb9Qw2jOn8XCUUZsriduA/P1GLW1srhlzb5lZK5BjcbhLbbsYhBnY92ffweXsf4+ydj8Mr9dICfEQF+CIfszJP2OP7i3N+k4QdDlwxA5/UhODcjI/VN1/JYvY9sQfLnCxWDAsHNEo0IIWv9I+4ftIuJz8yQCPWRB+tnQh1ds+seXZvl4TrfhOl8ziPLrPS4LAqhQ9ui/bLRDyAusS9mHdOQfqcGWBWPZuc49sQYSHzcn8wCjrfm2k+5YPkmWofueh8cWy/mkt6E+2Ekd8WQD94u8TX6NvB18lb83c/TyC2ml8gD0+7L1nyIBiaXWj1k/F81wH8SbnOQDnsA5OUQ46keF9RL0lCcE+W0ia7EXwSTol2OP4gIggHkTx7fJO8I3+0Ondb5rJG6h5bm8XhIOrpcPjEvX6l7Ev49vIwUR5+D2zkHPwf5fP438PKeGOBMeem38lZh85cz+UbD+kcHysw8jNgf8Hf7s/HGZ+6JuRDfFPdfMunCZDt8mQ8EJ4QlzTHxMsQ/wDbPcMP/WRjn7STjsK7mAOKvuxFk1GQMDllTbK9gozEtPka+sG81YXT7YOjfq2YGQLlDcivIuEDtCQRQl0KUyfGHqM1IyeQ4fchRw9gSfi7npIhywD+FO+FZPIb9S3ysIH5xBj+sJS311gL8pXJ9Rv0Mfbo2u8+YP1HdtvnjOhKPo/q58JadIT0Jz32AJ00SrAEUbvZhEl0We1ow8lTjbLHF9r2BqQJC4r1OziA9bs3TbxRhvZGtgsCwggfEfcBiogMfwfL5sgny8SwP6THSWfE3zHkeT7/AI7bP+CPmvd8bo9bQ+Zb+hsBH1FqoZ4yEedQsP6E+CMao/v+rTtNyYOFcF+LVQnx2zH6emww4p6DhaflOON4GIu3V8CoytD/ANtoyHQaYp11kZ4hvDJzgkfFpgYExe2xxGZ8mBN0lWGsSKnXTlpEcCXMHWXpnQ7D+S0wTQ57Kz9yNJy9+hH8dGSvbUHl73sPM+JSh18mq+ErL5EwfEXgeMcT5A5+WFb8x6/hk/wWPperEjr5Z/VHi8bXf6TsvFzpGjUmqdzryGVcaNr1C4LkPgKPD+eFsgZf3yzPB+mBdEsHkD+4nyTOjk7zB8m2fJaG/LM5eJOzehjMs5ssuuRnCTVifKz7ZiF5Lp9SqoeXRnY3OQNFlvqJwA2xjfTUSbg4ey6D/X4JyyzbRH4jTkV1fMHpPXM+XGQ8jyff8hvbPz/FfJh+bGC0exrj6WVUB8XFLDvUkHnmx+T5eAPwsb30bW5dkLf8qxhKdOkbxyz54tn7tg1nX2Ud3k+cfiH/APT62B0AsH1u+ryIFgtOOQiY2hyOxbQewb6CRxORrZ83aJOfEQ8vEshHtuclPfwbjq8vTRVu8gPXZbS9btqXUwn6Yh4vi/aPwsZ9dlL4MsTPRWIesRy6ux6niU+Ubda+bMA+zqH+IF4erqH5s+Y9sza5wnpx8dLZzH+Z43X9kDiQKw/Ssm5/yEj95OTvB/DKYAH0/mGyde5Z33LoCXDj137kQiQhh+GiW6lnf0gHfll+RL0PrLj9jwfb6o3I9YHT7MGfowvHP1gwQB5ljnYMiXltvZh+K2IGVY5etwQbZHk/4Hkwfli40+2R818152wN+WK/0yj+eNnnztsOB4GPL9W+SocTH+bznDh8Jb44nsYYOcsavkGBbo57FnL1ccdbXdOwuZk7tw7cIz/+mzIzsxs9BMCPhuhHKBk9/Fw27ctOQIb7BfmcHbXi0DsljlkZIvbjwuOsPY/DUjOydXmwkBjDT7fMsU9EPvZR1ZGDV9gw/iMFL+lsqQA8o8tJzmPDkzzUBMCroHLZvoLhSJvxTZXHGz/vaOq+R07EYs/MfoxCLH5y7xm4TQGtP5Yhgbek/l7ZnhA498lpqLpIHLrTF3fixUJ1h8WevwTgeXue/EyvP6vB6l1VUGEGNvFOEye5esHOH3JM9IaBl+CfxnYcvC6bHYRcuHYex0k2ATkf4Fll5fH4S8tDy4Y/FgOrnz5hOp2Pe7DHrzHX8/wQ+H4vjZ9Jtrjk0joOfzY/2dP1M8G/ED8rn6jUaZP2ctAPYksUE35uuaq/6ZMnDTUi9uRjvW1TgubafiHldMJIy6dnbUm8R32RAWjvsFbPmQ69kOeQP7jS8fhYYPsgzN/IWBG8zy6LaMhciafpGmQBh7Odb0S1Rifs2WfF7ZPl82S+TaOrXV8zzdp6fizj4sH4faeWfJMnyW2/9TkPZ4W7BjbrkCeuX8Fh7b82RFbluEJD3JW2J0QY76h/AcJ7HFXrBq+tu+zKD5tPhWjDrbHZiFygncHGRH1m/sg3+Vu8grcNvYm+Y9h+H2fH8I1C4YYW3WWR5/ge22/j4tt/H1pDT5Ih1tp8iBE+ZT/nEx7NMAP42Vh6FxbwnQ+rpmJjHftFRg5gbkj+qJp58Y5bB9PqA7PfmAANJ6dBtK4wv2IP+46wlsWLmxWDvf2wGOrJ3N5/7I12Znxkw4rMOya6+XDhJzC+EIN6LdRsj9kmuHI4eSZRZgD2VhGBBjapfIf9QbB/aImyfPi5J7CVteRans9O5z4lWHkVVNfiL24SVNLB98iSPIOIQ/L4mNEdh6hfdJ2577zCofcPv4zD1LuSazwlpl8w5+BJpAf5hNM0IkZdYu9tQS4H6iTrHIPC89nLb6kldxw18Jd/9kS6A/bcy+GETt78PYOtHXTsugzOo5bsTfw+3q3sknZIUMbe/gxvYdz8E2RE+xMfj5mD34tu9rT4Zw+Fj9iOz4YmGT4T9kv8CTtj8W/mxwu6OWM7ZFuwxjmE+EFw4Pf3D9dTiRQWen6iai3pqNwi1DDk/MDo/wBwKhT9M5uiyhpAgdFD4twb+ctM+RCDZdybL/Dez1LpeksPRdAfLO4ZNAiexk1JWDkXWyAZEx00/CA/lWArs12b0yQHCGjrbk3JNvEgY8u/EjRhMHMlSMH+yaHD5h4p9ofhrE9PbQOzxpK1v4a+3RPLcX9wCPIPFuH2WC82DJvYaQD8h5+D5NyPmNV9DpJCCw7jyBh9R8uhz5g2Q19tlkcZjrDtycPp8QdYN6nmk6cGN+bPOvLMwBgOF6b7vPw/qYGDv4YNY4z7fEiKQG+o/DOQLtxEWT+CXYmPy2Dstswjrz0tVeSSfqPv8RkH1sHs8k/cN5eTnDYEjedhAvtLeo58t8PDzLPDwjunx5bLKSt6Xyymi6E52DqF3uP/AEkaDBg1X1sj8vpYD2+2B6G+MryAWjd1+IzY4lD1SY/iI7DCGh8NkSeJFU6qx2KE8qBsOfaLwEQFECObyBhsvJ63EJLZlTIG+QEBsnNN5EsENutt7kzvZcCU65MYoc+7wb/SxoBHbSBh8ZdcUtkI6ho/qbgy5Wyj5fcAGwp8QfZL4/BimT7fH43sHxa5bNzUnS9cjHth8I6GHXPuAJrBgWwjPQdfkhitXNjrdNvld+fqJQYzEmP+O2/jxPsTePxpy+aPTLkHQkw2COR7Plv4+Jj8/ETMNPqxVnuzgjTPmbonemXPRpPJODkY9cXDOhk7PqZ2EdXNG8Ek6+Zm2AmPzZ2evmw1v9WH2x89WHrxxtlku5IncGAc9sVSwmALeGQ+tv1f+piQX6WywsDxTVMKeWfEEzh+4Zx9cnm4XIgXsTRjYDN+rJmaRgJ5I3d7QxjxWPs0UTmNnx7hI6yY76Yppuexf0PmHYJz4fuB7fS5JgeR+0yhIZHncLfXIyeHxk5WH6mQi/dkfpHoPYJ/Ke3ew9fN2rEZeu3QJ5IUjZ+iJ/Ysd78X7tg/qWt9hLcSOQ5MXPx8wSz+Rux8JeB8E6iT75Z9vXIDraZLgXxZT+pGmBdMpof0fMZM+RYfqAJG+Y6/BDhX19gw2TCyefjfx2Gkex7euSzySSGLBht1i8ZPZnhPGJ8s/Gz5H4PwclvpuLTi2vlaueNmBYsk2ItvkLJPB7I2eSDPPZeZVt7KBkxcUMIv4EITYr5kB7t2mvsPbCB7Q/ID/wCXJPv/AKXfbQ7rH/qBLDK/RJkWYZg1EfXtl3z5S6+J89ElmR/M04r/ADOORzp27dyvf4/AS7D9eXOHYd9Lsry8MWWdYS8emwp1a4dFvPpG/LYc9h0Xv1BhHyRisBYxrd+W39s7hdeEZPa03IPHxscIVNal+G7T3Tos0/KfLvnzZa+r2PuH8Zvg/UnP7QH/ACIKvLeSbDGW3zDhPX4mJ/q8HzPpei8ZD03ByG9Q5/Zdi3sG8Sx/U6bP1h9SuXh82cNXf5QJrAwSB7YbPJdI/HFsTPYdg+Z1F7bLt6viW8XwRerxLb+WIj8P4ZNpu/rJj4zwj9oXsJONxfItEu7bisQJ8nCCXnXbVIv5JIvi8LRUDBfJPfL4tGA+SB8lg2Zn1JjdpuxN7bdoOwN/tv8Asfln4WSv0/zB5Mzu/wDQi4L6pZxrwh8tgDbTNmePuRz9IOa58+IrthOelbTRXnlrR9IFDUcH4lwyCMDyEl/3JfDUdd5bWL27AxOnktH35LNfB3sCw+eklAw7t59WbtX8XuCLF9umeFzZroHLhT2wMTrL4bRl0Es84Ps+2aZ8N1zc5J6JyzluMEcP4eFhZ/hJMjt5DQRC+p6QYE2JCz5WlsAD1RF8wuY+rllT8Z8zF+9VfZT+XzaaH4Gb5n5Qc/I/AO/gTJN7e74nqzCPL5hrBJZeW/qfyN8Sc2HbMfwOwCHweQFfBib6ebbr/RLgfq0+wOxH536uJOIOH3L4W6edCIbmO2HmHuw5vB5McJPIQdGkPYGkMtt2V5+ZdOt49J/vLKnP/wDS0Py/gJs5bydT5jkYvTmW7cTPqiPjae2Jb2BATkDWOMPzd7wYTvWZ+/1Kj+MfVrB8kPNGTYmRHhX8CZov8JOHfY9+MgcfA0GIF4dR5ClDHQsaGQP4GycDnB2NOkjfC0BJGfzczLM48SyPrM/a9t7P2HZvR9Q/dHI23u47pMeWbPHIT0fhN/CAUDESu/iXDNjptreJl4sisB8UR5N+jfKXH5W69OLKC9H625XIGXnPnfbLz8DbZ2eTQ/Ai+PwUerZZY2PPwsMx5Dhbv4XPw9J9m9XxJ8gy3IOvEBs65yQ59iBfSEsThOycF5F8g+TYOW0mICSrz7SDPc4xP0pEp9+Lb3XVvBsUueMhPe9+nxADvxL8QGXDbI70Y/tuW9y29bIn/Bjrks0DlgTXP1TDfnwTzfwk5eEocsmbYnvxa7esh8WV85hdfstWdhcu3X5ueGadNuvC2eXi24SYJfCMovYf1L6Jc/lhnXjC+m+EK+T0+oTMqhyBl5+BOtuZclvS3mdrH4Z7V6N+SEfATM2y8geycss7BywGCTw7ctLdZ8y5x92+mHPk24X19tLJ3yDRMYnD5jT4efylE9DTP4zv4fFkFt4/FR+PiZiAThtwIkfwzbSbYnPmw/LI5DPtk2rN7fmP5o8/iB+r6kfODAy+YGwb9Tw8GqdPytAf4uZd95Eo+GP8wF7ueR7+7if9i8lmrbT/AEi4RJiuNr9zcP3PI8nMWwK6BtE/ScZZH4JvieWc2YfaLDx43+2aIe78sBE/ueiISgR/NntJvxTrnhMzHMO0X5+5Cik+nZ6Fqu+elkfJPxQPW28KdySc07q1My8M9nABwYH1YZDW14f923Ys/ucKKc55ABrjd9D28iaS9XT+o0OR1vS3wtcnxtoH03wL+XNurbTck5dT+Mg4xfNSwv0sMPu+dh1e8vMP1gVeHzcl7vCbM4dXLyXh2GXw9QffuAFZjD/Dr8bFwy7MDYZDHZ5Pl1mSc5Dy+V4k+Q/cct9gdt7LHS+fwT1tvb4ti4s3ofUPYqZ/OY18XiHk30icAnHrp/E3vnBeqvuP5lZqdMmV+y2H7ZkA+NsydOWv4/ibu7vIsTUdvGvv4Dhj4jtwYQf9oXeG1d37mI/DfEw9z8Hs58VZnXxkWHzcZfkhdQrxlPaI9e3rbc1OEyKiC+2k9U29/BZpcWJ258/cvTh7ss5/E7SV9Wz9+khc6nU8f1/hz34PiO7FOvq8tlxLQG6fDYBk82ORm+b5tnZ/Eef6bh/uyP4NYLbzqcy6/k3wtxvxv0YTxJisLqAfrTYicHz1vpw8iz+5yFEfxbc5nInj3pZr07+H8ZZ+PiewveRs5+DxISeON8NnxfOXbuezyPWyfuBUjyWZy+7e2x5fH4JZEF08hTacfiOfnfIfj7h1zjb3wMdPQMugIzYd6ZPuS/A4zrfp4sz+QW38GWghhbselkDgPSKHjxv+Lkd5PX+hk2cQdIg3UDX+rfb5/wACZYDdyY6z/qGsU36TNGTDah8kXY+LDGTL4QvzgWAvge5N5REoPU+YHZ0IHtcRgfdjeKgm/pLwBr8zDzDZT8kfnkSz+D2fPbSkBonsn14RfmCPzbx+4N/cjuL32+cfMX7LSVLj6cnh9dt5d4eQYu4uuft/EQtt/HIvvghSDMcI6bIAwx3Ra7yDA+WnnkATteijfNV9CHtHxImAR/Zk2wkMvn8fM+2T5g5HISc/BNewfiR2T7/AC/NxEsW7N6vTu/qVdQqTwn2A/Gcvm3IoMfJCePn/ABFXkPT5kMO52Ng3rZb/AASCXj0gQO/DfsXzbRv4YE/RLkAHscR0YCfq5GW7/EcyHB4L0r66kRmqS/aQD+daomaFut3MHFvn/FbNlxz8HG4z9LlL5EVAL5nDPct1+0m5YcHWTM9+Z0W2BHjYZOzGduzmq+S3PZ3Ids37ti5hJ8r+pfNjcsUYofw/jl83xCH7xsh90lvu4zR69tUy5U9WdJrpAHJfH8Xa/dpfpbd7xCBj+Eg7CI8frttTzy2zfuQ7tH2XFdJbBqbp8Rn+l4Ho7eTb6zpueGyFt+23fbz8Pl8/j5n28T/iYM/qHZey6fgIex5d/BE+XztEHIDqOXX4L5t5kGTMmD429FL3fq3A8hIoRj5I3OKbMlfPJ8OZEiPTNnM/X22nqPd/CB918/iL7u5N4+r9S2TX9SOvm5OC8ek6HMmAetUgbgH/AJMk5fYPD8E/hsjjJ6/On17kPyZRO3dhKMERMOLWueyQ8lVwe2bKSwebeTj1ia+DZfuTZfc/iW+gpM0xDzgsk5+GYj8JofqGZ8Vlgn6tDliZat7j4uTbofMtNFl1+CDYdexw/on26mXzNl+nk31jr/23L+Pweep/EPFgxeZKW+HZD75XIGZE+ae3xQWn9xqOhv53Ir5mJNjhJ222fwkwSd/AEDPxF8SXiWfIR5Dn4fwkHYOfjLDEPUE6tEnvEda+G1a+Fj6tBKp9zG9Mh0ZenTg/cAnp9Qr+U/JXjZP91uhsqH+dmW7yOrnWzGMGR+okOj7DczdFs/nX9rH/AJIfcGHj9myQ9yf8F7BZ+GM+Hbu//jbit38/uPUxXtg6QBC7YyMQBEHyW4uch9nq0f1ebFhJzP6T9+ockYPZSbOvwnPwuXxsE8swvh/iYKHScdX4nrLot1lzYZmwcEhG9yD/ACrkPeCJU7m3j9oeLkl5Hsx5e4//AGXaev8A98cGYuwjEW9XxPjPLiuLwupO+7M+OeEBH12z7uh/1cAZ4ZF8Sn1eIOzefk3bLJILi9Ly9bz7dYlmPwL4/A8g7J+VYfnOz+D8Nh6I5jNpW9A+5muu0I0JzfuuD+BswdLueP3O20uv3a50cZd7EIP78iM+DC0Q+5GfuH/Wes8NljzYCuPhP0sh+hv4GTsPdM/3B5TaXkNoyyOl8T7bbe8sj9L+tP8A7Z39TN9AWqH3APfm/m0+y9krft97E+stj5PFsHjZK/UiwHBuAGlv/J7IF1YAPAYR9RPk+z5AZLsH0j7RzYyEXTIRerXRaQ/uwyBNj2+cufemyd9o2AnmAgycYXxEfI8j+4R/y3z3T/2NQk1Perz+I6hLy+o3/cR8kCdGJC6BHBJvf3Zn4+fwPYcg2S2PbLJYe/ieSWXHLN/D4h7b+CC4Yb1Hn+D+D38nuvsE/RLlq7hFlbNbeRkGdAabEmvG2JOcP5bV7PksdfDs6djoM74XqXoPhjn4M/VB0OQ/cxsPkPYGeEvBedIA+M/+RbntrrX/AP7XL38BYYfh/C22Ve71foiyPf8ANvWfcyz5t0jX9V3UL53Yxe/hLoN4DnzLyGh8XzAgvj1ePOyap6OQmu27Kv4PwGryRuH7Q7s+XssGXPgTI2HdPv4gIM8DPmfSJcj9RIH5BcG+5Zf4Q52NZ82sCsxEVXiQ8h4LIG4QS+LlcW+vqIr/ACx9/CA/0bBOAt796f7beC+Zvjbd/Gs/BZG7BbL9W6fkN2+Ynpjhk5eLO/jLM/D1gMk7Ex+F7y4I/Bnze3rJ+ghnSTntvDxhR/kTerOOn1GJehc9s0H3bX6fHkXwxLT1aU3T68mvfe2+YeRUpW/Bf7C0Owlowcn9zD5wLdvgSgbyDVNWZBz8e36/LJBbBP4tej+bJOS/uDb6RKXzMGPJS/mslHgZl1WXDLKrj5s6fgwB9IBH3eeC7fGQba/NsTQ5AXZK9ITiQE/jhfovtb/+44EmH8Gpsef5u7oIm70xhzPouWc4Jmc2Y2d38GHJ7EeifF8dBCEtuHxd+pwZDe4AbM5HdXmr+zbID1UxX5VvgifyE+RJsTLy289/IfgyMOCf8Ab38MeSfh/IdnESy3Y+VunyWnbi/mAtP6CdQWYMtbR2G+pL3+P9iUPtR/8AEv7/AJmWyn9x+iWQDe7bkIsnzL+RM4/Uvf5qLiyZzJ9W3UhccD62+Z/yME5KEXZmIP8AA6/cx+/Y/uZDN+nkenz3sxreT8IRdMHZ9Ps2U0z52Fj77HvPN/wD5B2wyTWBIPl68tH82BR6t/7Nj9wRT6ztn3yHdklk/WJe35yEGYu/h8TfEx7PlkcT+bBu8U/NpxF7Xi3s8nAfvZ1/Jg/DkX3zBp9uQxRYvj8PsT5H4DLZv4M/O9g7PL7W6y+Idss5BHxfEx+G38+zuzFt5i3SPYfynxDewcmGIN58IszeBmMD+iS3O6D+oNLnJ+8l9E9IknQfMoj43PMoD23R+75D7gM8Xb9HFh4H/wC2Y+hMlU5yfW5eVsTZ+M/D2+b4i4fJFfdhW/4yFRpP3Of4R03h7FloDyXq1kAYk7wFrEpy5Ir4yj6JSvez9W8fez7yHPw+Q9k+R723bN6g+FOPwlT/ANmEf2QZHxfMe25EdZYL+oS/Nzsr1CBhCcgkDSTLeSwd/Gz05IL+YMofBTJXflnlnzLg2Er6g/BqIH3Mtpp6scP5TH+m/wDI9/G8/DExz8g5fqOT+Q7sFeXx2PIa7LK3sez7fV8fjz8e2Xllk8nyLxHkeTxgAoiHzFGCcQmDNzw1Ltkt8mSNs4LXza9Xzm2uxwifqS1cmvpcshjDk6UgfhCj+iG9+rIPu074Te2eZdMfhvUsv55f5LRPrO0Zx3Le2P1x5JV9tpumlp/KxGdNnLmpaBKu9npJSPVo/ofwvOHJttttlwtw21xJpyXIds7YUc4oIfnNkfHzd99b1vus2Hlj8i/XMqrxVvQO7D9SZDHtv1Pfxn4W29jq/wAQcYrV+9lqFmWOx0z3Ji3tZ5h9WL/cP6G5D6Fl8RfEx2ffyI8s7ZP48bfxv4BpcSCGBfJB+Pj87yHtl8xLd+ZYJLcJcmwY5IhO/DEgT7j10Lw+SfJ3cD/FjGc6f7iW7hy1P6RkHsUQy2W1t8hNEHY7ZF2GdIlt7pbDvt6XmT3+uSx8tdlfFxJnx+A/Av8AS5G/pbd2fN0p+4YsmD5rWfluoes8bH/ARa+5vlDSUecm0fmyPD92OR8GUS2WfkOTMTZcgMcYdZBni6kA9AC7vy0wLv2HTPw0DP1N+fVyRH5BZUvBxtU/olHjyzC+L5t7+M38HGeRhz77G/MjY/mGN6b5kXmQmmKWvvPLA/o1gfzG/wCYvT8FyZanrP4EXz+G8/B+Ty3MXRDKyX8ZxtWGNrfP5fLrMwmTkIxF+3sKiaz5DRmzYFwQ6+3YD+Kz+9yA/fGcSh+7hRDXxG0kJPqIN7loz5PKNn+9iZw9xt752/a8t5Dyy+PwXzB8vH6JjEnG/dsN43y9hlnc5sPyk9XBjcfXsOS9PwXyvg/7d3+O27ueDbDD+HkG6hwvEz7eK0fQWS/qkefiMNxZNn7mn+WxvpI3vWlxnjMfE+XzfMQXEfg05o1tNfuOC+Azj/8A72J+MDLoP5IOH0v4y/8Asc/jfhjy9hiR5+TBfEScn8hrLC6uZS8/ITyHhN6uLCStt7H4YO3xN8RMfh9vE7jI8502C3B5N857gyejtn9KOoz+ANhuPIRnAavLtjywscH5V/1PVl/BJ8quy3fwmW9yPJvi8/Bbds+kCUdfhvIQBKH9cgOWCthPq+LJGMfa6f5iA++Qv+xNZ+rLLJhs4/xDV82lv8eIdV+7AQaL8RNZkLgT4yZ+0nP5svuFNjMJnNmyyIlvqMY+hZ1vNE8b7PxLwC8BDT+rYPn0tC/DLF8//wCdv+UiY/DBH4Ls9ZITNvZ/HIZ+QRt09/AeQ2RP4J8j8P4Px8xM3xByY/PXyTsf6698NvkWw6X/AFfyAyJH0RifEyrHZnvFw+CxjzhG/pYMfAmPvK/9kIv3y1w93v8AEH0x2Ir9v5XZMYZNvi7Jyb+1gDnrOFtnF+4z9bkHzYCvb2XIcCFX4NkS7p/1Gv8ASdCnrIJ+zbQvOEl1L79t/LZpH+A9uyYOFt33SzPTuy4C2LPqPaFHfE9X9QPrmL8Tg/7foEEJDT3f8M7eS/grH0s++WzJ8s0Tih0fUbfoJJ6Q/omo+j2QqQj/APnYc/0RMfjLPw2Njkx5PZLZv4PHSR6JDwm32VHkeRE/g9/DZI/g/HzE/k8n8vv4Psd/vkA5if8AyAkGFIOB9IW58RyPnYFPvsyR8LQR9Tasjj6Z5T6gPmpf93V+vbTX4JIps+ZnDLwRE/g9tvdqAl2dWxNvu4uyFxStlvitt+8+qarn+4MvYNMdjCpDh+GfgfbZSw87+DyYsvJcr3Jh8TEVP1D/AGTwIweQvTbL785ab9WWT8hYB8YnBKLkXz+Bhse3nWQY+zAEfdXcviX4TeGN3+U38U/5aU/uGQ+r0/8A82/8C29lyH8vkw7ByyCDs88tewbBn4by6WtlEHIOMeyY/wCHJny+YJ/AzFxHn4yyyOfjh0iL9bZm3i4dP1D+/wA/uSr9XFHBuRfBal+J+AR0Q518C+rJHp+aTi02d2tdvm9jyHSC+LfywQKGk73vImb6SxLJ4LmxmIhOouf2Qev23/cQvDkzg4T5+ku7+5O2d/Acnbg5Lltuse3LqMT5vb+uzD+V6bjEBy8kYM+Lkz55CX8/hZxyTSGRQ8s5v48k20PIx4w4Rln1b2bCaLJxZmvn2bdc5YB+GQvyknxsf+2HP6WQZ+A/HqZs1jz8eF83uPqE+/hQ0j9w7FtuESfNtlv5S5sMzFvLi9/+Agevw288R/EPsCz6U/1JwHzdT7Ea/JEwIZRzR823YP39I+Scni+oE+V8n4z8PT8Dy2FvIaROG8Lk30CU3yvmWZpbO0yU/YsJ+yzp+VC/rZ/2fM6ojvysOGw/LY+3zZ38NnpB+D2+fwHSy+Gh+oAH4B6Q4nBNku0m6/u4X9ks/wCQSfbGw3l7JiHYe/kO9hnSTKpQv3PhJ4sMwMAE/Umn9T/swvR2fZ9ZIJ9P/btf0jfx6/D7gi9/DbyGWLtH4Hk/g3eRxeoiyCfP8N7bhM+Y4lmWOxye2fP4f8T0tV/BIADyc/5oXQcBD96Eb89bPZNiwYPq3Q+mN8b97/8A6uP+roTNLOfMp5LbfMmQ8lirBHSOtx2efpKf89T+ZIXyS4zXvyysPidCP0u5JfPLSWR+w/7cH6tPU1amb9qZiyJbe2wOz7G/wS1w7GR/bC+eDZLDE2GDcYXhDdExOfiOo8uZaDX+y7d4Y3Hu5sCfOxyU/An2YdhpkP7pFxxsa/A/zhgWzHwN+ihbYfGRv+CT4zH/AJHZ/B+fifbPwv4JY/jcmfJaC0LIjs8hl5+Dyb4j2YmJ/ASWC3n+Yb57s9b6H/k+OOMPprubEaiFhvkH/k/zFECHxcFHh+r9BkMzFIf3l4Po9jxO4zxx8Xtkw9jzSHll+viwL/y7sGDoNL2bblkLin1Dtm1+4Gfq/sGxs82/jxkyefUJThmiflTLRv22fwEpn489vYO1UeXbs+AHqyec8EIh869ldo5937ZY7k0CHHJmIWyNocy2RrF+rxu+jnzM12wbDAX7Mus39Q18GRn82csV8lfTP9WjAsmodThSay7SZj5mO7YLvZpPEsa9YEw35CER06Rbe6DDko9ss/PxfP4er3z8Ejv4LCH1JzsBjhZMcnpGT5+BJ7MDs+RNxD+PUrAS4Q/5f9Vpj4P/ACz+knKLq5uWTqRa2Bxa6d9RwD4fiujP5E3GOcS2p7jBN9pwZzq9L5/Pkw3bdfwYvmcUJx5fB0ZU/EtORdWuB5GdI4rJGUvy243izoemXb8lkVzq9mcsEExt7AQeoSaH4LbTpKIprx35nShn6i5Mh57yKzoyfb2WHiAg2MGllOLb8NqiOTsH8tQYUp9CxRPRMKbCRltvk/D19AyTOKcPo9ZNYA7LS/EG08P3l4LEYrbjhgd2iRg/JjJrz2Q9oPEiAcsZad4S8RLw7T7v+BAe7/u0PxD8TYnojcfIuXHyHw5Y5APZ7Pscm/jI9vm+Jcf8D5lE3j8Dt8/gdJ7H538jU/mL9cH/ACyNy4Le/OJNz3U/7cN6uWAR1hgu5x9Iy/6NsC4hwdvvwdt8fBO+vvln5yyTPwSXhbrfF4a6DfuUNgWFEPJ3462DvzeDvPv8DD+xYAPS1C/zEyyQce7d67dZ6djzYH6vjY6c9jXCQTvrYG4cz5lEPTrMInNjs3sh1YW3RY+8tjjMMQa5O7pNB6YkGcnoma/d8vMjHzsYy8+rgMclkqC/aXDa82cITluRa+iH8Ns3DuJ5RhMztjG+ZfAWsIeuWBR8ZLXlQanssU4/8uYTHGd6XfuT9pT+I+5IPGc4/wCkH5n92yVpAbrZYIogQJiUd15lK4YYvMEd/wBbcNWn3dvGz5bv7kd7BpZBBsufgW9R+fieNtuyaXxkwXfx8Eo7D/kYPXkfb4pNQecRPjptnztx/wB5EBIEk8lvD7fx7j3+QX1mFsJ13ufx/hts+ycjkrCs+29z9XyqGEy/Wwa2n1b6nzYiZ4RK/wCb9jJJV92ch82NPxL9FH0Dtyv+6P0/1WT3/qT5sfxeif7SPiSSUTQgYMfEPCg+dO5cLwjIBIoQjMbr+penhcnzLHBftLdfqFt7S/sT5ISj0j0o8USziyAy5o/MQcLt6RkzC9ZoGg6k6Lo7xIwE+7yR5LL3JN4AjRGIy+5AHpI8HJRuXcJf8Ispx8Wah+5Osn0tvLfskKur6LbjL8XK7ST0tnXf6ST2y4JpylqE5ByZJj6Qc22PhGn2/bLQ5+lu2f67cdIjuo5xyFE15jY/gXkmsPy4Z7ZBx/BifwdIO/gLqdGRePx8XcjW2T4TMr8ljPmOf3ZIz0sgSfdZpOXUvkaB8kQQfMma8UhH0psTY9REsxKzA32fm4XHntj9IW97/F2+M/d/0uYPlCLQVFwavJGXLSGEfCYlCTIH6bEyfNxwLqMgl35kfCIPbHTsN0+46Z+/ohBnzN/TLBAZ93/hFtemY9xeUm7w4x65MxaWOrrKjkf1E+SfVlDcWu0H8MieM/m0f7NuOHsn3p9T8mP5jXG/eWeDS1aTOhsUAaMYccbvh8A3udLpNXBpPk5Iyk6reLNTzLXww7gkHxx+7g4AQ2UXzhfJbeAQh5ouOxeAf5l+39Q+JlwbYPJPnUK1YfcV3DkbFn8WRx07Gn6mHIfFldY5pL5nwAvbl5Fw+FjYLBA8IE6XQ2cHYAyLZc+N5H805Qxx+m+T/uDTZjyZIOR+HyPb5sn88TrpdajHyLx+DMvhvXJhH7y657rDQd0f+w/ZFqdVSTROWE/dtj+IhK7yT8kNJTteJlQ6pl6FE9mSOcCyqvM59t1zE2EoaNFk2G1Td+m9qfyyl6P7ZPBtuzI/Xtw6G0UE+bINyN/uVqOOZPS+yJPiSdihE8H34yqWT/uykLW6f8QNfmMbgO7YpnZzpgXYnA5JLxGA4puxgPqz+Z65YAjyAwOg/SX0zWT4K2etZ+rtA2t6Nik1i5RokcFG3h7ZteSeO7G+G9QWD1SDNWwmP1KT1+5N559WuTOQzA/WW/8AG0+Up6sIz5/a+hHSjLEHGCPUWg7EeSL0BefUudEZ5Yd5im5YCIHje2bNRTxI4GI8vQDGYS9ccmANE6CIvhl4slK48njk9zhNtOjT4YGor1QP0hqxHtz28sbIsPw+R7+X8MHeQzAXByPnPPwPLfye3H+8WfPciDfuyg+A5buYLcwvBhIfAQnfqX6hX2+zRu5j/qW7MHLvgfZlXrPpHe7f3Cu0T6bfesh4Ms/QuO5bfJ8hkk929UzY8D5iD+g/9hnfoZfzwszag2qbxfcyLht9+bN2eTNHzfZLc8IOaQ6J1HY+jhIfmMPGQ5vL3W7OPiB+FlVQbl77WOSGQ3FkADfmf1DZIoIXkJpsN4Fqa27hAr6XwCdD1avYbpyy4iflsney9NS1e5ful36rUJ6WHYTz8NtrRg60fdpazES+PH5T8ryw4P8AhYXpXowSX7RqWxfeZXkI62HKL4lfme2BBOOWHovolD5AyN5GIJ3UOwAT7ZjHDeUhhDE2y5EHLTJPEeT7dWcs0gPgb5XfJcz8ZZJBnf3Fmd0Xk85aSHy+3be5GPgSEFx2La7hvE+EcQIyPy7aA+BOlhm2BV/K552QsDJ49GHu5Kt5HZfgkDey8soO/qHyT5mO3yB6IpZF92cH4OWDuwIApgO7+76pwjU4XSyC8i0GhIRh2ynmpsfmzELMTtgwnZO4XDOInxPrgs8EYMb0vRHjzdPkhJgdcbgMbEDEaZfUsIZyUcknN2J1ljz2GeEL6Z/uk+FoEyAnfZD/ACu+ZncxsNx5OCCeP4WPC2LDyBDMjf6sXVZSE3y3kL5/Dr8QQ+TZDnENPdvkgJxtB9S/3beW/G2oQD4YkNIBOkX0OSu0feD59xxAHW/c79QN/dsTZCC3l1gnEbiO3r8HgB44vzmoQEOln5+z7jS8dnIfOW7xj9BLFbseGes+WL9cZ5R2VP3B/YlxehDO9/8A4kbRDhI+ZIIA8ZSMjqnHfYEmnqJlNtn4FuHZf7yQ/vT/AA4mSjBj4fxKAJoMKLkZ4P4TP87mHiyCbiFpeTHthYwNvwt9CAOPLmHk5WIfE1qKZfahzWADKUN9uBMd9noDLXqH2TyC7hKEHyWrWYfNh3b4zfIbBuBENndS0NUlzwj+uHBAu+2o7cLOwyUsX6PwZk2LM0WBZs51g8Nnpnl+jAY3s6dn0S67Luko2A+XukLOxLmWp5GZEifdSObk6fudePsETMXS1x+MyC18yIS8tPTwv9hL5t/Le7F9/wAkY+T22TrCeselYDuQnLrX6joM57AGES+BkBCc3rZF8xEo4GT8pMPEc+wHyknkj7cMKOcg2Zj8S068sMCxPrsfN+S6HFRuP5BPw+JsCcxRGh/EvBv6vDJeHwz/AGn7y3B4fmVij+J+8bi5Au+R0YfzYcRsCe/qb8Ikdnbv1/V+gsmmEaxuzxjKBzIXGGObZ6sZzh8R9kwBqt7pNSw9HYAdul6TvwyPes/h5enYc5Hl8kiDY/YtX9fVqeROa2TYDsh8s75Dvxcm2G2f0tX4kYyuthsI+x8B2wO2CaS4Q/F9Iwfglc5YDjG/aBreWTvtqGHI77cc21h0kloL0+IqSA8+IOE6MoPJdtvzOIA7kLPSHdZ/G9nGUepf1UfuHbMhJlyMC+I3803D7sAwPCzZDqwj7Y66Refs8Tnxf7LYnvh/UwRrnYvuEG3d0IA8tbb44YcbfqxLsHI+pfhtWLbkM4PJ4cSr/huA0zbt0zfZ19e7IYzqGPFdX9HZbxJ9PZ70Mh/xlZ02KInTzJ8gbazzs80OP3dUyXFXyR66uVE+OLz8Zjdm+GSa2ZMaII4SnkRZxueWQzFmdlR2F0O3xjkoMnr+LuTFgSMELcjPEHgnU4adhyPJLB9lgsXJ99kmJLAjn4yhfMHO2ECAWcPIOW5dXj2LfLCTcuTr2xvk/tLwjwbonAjGB5G2TLSdGNq0npGb/fhjO5Zr5HiQ8GGfxZHJLPwTy9Jg1/AJB7kRlHk+R+PSb+Mxbf4Z2di0vq/5LyP0Sdfq8heTQYfConwIjNUvGE+sT/gEGGysA0IyZl193k4eYGsPZDV6s2P5ujs2vO//AC1Ueu/+5AYRDjHkAtgK+j83BT3STtXyCMzk0kZ6wjhkkgYy7ke2HyAIjgiJv3HGJWyGBXCCBotjYZYoIz8sM/BP4XqVOHkCwz8fbGT3pfUgsSH4N4j86ysKVvEK1/D+OjAnqJUBuJl6QG/drslzYLfPhPUvr+H8Hv4+I8/B+P8A/9k=;" parent="1" vertex="1">
          <mxGeometry y="579" width="320.87" height="246" as="geometry" />
        </mxCell>
      </root>
    </mxGraphModel>
  </diagram>
</mxfile>
